<svg width="80" height="80" viewBox="0 0 80 80" fill="none" xmlns="http://www.w3.org/2000/svg">
<g clip-path="url(#clip0_88_1808)">
<path fill-rule="evenodd" clip-rule="evenodd" d="M36 36H41V31H36V36ZM33 39H75V28H33V39Z" fill="#C1E3FF"/>
<path fill-rule="evenodd" clip-rule="evenodd" d="M38.8247 20.5088C38.5677 20.5088 38.3487 20.3128 38.3267 20.0518L38.1377 17.8408C38.1137 17.5658 38.3177 17.3228 38.5937 17.2998C38.8607 17.2758 39.1107 17.4798 39.1337 17.7548L39.3237 19.9658C39.3467 20.2408 39.1427 20.4838 38.8677 20.5068C38.8537 20.5078 38.8387 20.5088 38.8247 20.5088Z" fill="#009EFB"/>
<path fill-rule="evenodd" clip-rule="evenodd" d="M34.2725 21.3204C34.0735 21.3204 33.8855 21.2014 33.8075 21.0054L32.9925 18.9474C32.8905 18.6904 33.0165 18.3994 33.2725 18.2984C33.5265 18.1944 33.8195 18.3214 33.9215 18.5784L34.7375 20.6354C34.8385 20.8924 34.7135 21.1834 34.4565 21.2854C34.3965 21.3094 34.3345 21.3204 34.2725 21.3204Z" fill="#009EFB"/>
<path fill-rule="evenodd" clip-rule="evenodd" d="M30.4609 23.4258C30.3259 23.4258 30.1909 23.3708 30.0929 23.2648L28.5919 21.6338C28.4059 21.4308 28.4189 21.1138 28.6219 20.9268C28.8249 20.7408 29.1419 20.7548 29.3289 20.9558L30.8289 22.5868C31.0159 22.7898 31.0029 23.1068 30.7989 23.2938C30.7039 23.3818 30.5819 23.4258 30.4609 23.4258Z" fill="#009EFB"/>
<path fill-rule="evenodd" clip-rule="evenodd" d="M27.186 27.1172C27.107 27.1172 27.028 27.0982 26.953 27.0592L24.994 26.0262C24.75 25.8972 24.656 25.5952 24.785 25.3502C24.915 25.1062 25.215 25.0132 25.461 25.1412L27.42 26.1752C27.664 26.3042 27.758 26.6062 27.629 26.8502C27.539 27.0202 27.366 27.1172 27.186 27.1172Z" fill="#009EFB"/>
<path fill-rule="evenodd" clip-rule="evenodd" d="M29.8848 47.3311C29.8008 47.3311 29.7158 47.3101 29.6378 47.2661C29.3978 47.1291 29.3138 46.8231 29.4508 46.5841L30.5498 44.6541C30.6868 44.4131 30.9908 44.3311 31.2318 44.4671C31.4718 44.6031 31.5558 44.9091 31.4188 45.1481L30.3198 47.0781C30.2278 47.2401 30.0588 47.3311 29.8848 47.3311Z" fill="#009EFB"/>
<path fill-rule="evenodd" clip-rule="evenodd" d="M25.271 32.8643C25.245 32.8643 25.218 32.8623 25.19 32.8573L23.006 32.5033C22.733 32.4593 22.548 32.2023 22.592 31.9293C22.636 31.6583 22.886 31.4683 23.166 31.5163L25.351 31.8713C25.623 31.9153 25.808 32.1723 25.764 32.4443C25.724 32.6893 25.512 32.8643 25.271 32.8643Z" fill="#009EFB"/>
<path fill-rule="evenodd" clip-rule="evenodd" d="M23.582 38.5049C23.374 38.5049 23.181 38.3749 23.109 38.1679C23.019 37.9069 23.158 37.6219 23.419 37.5319L25.513 36.8089C25.771 36.7189 26.059 36.8569 26.149 37.1179C26.239 37.3789 26.101 37.6639 25.839 37.7539L23.745 38.4779C23.691 38.4959 23.636 38.5049 23.582 38.5049Z" fill="#009EFB"/>
<path fill-rule="evenodd" clip-rule="evenodd" d="M26.0166 43.545C25.8716 43.545 25.7286 43.483 25.6296 43.362C25.4546 43.149 25.4856 42.834 25.6986 42.658L27.4116 41.253C27.6256 41.078 27.9396 41.109 28.1156 41.322C28.2896 41.536 28.2596 41.851 28.0456 42.026L26.3336 43.432C26.2406 43.508 26.1276 43.545 26.0166 43.545Z" fill="#009EFB"/>
<path fill-rule="evenodd" clip-rule="evenodd" d="M43.1846 21.3204C43.1226 21.3204 43.0606 21.3094 43.0006 21.2854C42.7436 21.1834 42.6186 20.8924 42.7196 20.6354L43.5356 18.5784C43.6366 18.3214 43.9286 18.1944 44.1846 18.2984C44.4406 18.3994 44.5666 18.6904 44.4646 18.9474L43.6496 21.0054C43.5716 21.2014 43.3836 21.3204 43.1846 21.3204Z" fill="#009EFB"/>
<path fill-rule="evenodd" clip-rule="evenodd" d="M27.9795 70.961H69.3825C72.2045 70.961 74.5005 68.664 74.5005 65.842V60.883H30.5975V65.474C30.5975 68.482 29.3305 70.096 27.9795 70.961ZM69.3825 71.961H24.3335C24.2665 71.961 17.6235 71.864 17.6235 63.479V8.461C17.6235 8.185 17.8475 7.961 18.1235 7.961H69.0595C69.3355 7.961 69.5595 8.185 69.5595 8.461V22.75C69.5595 23.026 69.3355 23.25 69.0595 23.25C68.7835 23.25 68.5595 23.026 68.5595 22.75V8.961H18.6235V63.479C18.6235 70.844 24.1015 70.96 24.3345 70.961H24.7815C24.9785 70.96 29.5975 70.874 29.5975 65.474V60.383C29.5975 60.107 29.8215 59.883 30.0975 59.883H68.5595V54.818C68.5595 54.542 68.7835 54.318 69.0595 54.318C69.3355 54.318 69.5595 54.542 69.5595 54.818V59.883H75.0005C75.2765 59.883 75.5005 60.107 75.5005 60.383V65.842C75.5005 69.216 72.7555 71.961 69.3825 71.961Z" fill="#84B0D7"/>
<path fill-rule="evenodd" clip-rule="evenodd" d="M13.1235 66.9786C12.8475 66.9786 12.6235 66.7546 12.6235 66.4786V3.4606C12.6235 3.1846 12.8475 2.9606 13.1235 2.9606H63.0595C63.3355 2.9606 63.5595 3.1846 63.5595 3.4606C63.5595 3.7376 63.3355 3.9606 63.0595 3.9606H13.6235V66.4786C13.6235 66.7546 13.3995 66.9786 13.1235 66.9786Z" fill="#84B0D7"/>
<path fill-rule="evenodd" clip-rule="evenodd" d="M76.6255 1.6875C76.6255 2.6195 77.3805 3.3745 78.3125 3.3745C79.2445 3.3745 80.0005 2.6195 80.0005 1.6875C80.0005 0.7555 79.2445 0.000499725 78.3125 0.000499725C77.3805 0.000499725 76.6255 0.7555 76.6255 1.6875Z" fill="#D6E5F1"/>
<path fill-rule="evenodd" clip-rule="evenodd" d="M67.6753 0.717797C67.6753 1.0828 67.9713 1.3788 68.3363 1.3788C68.7013 1.3788 68.9983 1.0828 68.9983 0.717797C68.9983 0.352797 68.7013 0.056797 68.3363 0.056797C67.9713 0.056797 67.6753 0.352797 67.6753 0.717797Z" fill="#D6E5F1"/>
<path fill-rule="evenodd" clip-rule="evenodd" d="M74.1758 8.7217C74.1758 9.3717 74.7028 9.8997 75.3538 9.8997C76.0038 9.8997 76.5308 9.3717 76.5308 8.7217C76.5308 8.0717 76.0038 7.5447 75.3538 7.5447C74.7028 7.5447 74.1758 8.0717 74.1758 8.7217Z" fill="#C1E3FF"/>
<path fill-rule="evenodd" clip-rule="evenodd" d="M28 77H10C9.724 77 9.5 76.776 9.5 76.5C9.5 76.224 9.724 76 10 76H28C28.276 76 28.5 76.224 28.5 76.5C28.5 76.776 28.276 77 28 77ZM49 77H31C30.724 77 30.5 76.776 30.5 76.5C30.5 76.224 30.724 76 31 76H49C49.276 76 49.5 76.224 49.5 76.5C49.5 76.776 49.276 77 49 77ZM54 77H52C51.724 77 51.5 76.776 51.5 76.5C51.5 76.224 51.724 76 52 76H54C54.276 76 54.5 76.224 54.5 76.5C54.5 76.776 54.276 77 54 77Z" fill="#D6E5F1"/>
<path fill-rule="evenodd" clip-rule="evenodd" d="M72.5 77H60.5C60.224 77 60 76.776 60 76.5C60 76.224 60.224 76 60.5 76H72.5C72.776 76 73 76.224 73 76.5C73 76.776 72.776 77 72.5 77Z" fill="#D6E5F1"/>
<path fill-rule="evenodd" clip-rule="evenodd" d="M7.5 80H0.5C0.224 80 0 79.776 0 79.5C0 79.224 0.224 79 0.5 79H7.5C7.776 79 8 79.224 8 79.5C8 79.776 7.776 80 7.5 80ZM14.5 80H10.5C10.224 80 10 79.776 10 79.5C10 79.224 10.224 79 10.5 79H14.5C14.776 79 15 79.224 15 79.5C15 79.776 14.776 80 14.5 80Z" fill="#D6E5F1"/>
<path fill-rule="evenodd" clip-rule="evenodd" d="M28.5 80H21.5C21.224 80 21 79.776 21 79.5C21 79.224 21.224 79 21.5 79H28.5C28.776 79 29 79.224 29 79.5C29 79.776 28.776 80 28.5 80ZM38.5 80H31.5C31.224 80 31 79.776 31 79.5C31 79.224 31.224 79 31.5 79H38.5C38.776 79 39 79.224 39 79.5C39 79.776 38.776 80 38.5 80ZM48.5 80H41.5C41.224 80 41 79.776 41 79.5C41 79.224 41.224 79 41.5 79H48.5C48.776 79 49 79.224 49 79.5C49 79.776 48.776 80 48.5 80ZM58.5 80H51.5C51.224 80 51 79.776 51 79.5C51 79.224 51.224 79 51.5 79H58.5C58.776 79 59 79.224 59 79.5C59 79.776 58.776 80 58.5 80ZM68.5 80H61.5C61.224 80 61 79.776 61 79.5C61 79.224 61.224 79 61.5 79H68.5C68.776 79 69 79.224 69 79.5C69 79.776 68.776 80 68.5 80ZM79.5 80H71.5C71.224 80 71 79.776 71 79.5C71 79.224 71.224 79 71.5 79H79.5C79.776 79 80 79.224 80 79.5C80 79.776 79.776 80 79.5 80Z" fill="#D6E5F1"/>
<path fill-rule="evenodd" clip-rule="evenodd" d="M17.8735 0.661198C17.8735 1.0262 18.1695 1.3222 18.5345 1.3222C18.8995 1.3222 19.1965 1.0262 19.1965 0.661198C19.1965 0.296198 18.8995 0.000198364 18.5345 0.000198364C18.1695 0.000198364 17.8735 0.296198 17.8735 0.661198Z" fill="#D6E5F1"/>
<path fill-rule="evenodd" clip-rule="evenodd" d="M8.84469 7.1084C8.84469 7.6294 8.42269 8.0504 7.90269 8.0504C7.38269 8.0504 6.96069 7.6294 6.96069 7.1084C6.96069 6.5874 7.38269 6.1664 7.90269 6.1664C8.42269 6.1664 8.84469 6.5874 8.84469 7.1084Z" fill="#C1E3FF"/>
<path fill-rule="evenodd" clip-rule="evenodd" d="M3.56739 12.3311C3.56739 12.7091 3.26039 13.0161 2.88239 13.0161C2.50439 13.0161 2.19839 12.7091 2.19839 12.3311C2.19839 11.9521 2.50439 11.6461 2.88239 11.6461C3.26039 11.6461 3.56739 11.9521 3.56739 12.3311Z" fill="#D6E5F1"/>
<mask id="mask0_88_1808" style="mask-type:alpha" maskUnits="userSpaceOnUse" x="0" y="1" width="3" height="3">
<path d="M0 3.8944V1.4954H2.3989V3.8944H0Z" fill="white"/>
</mask>
<g mask="url(#mask0_88_1808)">
<path fill-rule="evenodd" clip-rule="evenodd" d="M2.39889 2.6954C2.39889 3.3574 1.86189 3.8944 1.19989 3.8944C0.536893 3.8944 -0.000106812 3.3574 -0.000106812 2.6954C-0.000106812 2.0324 0.536893 1.4954 1.19989 1.4954C1.86189 1.4954 2.39889 2.0324 2.39889 2.6954Z" fill="#C1E3FF"/>
</g>
<path fill-rule="evenodd" clip-rule="evenodd" d="M33.5 38.25H74.5V28.25H33.5V38.25ZM75 39.25H33C32.724 39.25 32.5 39.026 32.5 38.75V27.75C32.5 27.474 32.724 27.25 33 27.25H75C75.276 27.25 75.5 27.474 75.5 27.75V38.75C75.5 39.026 75.276 39.25 75 39.25Z" fill="#297CBB"/>
<path fill-rule="evenodd" clip-rule="evenodd" d="M36.75 46H40.75V42H36.75V46ZM41.25 47H36.25C35.974 47 35.75 46.776 35.75 46.5V41.5C35.75 41.224 35.974 41 36.25 41H41.25C41.526 41 41.75 41.224 41.75 41.5V46.5C41.75 46.776 41.526 47 41.25 47Z" fill="#C1E3FF"/>
<path fill-rule="evenodd" clip-rule="evenodd" d="M71.25 42.5H44.25C43.974 42.5 43.75 42.276 43.75 42C43.75 41.724 43.974 41.5 44.25 41.5H71.25C71.526 41.5 71.75 41.724 71.75 42C71.75 42.276 71.526 42.5 71.25 42.5Z" fill="#C1E3FF"/>
<path fill-rule="evenodd" clip-rule="evenodd" d="M65.25 46.5H44.25C43.974 46.5 43.75 46.276 43.75 46C43.75 45.724 43.974 45.5 44.25 45.5H65.25C65.526 45.5 65.75 45.724 65.75 46C65.75 46.276 65.526 46.5 65.25 46.5Z" fill="#C1E3FF"/>
<path fill-rule="evenodd" clip-rule="evenodd" d="M36.75 35.25H40.75V31.25H36.75V35.25ZM41.25 36.25H36.25C35.974 36.25 35.75 36.026 35.75 35.75V30.75C35.75 30.474 35.974 30.25 36.25 30.25H41.25C41.526 30.25 41.75 30.474 41.75 30.75V35.75C41.75 36.026 41.526 36.25 41.25 36.25Z" fill="#297CBB"/>
<path fill-rule="evenodd" clip-rule="evenodd" d="M71.25 31.75H44.25C43.974 31.75 43.75 31.526 43.75 31.25C43.75 30.974 43.974 30.75 44.25 30.75H71.25C71.526 30.75 71.75 30.974 71.75 31.25C71.75 31.526 71.526 31.75 71.25 31.75Z" fill="#297CBB"/>
<path fill-rule="evenodd" clip-rule="evenodd" d="M71.25 35.75H44.25C43.974 35.75 43.75 35.526 43.75 35.25C43.75 34.974 43.974 34.75 44.25 34.75H71.25C71.526 34.75 71.75 34.974 71.75 35.25C71.75 35.526 71.526 35.75 71.25 35.75Z" fill="#297CBB"/>
<path fill-rule="evenodd" clip-rule="evenodd" d="M36.75 54H40.75V50H36.75V54ZM41.25 55H36.25C35.974 55 35.75 54.776 35.75 54.5V49.5C35.75 49.224 35.974 49 36.25 49H41.25C41.526 49 41.75 49.224 41.75 49.5V54.5C41.75 54.776 41.526 55 41.25 55Z" fill="#C1E3FF"/>
<path fill-rule="evenodd" clip-rule="evenodd" d="M71.25 50.5H44.25C43.974 50.5 43.75 50.276 43.75 50C43.75 49.724 43.974 49.5 44.25 49.5H71.25C71.526 49.5 71.75 49.724 71.75 50C71.75 50.276 71.526 50.5 71.25 50.5Z" fill="#C1E3FF"/>
<path fill-rule="evenodd" clip-rule="evenodd" d="M62.25 54.5H44.25C43.974 54.5 43.75 54.276 43.75 54C43.75 53.724 43.974 53.5 44.25 53.5H62.25C62.526 53.5 62.75 53.724 62.75 54C62.75 54.276 62.526 54.5 62.25 54.5Z" fill="#C1E3FF"/>
</g>
<defs>
<clipPath id="clip0_88_1808">
<rect width="80" height="80" fill="white"/>
</clipPath>
</defs>
</svg>
