<svg width="20" height="20" viewBox="0 0 20 20" fill="none" xmlns="http://www.w3.org/2000/svg">
<path fill-rule="evenodd" clip-rule="evenodd" d="M10 20C15.5228 20 20 15.5228 20 10C20 4.47715 15.5228 0 10 0C4.47715 0 0 4.47715 0 10C0 15.5228 4.47715 20 10 20ZM13 6.5C13 6.22386 13.2239 6 13.5 6C13.7761 6 14 6.22386 14 6.5V13.5C14 13.7761 13.7761 14 13.5 14C13.2239 14 13 13.7761 13 13.5V6.5ZM9.35355 7.14645C9.15829 6.95118 8.84171 6.95118 8.64645 7.14645C8.45118 7.34171 8.45118 7.65829 8.64645 7.85355L10.2929 9.5H4.5C4.22386 9.5 4 9.72386 4 10C4 10.2761 4.22386 10.5 4.5 10.5H10.2929L8.64645 12.1464C8.45118 12.3417 8.45118 12.6583 8.64645 12.8536C8.84171 13.0488 9.15829 13.0488 9.35355 12.8536L11.8536 10.3536C12.0488 10.1583 12.0488 9.84171 11.8536 9.64645L9.35355 7.14645Z" fill="#999999"/>
</svg>
