<svg width="160" height="160" viewBox="0 0 160 160" fill="none" xmlns="http://www.w3.org/2000/svg">
<g clip-path="url(#clip0_88_2216)">
<path fill-rule="evenodd" clip-rule="evenodd" d="M6.75 3.37501C6.75 5.23901 5.238 6.74901 3.376 6.74901C1.512 6.74901 0 5.23901 0 3.37501C0 1.51101 1.512 0.00100708 3.376 0.00100708C5.238 0.00100708 6.75 1.51101 6.75 3.37501Z" fill="#B8C0C4"/>
<path fill-rule="evenodd" clip-rule="evenodd" d="M10.4922 32.256C10.4922 34.324 8.81619 36 6.75019 36C4.68219 36 3.0062 34.324 3.0062 32.256C3.0062 30.19 4.68219 28.514 6.75019 28.514C8.81619 28.514 10.4922 30.19 10.4922 32.256Z" fill="#8E969B"/>
<path fill-rule="evenodd" clip-rule="evenodd" d="M24.6504 1.4356C24.6504 2.1656 24.0564 2.7576 23.3264 2.7576C22.5964 2.7576 22.0044 2.1656 22.0044 1.4356C22.0044 0.705602 22.5964 0.113602 23.3264 0.113602C24.0564 0.113602 24.6504 0.705602 24.6504 1.4356Z" fill="#B8C0C4"/>
<path fill-rule="evenodd" clip-rule="evenodd" d="M17.6484 15.4434C17.6484 16.7434 16.5944 17.7994 15.2924 17.7994C13.9924 17.7994 12.9384 16.7434 12.9384 15.4434C12.9384 14.1434 13.9924 13.0894 15.2924 13.0894C16.5944 13.0894 17.6484 14.1434 17.6484 15.4434Z" fill="#8E969B"/>
<path fill-rule="evenodd" clip-rule="evenodd" d="M38.707 6.3302C38.707 7.3722 39.551 8.2142 40.589 8.2142C41.631 8.2142 42.475 7.3722 42.475 6.3302C42.475 5.2882 41.631 4.4462 40.589 4.4462C39.551 4.4462 38.707 5.2882 38.707 6.3302Z" fill="#B8C0C4"/>
<path fill-rule="evenodd" clip-rule="evenodd" d="M55.5976 5.504C55.5976 6.828 56.6716 7.902 57.9976 7.902C59.3216 7.902 60.3956 6.828 60.3956 5.504C60.3956 4.178 59.3216 3.104 57.9976 3.104C56.6716 3.104 55.5976 4.178 55.5976 5.504Z" fill="#8E969B"/>
<mask id="mask0_88_2216" style="mask-type:alpha" maskUnits="userSpaceOnUse" x="0" y="0" width="160" height="160">
<path d="M0 160H160V0H0V160Z" fill="white"/>
</mask>
<g mask="url(#mask0_88_2216)">
<path fill-rule="evenodd" clip-rule="evenodd" d="M65 28H143V18H65V28ZM33 28H63V18H33V28ZM144 16H32C31.448 16 31 16.448 31 17V37C31 37.552 31.448 38 32 38C32.552 38 33 37.552 33 37V30H143V69C143 69.552 143.448 70 144 70C144.552 70 145 69.552 145 69V17C145 16.448 144.552 16 144 16Z" fill="#B8C0C4"/>
<path fill-rule="evenodd" clip-rule="evenodd" d="M56 21C54.894 21 54 21.894 54 23C54 24.106 54.894 25 56 25C57.106 25 58 24.106 58 23C58 21.894 57.106 21 56 21Z" fill="#B8C0C4"/>
<path fill-rule="evenodd" clip-rule="evenodd" d="M48 21C46.894 21 46 21.894 46 23C46 24.106 46.894 25 48 25C49.106 25 50 24.106 50 23C50 21.894 49.106 21 48 21Z" fill="#B8C0C4"/>
<path fill-rule="evenodd" clip-rule="evenodd" d="M40 21C38.894 21 38 21.894 38 23C38 24.106 38.894 25 40 25C41.106 25 42 24.106 42 23C42 21.894 41.106 21 40 21Z" fill="#B8C0C4"/>
<path fill-rule="evenodd" clip-rule="evenodd" d="M56 154H20C19.448 154 19 153.552 19 153C19 152.448 19.448 152 20 152H56C56.552 152 57 152.448 57 153C57 153.552 56.552 154 56 154ZM98 154H62C61.448 154 61 153.552 61 153C61 152.448 61.448 152 62 152H98C98.552 152 99 152.448 99 153C99 153.552 98.552 154 98 154ZM108 154H104C103.448 154 103 153.552 103 153C103 152.448 103.448 152 104 152H108C108.552 152 109 152.448 109 153C109 153.552 108.552 154 108 154Z" fill="#EDF1F4"/>
<path fill-rule="evenodd" clip-rule="evenodd" d="M145 154H121C120.448 154 120 153.552 120 153C120 152.448 120.448 152 121 152H145C145.552 152 146 152.448 146 153C146 153.552 145.552 154 145 154Z" fill="#EDF1F4"/>
<path fill-rule="evenodd" clip-rule="evenodd" d="M15 160H1C0.448 160 0 159.552 0 159C0 158.448 0.448 158 1 158H15C15.552 158 16 158.448 16 159C16 159.552 15.552 160 15 160ZM29 160H21C20.448 160 20 159.552 20 159C20 158.448 20.448 158 21 158H29C29.552 158 30 158.448 30 159C30 159.552 29.552 160 29 160Z" fill="#EDF1F4"/>
<path fill-rule="evenodd" clip-rule="evenodd" d="M57 160H43C42.448 160 42 159.552 42 159C42 158.448 42.448 158 43 158H57C57.552 158 58 158.448 58 159C58 159.552 57.552 160 57 160ZM77 160H63C62.448 160 62 159.552 62 159C62 158.448 62.448 158 63 158H77C77.552 158 78 158.448 78 159C78 159.552 77.552 160 77 160ZM97 160H83C82.448 160 82 159.552 82 159C82 158.448 82.448 158 83 158H97C97.552 158 98 158.448 98 159C98 159.552 97.552 160 97 160ZM117 160H103C102.448 160 102 159.552 102 159C102 158.448 102.448 158 103 158H117C117.552 158 118 158.448 118 159C118 159.552 117.552 160 117 160ZM137 160H123C122.448 160 122 159.552 122 159C122 158.448 122.448 158 123 158H137C137.552 158 138 158.448 138 159C138 159.552 137.552 160 137 160ZM159 160H143C142.448 160 142 159.552 142 159C142 158.448 142.448 158 143 158H159C159.552 158 160 158.448 160 159C160 159.552 159.552 160 159 160Z" fill="#EDF1F4"/>
<path fill-rule="evenodd" clip-rule="evenodd" d="M94 135.5H150V95.5H94V135.5ZM100 129.5H144V101.5H100V129.5Z" fill="#DADDE0"/>
<path fill-rule="evenodd" clip-rule="evenodd" d="M95 134.5H149V96.5H95V134.5ZM99 87.034C99 76.548 109.962 67 122 67C134.038 67 145 76.548 145 87.034V94.5H99V87.034ZM150 94.5H147V87.034C147 75.296 135.316 65 122 65C108.684 65 97 75.296 97 87.034V94.5H94C93.448 94.5 93 94.948 93 95.5V135.5C93 136.052 93.448 136.5 94 136.5H150C150.552 136.5 151 136.052 151 135.5V95.5C151 94.948 150.552 94.5 150 94.5Z" fill="#586575"/>
<path fill-rule="evenodd" clip-rule="evenodd" d="M43 54H121V44H43V54ZM11 54H41V44H11V54ZM122 42H10C9.448 42 9 42.448 9 43V143C9 143.552 9.448 144 10 144H122C122.552 144 123 143.552 123 143C123 142.448 122.552 142 122 142H11V56H121V60.416C121 60.968 121.448 61.416 122 61.416C122.552 61.416 123 60.968 123 60.416V43C123 42.448 122.552 42 122 42Z" fill="#8E969B"/>
<path fill-rule="evenodd" clip-rule="evenodd" d="M34 47C32.894 47 32 47.894 32 49C32 50.106 32.894 51 34 51C35.106 51 36 50.106 36 49C36 47.894 35.106 47 34 47Z" fill="#8E969B"/>
<path fill-rule="evenodd" clip-rule="evenodd" d="M26 47C24.894 47 24 47.894 24 49C24 50.106 24.894 51 26 51C27.106 51 28 50.106 28 49C28 47.894 27.106 47 26 47Z" fill="#8E969B"/>
<path fill-rule="evenodd" clip-rule="evenodd" d="M18 47C16.894 47 16 47.894 16 49C16 50.106 16.894 51 18 51C19.106 51 20 50.106 20 49C20 47.894 19.106 47 18 47Z" fill="#8E969B"/>
<path fill-rule="evenodd" clip-rule="evenodd" d="M122 71.5C121.448 71.5 121 71.948 121 72.5V90.5C121 91.052 121.448 91.5 122 91.5C122.552 91.5 123 91.052 123 90.5V72.5C123 71.948 122.552 71.5 122 71.5Z" fill="#8E969B"/>
<path fill-rule="evenodd" clip-rule="evenodd" d="M97.0078 73.6504C96.6218 73.6504 96.2538 73.4244 96.0898 73.0464L94.1038 68.4404C93.8838 67.9324 94.1178 67.3444 94.6258 67.1244C95.1338 66.8984 95.7198 67.1404 95.9398 67.6464L97.9258 72.2544C98.1438 72.7624 97.9118 73.3504 97.4058 73.5684C97.2758 73.6244 97.1398 73.6504 97.0078 73.6504Z" fill="#6E7D89"/>
<path fill-rule="evenodd" clip-rule="evenodd" d="M87.8204 78.6486C87.5344 78.6486 87.2544 78.5266 87.0544 78.2906L83.8344 74.4586C83.4784 74.0366 83.5324 73.4066 83.9564 73.0506C84.3784 72.6906 85.0084 72.7506 85.3644 73.1746L88.5864 77.0066C88.9424 77.4286 88.8864 78.0586 88.4644 78.4146C88.2784 78.5726 88.0464 78.6486 87.8204 78.6486Z" fill="#6E7D89"/>
<path fill-rule="evenodd" clip-rule="evenodd" d="M81.1484 85.8908C80.9844 85.8908 80.8184 85.8488 80.6644 85.7668L76.2764 83.3408C75.7944 83.0728 75.6184 82.4648 75.8864 81.9808C76.1544 81.4968 76.7604 81.3268 77.2464 81.5908L81.6324 84.0168C82.1144 84.2828 82.2904 84.8908 82.0224 85.3748C81.8404 85.7048 81.5004 85.8908 81.1484 85.8908Z" fill="#6E7D89"/>
<path fill-rule="evenodd" clip-rule="evenodd" d="M76.7618 96.1524C76.7098 96.1524 76.6538 96.1484 76.5978 96.1384L71.6558 95.3224C71.1138 95.2324 70.7438 94.7184 70.8338 94.1744C70.9238 93.6284 71.4278 93.2504 71.9838 93.3504L76.9258 94.1664C77.4698 94.2564 77.8378 94.7704 77.7478 95.3144C77.6678 95.8044 77.2418 96.1524 76.7618 96.1524Z" fill="#6E7D89"/>
<path fill-rule="evenodd" clip-rule="evenodd" d="M71.8204 110.654C71.3364 110.654 70.9124 110.304 70.8324 109.814C70.7464 109.27 71.1144 108.756 71.6604 108.668L76.6024 107.868C77.1404 107.764 77.6604 108.15 77.7504 108.696C77.8364 109.24 77.4664 109.754 76.9224 109.842L71.9804 110.64C71.9264 110.65 71.8704 110.654 71.8204 110.654Z" fill="#6E7D89"/>
<path fill-rule="evenodd" clip-rule="evenodd" d="M77.1718 123.162C76.8718 123.162 76.5738 123.028 76.3798 122.772C76.0438 122.332 76.1258 121.704 76.5618 121.37L80.5398 118.32C80.9798 117.982 81.6058 118.07 81.9418 118.504C82.2778 118.944 82.1958 119.57 81.7578 119.906L77.7818 122.954C77.5978 123.096 77.3838 123.162 77.1718 123.162Z" fill="#6E7D89"/>
<path fill-rule="evenodd" clip-rule="evenodd" d="M86 132.236C85.816 132.236 85.632 132.188 85.466 132.082C85 131.788 84.86 131.17 85.152 130.702L87.822 126.464C88.118 126 88.734 125.856 89.204 126.152C89.668 126.444 89.808 127.064 89.516 127.53L86.848 131.77C86.656 132.07 86.332 132.236 86 132.236Z" fill="#6E7D89"/>
<path fill-rule="evenodd" clip-rule="evenodd" d="M19 95H27V87H19V95ZM28 97H18C17.448 97 17 96.552 17 96V86C17 85.448 17.448 85 18 85H28C28.552 85 29 85.448 29 86V96C29 96.552 28.552 97 28 97Z" fill="#B8C0C4"/>
<path fill-rule="evenodd" clip-rule="evenodd" d="M66 88H34C33.448 88 33 87.552 33 87C33 86.448 33.448 86 34 86H66C66.552 86 67 86.448 67 87C67 87.552 66.552 88 66 88Z" fill="#B8C0C4"/>
<path fill-rule="evenodd" clip-rule="evenodd" d="M56 96H34C33.448 96 33 95.552 33 95C33 94.448 33.448 94 34 94H56C56.552 94 57 94.448 57 95C57 95.552 56.552 96 56 96Z" fill="#B8C0C4"/>
<path fill-rule="evenodd" clip-rule="evenodd" d="M19 111H27V103H19V111ZM28 113H18C17.448 113 17 112.552 17 112V102C17 101.448 17.448 101 18 101H28C28.552 101 29 101.448 29 102V112C29 112.552 28.552 113 28 113Z" fill="#B8C0C4"/>
<path fill-rule="evenodd" clip-rule="evenodd" d="M62 104H34C33.448 104 33 103.552 33 103C33 102.448 33.448 102 34 102H62C62.552 102 63 102.448 63 103C63 103.552 62.552 104 62 104Z" fill="#B8C0C4"/>
<path fill-rule="evenodd" clip-rule="evenodd" d="M52 112H34C33.448 112 33 111.552 33 111C33 110.448 33.448 110 34 110H52C52.552 110 53 110.448 53 111C53 111.552 52.552 112 52 112Z" fill="#B8C0C4"/>
<path fill-rule="evenodd" clip-rule="evenodd" d="M122 109.5C121.45 109.5 121 109.95 121 110.5V120.5C121 121.05 121.45 121.5 122 121.5C122.55 121.5 123 121.05 123 120.5V110.5C123 109.95 122.55 109.5 122 109.5ZM122 123.5C120.346 123.5 119 122.154 119 120.5V110.5C119 108.846 120.346 107.5 122 107.5C123.654 107.5 125 108.846 125 110.5V120.5C125 122.154 123.654 123.5 122 123.5Z" fill="#586575"/>
</g>
</g>
<defs>
<clipPath id="clip0_88_2216">
<rect width="160" height="160" fill="white"/>
</clipPath>
</defs>
</svg>
