<svg width="160" height="160" viewBox="0 0 160 160" fill="none" xmlns="http://www.w3.org/2000/svg">
<mask id="mask0_88_2215" style="mask-type:alpha" maskUnits="userSpaceOnUse" x="0" y="0" width="7" height="7">
<path d="M0.000183105 0H6.74981V6.6242H0.000183105V0Z" fill="white"/>
</mask>
<g mask="url(#mask0_88_2215)">
<path fill-rule="evenodd" clip-rule="evenodd" d="M6.74981 3.3116C6.74981 5.14074 5.2387 6.62419 3.37599 6.62419C1.51129 6.62419 0.000183105 5.14074 0.000183105 3.3116C0.000183105 1.48247 1.51129 -0.000991821 3.37599 -0.000991821C5.2387 -0.000991821 6.74981 1.48247 6.74981 3.3116Z" fill="#B8C0C4"/>
</g>
<path fill-rule="evenodd" clip-rule="evenodd" d="M10.494 31.6604C10.494 33.6891 8.81697 35.3345 6.74883 35.3345C4.68265 35.3345 3.00562 33.6891 3.00562 31.6604C3.00562 29.6318 4.68265 27.9864 6.74883 27.9864C8.81697 27.9864 10.494 29.6318 10.494 31.6604Z" fill="#8E969B"/>
<path fill-rule="evenodd" clip-rule="evenodd" d="M24.653 1.40978C24.653 2.12681 24.0604 2.70756 23.3296 2.70756C22.6007 2.70756 22.0081 2.12681 22.0081 1.40978C22.0081 0.69274 22.6007 0.112 23.3296 0.112C24.0604 0.112 24.653 0.69274 24.653 1.40978Z" fill="#B8C0C4"/>
<path fill-rule="evenodd" clip-rule="evenodd" d="M17.6508 15.1587C17.6508 16.4348 16.596 17.4698 15.2962 17.4698C13.9945 17.4698 12.9397 16.4348 12.9397 15.1587C12.9397 13.8827 13.9945 12.8476 15.2962 12.8476C16.596 12.8476 17.6508 13.8827 17.6508 15.1587Z" fill="#8E969B"/>
<path fill-rule="evenodd" clip-rule="evenodd" d="M38.7117 6.21293C38.7117 7.23417 39.5571 8.0638 40.5961 8.0638C41.6371 8.0638 42.4806 7.23417 42.4806 6.21293C42.4806 5.1917 41.6371 4.36404 40.5961 4.36404C39.5571 4.36404 38.7117 5.1917 38.7117 6.21293Z" fill="#B8C0C4"/>
<path fill-rule="evenodd" clip-rule="evenodd" d="M55.6059 5.40167C55.6059 6.7034 56.6805 7.75624 58.0059 7.75624C59.3314 7.75624 60.4059 6.7034 60.4059 5.40167C60.4059 4.10192 59.3314 3.0471 58.0059 3.0471C56.6805 3.0471 55.6059 4.10192 55.6059 5.40167Z" fill="#8E969B"/>
<path fill-rule="evenodd" clip-rule="evenodd" d="M122.02 141.339H10.0022C9.4491 141.339 9.0007 140.899 9.0007 140.358V42.2044C9.0007 41.6632 9.4491 41.2227 10.0022 41.2227H122.02C122.571 41.2227 123.019 41.6632 123.019 42.2044V61.8351C123.019 62.3783 122.571 62.8168 122.02 62.8168C121.467 62.8168 121.018 62.3783 121.018 61.8351V43.1881H11.0017V139.376H121.018V128.579C121.018 128.038 121.467 127.597 122.02 127.597C122.571 127.597 123.019 128.038 123.019 128.579V140.358C123.019 140.899 122.571 141.339 122.02 141.339Z" fill="#8E969B"/>
<path fill-rule="evenodd" clip-rule="evenodd" d="M121.019 54.9649H10.0024C9.44928 54.9649 9.00089 54.5264 9.00089 53.9832C9.00089 53.442 9.44928 53.0015 10.0024 53.0015H121.019C121.572 53.0015 122.02 53.442 122.02 53.9832C122.02 54.5264 121.572 54.9649 121.019 54.9649Z" fill="#8E969B"/>
<path fill-rule="evenodd" clip-rule="evenodd" d="M42.0063 54.9649C41.4552 54.9649 41.0068 54.5264 41.0068 53.9832V42.2064C41.0068 41.6632 41.4552 41.2227 42.0063 41.2227C42.5594 41.2227 43.0078 41.6632 43.0078 42.2064V53.9832C43.0078 54.5264 42.5594 54.9649 42.0063 54.9649Z" fill="#8E969B"/>
<path fill-rule="evenodd" clip-rule="evenodd" d="M32.0045 48.0946C32.0045 47.0102 32.9013 46.1312 34.0055 46.1312C35.1097 46.1312 36.0045 47.0102 36.0045 48.0946C36.0045 49.1791 35.1097 50.0581 34.0055 50.0581C32.9013 50.0581 32.0045 49.1791 32.0045 48.0946Z" fill="#8E969B"/>
<path fill-rule="evenodd" clip-rule="evenodd" d="M24.003 48.0946C24.003 47.0102 24.8998 46.1312 26.0039 46.1312C27.1081 46.1312 28.003 47.0102 28.003 48.0946C28.003 49.1791 27.1081 50.0581 26.0039 50.0581C24.8998 50.0581 24.003 49.1791 24.003 48.0946Z" fill="#8E969B"/>
<path fill-rule="evenodd" clip-rule="evenodd" d="M16.0034 48.0946C16.0034 47.0102 16.8982 46.1312 18.0043 46.1312C19.1066 46.1312 20.0034 47.0102 20.0034 48.0946C20.0034 49.1791 19.1066 50.0581 18.0043 50.0581C16.8982 50.0581 16.0034 49.1791 16.0034 48.0946Z" fill="#8E969B"/>
<path fill-rule="evenodd" clip-rule="evenodd" d="M144.022 68.7062C143.471 68.7062 143.023 68.2677 143.023 67.7244V17.6682H33.0058V36.317C33.0058 36.8583 32.5574 37.2988 32.0044 37.2988C31.4532 37.2988 31.0049 36.8583 31.0049 36.317V16.6864C31.0049 16.1432 31.4532 15.7047 32.0044 15.7047H144.022C144.575 15.7047 145.024 16.1432 145.024 16.6864V67.7244C145.024 68.2677 144.575 68.7062 144.022 68.7062Z" fill="#B8C0C4"/>
<path fill-rule="evenodd" clip-rule="evenodd" d="M143.023 29.4459H32.0048C31.4536 29.4459 31.0052 29.0074 31.0052 28.4642C31.0052 27.923 31.4536 27.4825 32.0048 27.4825H143.023C143.574 27.4825 144.023 27.923 144.023 28.4642C144.023 29.0074 143.574 29.4459 143.023 29.4459Z" fill="#B8C0C4"/>
<path fill-rule="evenodd" clip-rule="evenodd" d="M64.0107 29.4459C63.4576 29.4459 63.0092 29.0074 63.0092 28.4642V16.6854C63.0092 16.1442 63.4576 15.7037 64.0107 15.7037C64.5618 15.7037 65.0102 16.1442 65.0102 16.6854V28.4642C65.0102 29.0074 64.5618 29.4459 64.0107 29.4459Z" fill="#B8C0C4"/>
<path fill-rule="evenodd" clip-rule="evenodd" d="M54.0087 22.5748C54.0087 21.4904 54.9035 20.6114 56.0097 20.6114C57.1139 20.6114 58.0087 21.4904 58.0087 22.5748C58.0087 23.6593 57.1139 24.5383 56.0097 24.5383C54.9035 24.5383 54.0087 23.6593 54.0087 22.5748Z" fill="#B8C0C4"/>
<path fill-rule="evenodd" clip-rule="evenodd" d="M46.0071 22.5748C46.0071 21.4904 46.9019 20.6114 48.0081 20.6114C49.1123 20.6114 50.0071 21.4904 50.0071 22.5748C50.0071 23.6593 49.1123 24.5383 48.0081 24.5383C46.9019 24.5383 46.0071 23.6593 46.0071 22.5748Z" fill="#B8C0C4"/>
<path fill-rule="evenodd" clip-rule="evenodd" d="M38.0055 22.5748C38.0055 21.4904 38.9003 20.6114 40.0065 20.6114C41.1107 20.6114 42.0055 21.4904 42.0055 22.5748C42.0055 23.6593 41.1107 24.5383 40.0065 24.5383C38.9003 24.5383 38.0055 23.6593 38.0055 22.5748Z" fill="#B8C0C4"/>
<path fill-rule="evenodd" clip-rule="evenodd" d="M56.0091 152.136H20.0032C19.4501 152.136 19.0037 151.695 19.0037 151.154C19.0037 150.611 19.4501 150.172 20.0032 150.172H56.0091C56.5602 150.172 57.0086 150.611 57.0086 151.154C57.0086 151.695 56.5602 152.136 56.0091 152.136ZM98.016 152.136H62.0101C61.457 152.136 61.0086 151.695 61.0086 151.154C61.0086 150.611 61.457 150.172 62.0101 150.172H98.016C98.5691 150.172 99.0155 150.611 99.0155 151.154C99.0155 151.695 98.5691 152.136 98.016 152.136ZM108.017 152.136H104.017C103.462 152.136 103.016 151.695 103.016 151.154C103.016 150.611 103.462 150.172 104.017 150.172H108.017C108.568 150.172 109.017 150.611 109.017 151.154C109.017 151.695 108.568 152.136 108.017 152.136Z" fill="#EDF1F4"/>
<path fill-rule="evenodd" clip-rule="evenodd" d="M145.023 152.136H121.019C120.466 152.136 120.02 151.695 120.02 151.154C120.02 150.611 120.466 150.172 121.019 150.172H145.023C145.575 150.172 146.023 150.611 146.023 151.154C146.023 151.695 145.575 152.136 145.023 152.136Z" fill="#EDF1F4"/>
<mask id="mask1_88_2215" style="mask-type:alpha" maskUnits="userSpaceOnUse" x="0" y="156" width="31" height="3">
<path d="M0 156.061H30.0045V158.025H0V156.061Z" fill="white"/>
</mask>
<g mask="url(#mask1_88_2215)">
<path fill-rule="evenodd" clip-rule="evenodd" d="M15.0021 158.024H0.999109C0.447998 158.024 -0.000396729 157.586 -0.000396729 157.043C-0.000396729 156.501 0.447998 156.061 0.999109 156.061H15.0021C15.5552 156.061 16.0036 156.501 16.0036 157.043C16.0036 157.586 15.5552 158.024 15.0021 158.024ZM29.005 158.024H21.0031C20.45 158.024 20.0036 157.586 20.0036 157.043C20.0036 156.501 20.45 156.061 21.0031 156.061H29.005C29.5561 156.061 30.0045 156.501 30.0045 157.043C30.0045 157.586 29.5561 158.024 29.005 158.024Z" fill="#EDF1F4"/>
</g>
<mask id="mask2_88_2215" style="mask-type:alpha" maskUnits="userSpaceOnUse" x="42" y="156" width="117" height="3">
<path d="M42.0059 156.061H158.025V158.025H42.0059V156.061Z" fill="white"/>
</mask>
<g mask="url(#mask2_88_2215)">
<path fill-rule="evenodd" clip-rule="evenodd" d="M57.0084 158.024H43.0074C42.4543 158.024 42.0059 157.586 42.0059 157.043C42.0059 156.501 42.4543 156.061 43.0074 156.061H57.0084C57.5615 156.061 58.0099 156.501 58.0099 157.043C58.0099 157.586 57.5615 158.024 57.0084 158.024ZM77.0123 158.024H63.0094C62.4583 158.024 62.0099 157.586 62.0099 157.043C62.0099 156.501 62.4583 156.061 63.0094 156.061H77.0123C77.5654 156.061 78.0118 156.501 78.0118 157.043C78.0118 157.586 77.5654 158.024 77.0123 158.024ZM97.0163 158.024H83.0133C82.4602 158.024 82.0118 157.586 82.0118 157.043C82.0118 156.501 82.4602 156.061 83.0133 156.061H97.0163C97.5674 156.061 98.0158 156.501 98.0158 157.043C98.0158 157.586 97.5674 158.024 97.0163 158.024ZM117.018 158.024H103.015C102.464 158.024 102.016 157.586 102.016 157.043C102.016 156.501 102.464 156.061 103.015 156.061H117.018C117.571 156.061 118.02 156.501 118.02 157.043C118.02 157.586 117.571 158.024 117.018 158.024ZM137.022 158.024H123.019C122.466 158.024 122.02 157.586 122.02 157.043C122.02 156.501 122.466 156.061 123.019 156.061H137.022C137.573 156.061 138.022 156.501 138.022 157.043C138.022 157.586 137.573 158.024 137.022 158.024ZM157.024 158.024H143.023C142.47 158.024 142.022 157.586 142.022 157.043C142.022 156.501 142.47 156.061 143.023 156.061H157.024C157.577 156.061 158.026 156.501 158.026 157.043C158.026 157.586 157.577 158.024 157.024 158.024Z" fill="#EDF1F4"/>
</g>
<path fill-rule="evenodd" clip-rule="evenodd" d="M116.063 76.7974C125.167 76.7974 134.123 80.3964 142.747 87.5075L129.116 100.357L133.363 104.521L151.504 87.4187C138.888 75.0354 126.704 70.909 116.063 70.909V76.7974Z" fill="#DADDE0"/>
<path fill-rule="evenodd" clip-rule="evenodd" d="M123.347 105.796L115.183 113.492L88.3583 87.5425C90.7801 85.5949 94.1677 83.2186 98.2764 81.1939L93.8556 76.8561C85.0497 81.5889 79.6828 87.4181 79.6828 87.4181L115.13 121.709L127.59 109.96L123.347 105.796Z" fill="#DADDE0"/>
<path fill-rule="evenodd" clip-rule="evenodd" d="M101.659 73.4092L106.443 78.1045C109.446 77.3025 112.664 76.7988 116.061 76.7968L116.063 70.9084H116.059C110.84 70.9084 106.001 71.9099 101.659 73.4092Z" fill="#DADDE0"/>
<path fill-rule="evenodd" clip-rule="evenodd" d="M152.211 86.7251C140.513 75.2446 127.942 69.6209 114.943 69.9409C109.825 70.0772 105.098 71.1222 100.857 72.6234L102.455 74.1898C106.293 72.9019 110.51 72.0209 115.014 71.9044C127.209 71.5824 138.992 76.8032 150.07 87.4086L132.655 103.827L134.068 105.216L152.197 88.1256C152.391 87.9439 152.501 87.693 152.503 87.4283C152.505 87.1656 152.4 86.9108 152.211 86.7251Z" fill="#586575"/>
<path fill-rule="evenodd" clip-rule="evenodd" d="M126.883 109.268L115.14 120.339L81.0854 87.3989C82.7763 85.7317 87.6217 81.2912 94.5985 77.5856L93.0953 76.108C84.5521 80.75 79.2958 86.3698 78.9363 86.7628C78.5788 87.154 78.5985 87.7505 78.9798 88.1179L114.427 122.407C114.622 122.597 114.875 122.69 115.13 122.69C115.381 122.69 115.63 122.599 115.821 122.415L128.299 110.656L126.883 109.268Z" fill="#586575"/>
<path fill-rule="evenodd" clip-rule="evenodd" d="M71.2753 71.5226C71.0283 71.5226 70.7834 71.4357 70.5879 71.2559L66.9355 67.8781C66.5325 67.5068 66.5128 66.8845 66.8901 66.4915C67.2713 66.0944 67.9034 66.0766 68.3064 66.448L71.9607 69.8258C72.3637 70.1991 72.3834 70.8194 72.0022 71.2144C71.8066 71.4198 71.54 71.5226 71.2753 71.5226Z" fill="#6E7D89"/>
<path fill-rule="evenodd" clip-rule="evenodd" d="M64.8227 79.6032C64.6726 79.6032 64.5205 79.5696 64.3743 79.4985L59.8983 77.3019C59.4044 77.059 59.2049 76.4703 59.4499 75.9844C59.6988 75.5005 60.2993 75.3029 60.7931 75.5459L65.2711 77.7444C65.7649 77.9874 65.9625 78.574 65.7175 79.06C65.5417 79.4037 65.1881 79.6032 64.8227 79.6032Z" fill="#6E7D89"/>
<path fill-rule="evenodd" clip-rule="evenodd" d="M61.5743 88.7283C61.5407 88.7283 61.5072 88.7263 61.4736 88.7243L56.4859 88.2463C55.9368 88.193 55.5338 87.713 55.5872 87.1737C55.6405 86.6345 56.1561 86.2671 56.6795 86.2908L61.6711 86.7688C62.2183 86.8221 62.6212 87.3021 62.5679 87.8414C62.5185 88.349 62.082 88.7283 61.5743 88.7283Z" fill="#6E7D89"/>
<path fill-rule="evenodd" clip-rule="evenodd" d="M56.7595 100.871C56.3091 100.871 55.9002 100.574 55.7876 100.128C55.6553 99.6004 55.9812 99.069 56.5165 98.9367L61.3778 97.7456C61.917 97.6192 62.4563 97.9332 62.5886 98.4606C62.7229 98.9861 62.397 99.5194 61.8617 99.6517L57.0005 100.841C56.9195 100.861 56.8385 100.871 56.7595 100.871Z" fill="#6E7D89"/>
<path fill-rule="evenodd" clip-rule="evenodd" d="M62.8397 114.671C62.5118 114.671 62.1878 114.511 61.9982 114.218C61.6999 113.76 61.8362 113.154 62.3024 112.863L66.5177 110.218C66.9839 109.926 67.6022 110.054 67.9004 110.515C68.1987 110.973 68.0624 111.579 67.5962 111.872L63.3789 114.515C63.211 114.621 63.0254 114.671 62.8397 114.671Z" fill="#6E7D89"/>
<path fill-rule="evenodd" clip-rule="evenodd" d="M72.7163 123.856C72.5503 123.856 72.3844 123.814 72.2303 123.731C71.7484 123.468 71.5745 122.87 71.8432 122.396L74.2827 118.1C74.5513 117.625 75.1597 117.458 75.6417 117.722C76.1256 117.983 76.2975 118.582 76.0308 119.056L73.5893 123.352C73.4096 123.674 73.0659 123.856 72.7163 123.856Z" fill="#6E7D89"/>
<path fill-rule="evenodd" clip-rule="evenodd" d="M84.4253 128.59C84.3759 128.59 84.3206 128.586 84.2712 128.579C83.7241 128.498 83.3507 127.994 83.4357 127.461L84.2041 122.601C84.287 122.066 84.8026 121.703 85.3438 121.782C85.889 121.864 86.2643 122.366 86.1794 122.902L85.411 127.759C85.3359 128.243 84.9092 128.59 84.4253 128.59Z" fill="#6E7D89"/>
<path fill-rule="evenodd" clip-rule="evenodd" d="M145.062 122.536C144.805 122.536 144.55 122.441 144.355 122.248L85.4175 64.4109C85.0264 64.0277 85.0264 63.4054 85.4175 63.0222C85.8086 62.639 86.4407 62.639 86.8318 63.0222L145.767 120.861C146.16 121.244 146.16 121.867 145.767 122.248C145.574 122.441 145.319 122.536 145.062 122.536Z" fill="#586575"/>
</svg>
