<?xml version="1.0" encoding="utf-8"?>
<!-- Generator: Adobe Illustrator 16.0.0, SVG Export Plug-In . SVG Version: 6.00 Build 0)  -->
<!DOCTYPE svg PUBLIC "-//W3C//DTD SVG 1.1//EN" "http://www.w3.org/Graphics/SVG/1.1/DTD/svg11.dtd">
<svg version="1.1" id="Layer_1" xmlns="http://www.w3.org/2000/svg" xmlns:xlink="http://www.w3.org/1999/xlink" x="0px" y="0px"
	 width="660.172px" height="116.145px" viewBox="0 0 660.172 116.145" enable-background="new 0 0 660.172 116.145"
	 xml:space="preserve">
<g>
	<g>
		<linearGradient id="SVGID_1_" gradientUnits="userSpaceOnUse" x1="64.9243" y1="94.7568" x2="64.9243" y2="38.4609">
			<stop  offset="0" style="stop-color:#003878"/>
			<stop  offset="0.1547" style="stop-color:#005093"/>
			<stop  offset="0.3375" style="stop-color:#0066AB"/>
			<stop  offset="0.5314" style="stop-color:#0076BC"/>
			<stop  offset="0.742" style="stop-color:#007FC6"/>
			<stop  offset="1" style="stop-color:#0082C9"/>
		</linearGradient>
		<path fill="url(#SVGID_1_)" d="M58.157,0c-17.97,0.01-34.028,8.151-44.694,20.93l28.611-0.015l23.524-0.014
			c4.787-0.002,8.669,3.636,8.672,8.126l0.032,52.155c0.262,7.693,6.901,13.872,15.123,14.039l13.497-0.007
			c8.411-10.076,13.471-23.034,13.463-37.174C116.365,25.969,90.296-0.018,58.157,0z"/>
		<linearGradient id="SVGID_2_" gradientUnits="userSpaceOnUse" x1="51.4614" y1="23.5264" x2="51.4614" y2="73.8459">
			<stop  offset="0.0083" style="stop-color:#1B1464"/>
			<stop  offset="1" style="stop-color:#003878"/>
		</linearGradient>
		<path fill="url(#SVGID_2_)" d="M74.311,95.229l-23.525,0.014c-4.786,0.002-8.669-3.636-8.672-8.126l-0.032-52.155
			c-0.262-7.693-6.901-13.872-15.122-14.039L13.463,20.93C5.052,31.006-0.009,43.964,0,58.104
			c0.02,32.072,26.089,58.059,58.228,58.041c17.97-0.01,34.027-8.151,44.694-20.93L74.311,95.229z"/>
		<radialGradient id="SVGID_3_" cx="85.6128" cy="5.2744" r="42.3018" gradientUnits="userSpaceOnUse">
			<stop  offset="0.0048" style="stop-color:#FFFFFF;stop-opacity:0.3"/>
			<stop  offset="1" style="stop-color:#FFFFFF;stop-opacity:0"/>
		</radialGradient>
		<path fill="url(#SVGID_3_)" d="M61.772,9.127c29.279-0.015,53.119,22.998,54.482,51.884c0.05-0.988,0.131-1.969,0.131-2.97
			C116.365,25.969,90.296-0.018,58.157,0C40.187,0.01,24.13,8.151,13.463,20.93l14.459-0.008
			C37.224,13.555,48.973,9.134,61.772,9.127z"/>
		
			<radialGradient id="SVGID_4_" cx="4185.165" cy="-1633.042" r="42.3015" gradientTransform="matrix(-1 0 0 -1 4215.9365 -1522.1719)" gradientUnits="userSpaceOnUse">
			<stop  offset="0.0048" style="stop-color:#FFFFFF;stop-opacity:0.3"/>
			<stop  offset="1" style="stop-color:#FFFFFF;stop-opacity:0"/>
		</radialGradient>
		<path fill="url(#SVGID_4_)" d="M54.613,107.018C25.334,107.033,1.494,84.021,0.131,55.134c-0.05,0.988-0.132,1.969-0.131,2.97
			c0.02,32.072,26.089,58.059,58.228,58.041c17.97-0.01,34.028-8.15,44.695-20.93l-14.46,0.008
			C79.162,102.59,67.412,107.011,54.613,107.018z"/>
	</g>
	<g>
		<path fill="#0082C9" d="M353.097,30.976L353.097,30.976c4.908,0,8.887,3.979,8.887,8.887v0.557
			c4.333-6.332,12.441-10.547,20.329-10.547c16.439,0,27.438,11.551,27.438,28.881c0,17.331-10.999,28.881-27.438,28.881
			c-7.888,0-15.997-4.224-20.329-10.555v30.102h-8.887V30.976z M400.863,58.753c0-12.663-7.778-21.111-19.442-21.111
			c-11.663,0-19.438,8.448-19.438,21.111s7.774,21.103,19.438,21.103C393.085,79.855,400.863,71.416,400.863,58.753z"/>
		<path fill="#0082C9" d="M419.338,10.316L419.338,10.316c4.908,0,8.887,3.979,8.887,8.888v67.317h-8.887V10.316z"/>
		<path fill="#0082C9" d="M438.898,58.753c0-17.33,10.886-28.881,27.104-28.881c7.557,0,15.444,4.215,19.777,10.438v-9.335l0,0
			c4.908,0,8.887,3.979,8.887,8.887v46.659h-8.887v-9.335c-4.333,6.224-12.22,10.447-19.777,10.447
			C449.784,87.634,438.898,76.084,438.898,58.753z M485.779,58.753c0-12.663-7.557-21.111-18.886-21.111
			c-11.442,0-19.107,8.448-19.107,21.111s7.666,21.103,19.107,21.103C478.222,79.855,485.779,71.416,485.779,58.753z"/>
		<path fill="#0082C9" d="M508.034,30.976h1.777c3.926,0,7.109,3.183,7.109,7.109l0,0c3.885-4.884,10.886-8.213,17.326-8.213
			c13.889,0,23.11,8.883,23.11,22.215v34.435h-8.891V53.643c0-9.552-6.332-16.001-15.771-16.001
			c-9.443,0-15.774,6.449-15.774,16.001v32.879h-8.887V30.976z"/>
		<path fill="#0082C9" d="M634.512,72.303V38.755h-8.887v-7.779h8.887V10.316l0,0c4.908,0,8.887,3.979,8.887,8.888v11.771h16.218
			v7.779h-16.218v33.548c0,4.559,2.89,7.553,7.109,7.553h9.664v6.666c-2.776,0.669-6.444,1.112-9.108,1.112
			C641.178,87.634,634.512,81.52,634.512,72.303z"/>
		<path fill="#0082C9" d="M622.708,59.64c0-17.882-11.112-29.768-27.886-29.768c-16.77,0-27.881,11.551-27.881,28.881
			c0,17.331,11.112,28.881,27.881,28.881c12.441,0,23.105-7.996,26.66-19.998h-8.887c-2.442,7.335-9.552,12.22-17.773,12.22
			c-10.886,0-18.882-8.288-18.882-21.103s7.996-21.111,18.882-21.111c9.319,0,16.331,5.445,18.443,15.114H579.34l0,0
			c0.026,4.299,3.519,7.77,7.817,7.77h35.551V59.64z"/>
	</g>
	<g>
		<path fill="#003878" d="M246.499,28.748c-6.034,0-11.517,2.186-16.309,6.499c-2.035-3.069-5.458-4.94-9.126-4.94h-3.722v56.982
			h14.723v-33.72c0-7.078,5.056-11.652,12.877-11.652c7.821,0,12.877,4.574,12.877,11.652v33.72h14.722V52.02
			C272.541,38.099,262.074,28.748,246.499,28.748z"/>
		<path fill="#003878" d="M307.704,63.158h34.719v-4.356c0-17.978-12.385-30.054-30.821-30.054s-30.823,12.076-30.823,30.054
			c0,17.972,12.387,30.043,30.823,30.043c13.862,0,25.7-8.42,29.46-20.955l0.268-0.888h-14.939l-0.185,0.402
			c-2.46,5.348-8.33,8.941-14.604,8.941c-8.125,0-14.658-5.748-15.886-13.979c-0.353-2.374-0.713-6.929,0.846-10.756
			c0.133-0.319,0.27-0.635,0.414-0.94v1.761C296.975,58.346,301.788,63.158,307.704,63.158z M311.602,41.256
			c6.875,0,12.045,3.329,14.656,9.403h-29.278C299.795,44.668,305.071,41.256,311.602,41.256z"/>
		<path fill="#003878" d="M146.386,58.799c0-17.986,12.293-30.051,30.845-30.051c18.551,0,30.845,12.064,30.845,30.051
			c0,17.981-12.293,30.046-30.845,30.046C158.679,88.845,146.386,76.78,146.386,58.799z M194.418,58.799
			c0-10.815-6.828-17.986-17.188-17.986s-17.188,7.171-17.188,17.986c0,10.811,6.828,17.981,17.188,17.981
			S194.418,69.609,194.418,58.799z"/>
	</g>
</g>
</svg>
