<svg width="130" height="28" viewBox="0 0 130 28" fill="none" xmlns="http://www.w3.org/2000/svg">
<path d="M12.5048 2.36719C5.53906 2.36719 0 7.95027 0 14.8868C0 21.8234 5.53906 27.4911 12.5048 27.4911C19.3867 27.4911 25.0097 21.8234 25.0097 14.8868C24.9258 7.95027 19.3867 2.36719 12.5048 2.36719ZM7.46934 22.0772C6.46223 22.0772 5.53906 21.2312 5.53906 20.1315C5.53906 19.1164 6.37831 18.1859 7.46934 18.1859C8.47644 18.1859 9.39961 19.0318 9.39961 20.1315C9.31569 21.2312 8.47644 22.0772 7.46934 22.0772ZM7.46934 17.6784C6.46223 17.6784 5.53906 16.8324 5.53906 15.7327C5.53906 14.633 6.37831 13.7871 7.46934 13.7871C8.47644 13.7871 9.39961 14.633 9.39961 15.7327C9.31569 16.8324 8.47644 17.6784 7.46934 17.6784ZM7.46934 13.2796C6.46223 13.2796 5.53906 12.4337 5.53906 11.334C5.53906 10.2343 6.37831 9.38834 7.46934 9.38834C8.47644 9.38834 9.39961 10.2343 9.39961 11.334C9.39961 12.4337 8.47644 13.2796 7.46934 13.2796ZM12.4209 20.0469C11.4138 20.0469 10.4906 19.201 10.4906 18.1013C10.4906 17.0016 11.3299 16.1557 12.4209 16.1557C13.428 16.1557 14.3512 17.0016 14.3512 18.1013C14.3512 19.201 13.5119 20.0469 12.4209 20.0469ZM12.4209 15.6482C11.4138 15.6482 10.4906 14.8022 10.4906 13.7025C10.4906 12.6028 11.3299 11.7569 12.4209 11.7569C13.428 11.7569 14.3512 12.6028 14.3512 13.7025C14.3512 14.8022 13.5119 15.6482 12.4209 15.6482ZM12.4209 11.2494C11.4138 11.2494 10.4906 10.4034 10.4906 9.30374C10.4906 8.28864 11.3299 7.35812 12.4209 7.35812C13.428 7.35812 14.3512 8.20405 14.3512 9.30374C14.3512 10.4034 13.5119 11.2494 12.4209 11.2494ZM17.5403 17.6784C16.5332 17.6784 15.6101 16.8324 15.6101 15.7327C15.6101 14.633 16.4493 13.7871 17.5403 13.7871C18.5475 13.7871 19.4706 14.633 19.4706 15.7327C19.3867 16.8324 18.5475 17.6784 17.5403 17.6784ZM17.5403 13.2796C16.5332 13.2796 15.6101 12.4337 15.6101 11.334C15.6101 10.2343 16.4493 9.38834 17.5403 9.38834C18.5475 9.38834 19.4706 10.2343 19.4706 11.334C19.4706 12.4337 18.5475 13.2796 17.5403 13.2796Z" fill="white"/>
<path d="M35.754 7.44137H34.4112L33.488 4.22687L32.4809 7.44137H31.1381L30.3828 2.28125H31.8095L32.1452 5.41116L32.9845 2.53503H33.9916L34.7469 5.41116L35.0826 2.28125H36.5093L35.754 7.44137Z" fill="white"/>
<path d="M37.3449 1.52266H34.2397C33.9879 1.52266 33.8201 1.43807 33.6522 1.26888C33.4844 1.0997 33.4844 0.930514 33.4844 0.676737V0H34.6593V0.338369C34.6593 0.507553 34.7432 0.592145 34.9111 0.592145H37.3449V1.52266Z" fill="white"/>
<path d="M42.0494 7.44272H40.7066L40.6226 6.85057C40.203 7.35812 39.6155 7.52731 38.9441 7.52731C37.8531 7.52731 37.2656 6.93516 37.2656 5.75087V2.36719H38.6923V5.75087C38.6923 6.34302 38.9441 6.59679 39.5316 6.59679C39.9512 6.59679 40.2869 6.34302 40.6226 5.75087V2.36719H42.0494V7.44272Z" fill="white"/>
<path d="M47.0849 3.63472C46.4974 3.38095 45.9099 3.21176 45.2385 3.21176C44.5671 3.21176 44.2314 3.29636 44.2314 3.55013C44.2314 3.63472 44.3993 3.80391 44.735 3.8885L45.9099 4.14228C47.0849 4.48065 47.5884 4.9882 47.5884 5.74953C47.5884 6.93382 46.7492 7.52596 45.1546 7.52596C44.4832 7.52596 43.8957 7.44137 43.4761 7.18759C43.0565 6.93382 42.8886 6.59545 42.8886 6.17249V5.32657H44.3153V5.91871C44.3153 6.34167 44.651 6.59545 45.2385 6.59545C45.826 6.59545 46.1617 6.34167 46.1617 5.83412C46.1617 5.58034 45.9938 5.41116 45.6581 5.24198C45.4903 5.15738 45.0707 5.07279 44.4832 4.90361C43.9796 4.73442 43.56 4.64983 43.3082 4.48065C42.9725 4.22687 42.8047 3.8885 42.8047 3.55013C42.8047 2.70421 43.6439 2.28125 45.2385 2.28125C46.2456 2.28125 47.0009 2.45043 47.5045 2.7888L47.0849 3.63472Z" fill="white"/>
<path d="M48.5915 6.25843C48.9272 6.5122 49.3468 6.68139 49.7665 6.68139C50.6896 6.68139 51.1932 6.08924 51.1932 4.98954C51.1932 3.88985 50.6896 3.2977 49.7665 3.2977C49.3468 3.2977 48.9272 3.46689 48.5915 3.72066L48.1719 2.79015C48.6754 2.45178 49.2629 2.36719 49.9343 2.36719C50.7736 2.36719 51.361 2.62096 51.8646 3.04392C52.3681 3.46689 52.536 4.14362 52.536 5.07414C52.536 5.92006 52.2842 6.59679 51.8646 7.10435C51.445 7.52731 50.7736 7.78108 49.9343 7.78108C49.2629 7.78108 48.7594 7.6119 48.1719 7.35812L48.5915 6.25843Z" fill="white"/>
<path d="M61.0979 7.44137H59.7551L59.6712 6.84923C59.3355 7.27219 58.8319 7.52596 58.0766 7.52596C56.9856 7.52596 56.482 6.93382 56.482 5.74953V4.14228C56.482 3.55013 56.1463 3.21176 55.5588 3.21176C55.0553 3.21176 54.7196 3.38095 54.5517 3.71932L55.3071 4.14228V4.56524C54.9714 4.64983 54.8035 4.9882 54.8035 5.41116V6.17249C54.8035 6.42627 54.8874 6.51086 55.1392 6.51086H55.5588V7.44137H54.3839C54.0482 7.44137 53.7964 7.35678 53.6286 7.18759C53.4607 7.01841 53.2929 6.76463 53.2929 6.42627V5.32657C53.2929 4.81901 53.4607 4.48065 53.8803 4.31146L53.125 3.80391C53.2089 3.38095 53.5446 2.95799 54.0482 2.70421C54.4678 2.45043 55.0553 2.28125 55.6428 2.28125C56.3981 2.28125 56.9856 2.45043 57.4052 2.70421C57.7409 3.04258 57.9087 3.46554 57.9087 4.05769V5.74953C57.9087 6.34167 58.1605 6.59545 58.6641 6.59545C59.0837 6.59545 59.4194 6.34167 59.5872 5.74953V2.36584H61.014V7.44137H61.0979Z" fill="white"/>
<path d="M61.0985 1.52426H56.7344V0.59375H61.0985V1.52426Z" fill="white"/>
<path d="M66.5534 6.08924C66.5534 6.59679 66.3016 6.93516 65.882 7.18894C65.4624 7.44272 64.9588 7.52731 64.2874 7.52731C63.616 7.52731 63.1124 7.44272 62.6928 7.18894C62.2732 6.93516 62.0214 6.5122 62.0214 6.00465V5.15873C62.0214 4.82036 62.1893 4.56658 62.441 4.22821C62.6928 3.97444 62.8607 3.72066 62.8607 3.63607C62.8607 3.38229 62.6928 3.21311 62.3571 3.21311H61.9375V2.36719H63.0285C63.7838 2.36719 64.2035 2.70556 64.2035 3.38229C64.2035 3.72066 64.0356 4.05903 63.7838 4.31281C63.5321 4.65118 63.3642 4.90495 63.3642 5.24332V6.00465C63.3642 6.42761 63.616 6.59679 64.2035 6.59679C64.707 6.59679 65.0427 6.42761 65.0427 6.00465V4.31281C65.0427 3.97444 64.8749 3.72066 64.5392 3.72066V3.38229L65.2945 2.36719H66.8052L65.882 3.55148C66.3016 3.63607 66.5534 3.88985 66.5534 4.31281V6.08924Z" fill="white"/>
<path d="M122.031 21.7429H125.22V10.4922H122.031V21.7429Z" fill="white"/>
<path d="M90.9715 21.7429H93.741L98.1051 10.4922H94.832L92.3143 18.2747L89.7965 10.4922H86.5234L90.9715 21.7429Z" fill="white"/>
<path d="M54.4647 16.0753V10.4922H51.6113V11.2535C50.772 10.8306 49.8488 10.4922 48.8417 10.4922C45.7365 10.4922 43.2188 13.03 43.2188 16.1599C43.2188 19.2898 45.7365 21.8275 48.8417 21.8275C49.8488 21.8275 50.772 21.5738 51.6113 21.0662V21.7429H54.4647V16.2445V16.1599C54.4647 16.0753 54.4647 16.0753 54.4647 16.0753ZM48.9257 19.1206C47.2472 19.1206 45.9883 17.7671 45.9883 16.1599C45.9883 14.468 47.3311 13.1991 48.9257 13.1991C50.6042 13.1991 51.863 14.5526 51.863 16.1599C51.863 17.7671 50.5202 19.1206 48.9257 19.1206Z" fill="white"/>
<path d="M125.22 7.86506C125.22 8.71098 124.549 9.47231 123.626 9.47231C122.787 9.47231 122.031 8.79558 122.031 7.86506C122.031 7.01914 122.703 6.25781 123.626 6.25781C124.465 6.25781 125.22 7.01914 125.22 7.86506Z" fill="white"/>
<path d="M130.002 7.86506C130.002 8.71098 129.33 9.47231 128.407 9.47231C127.568 9.47231 126.812 8.79558 126.812 7.86506C126.812 7.01914 127.484 6.25781 128.407 6.25781C129.246 6.25781 130.002 7.01914 130.002 7.86506Z" fill="white"/>
<path d="M65.1262 11.42C64.5387 10.7433 63.6155 10.3203 62.4406 10.3203C61.6852 10.3203 60.9299 10.4895 60.5103 10.6587C59.9228 10.8279 59.755 10.997 59.1675 11.1662L58.6639 11.42V10.4895H55.7266V21.7403H58.6639V14.3807L58.7479 14.2961C59.755 13.3656 60.5942 12.8581 61.4335 12.8581C62.0209 12.8581 62.4406 13.0273 62.6923 13.281C63.028 13.5348 63.112 14.127 63.112 15.0575V21.7403H66.1333V14.2961C66.0494 13.0273 65.7136 12.0967 65.1262 11.42Z" fill="white"/>
<path d="M119.423 11.42C118.836 10.7433 117.912 10.3203 116.737 10.3203C115.982 10.3203 115.227 10.4895 114.807 10.6587C114.22 10.8279 114.052 10.997 113.464 11.1662L112.961 11.42V10.4895H110.023V21.7403H112.961V14.3807L113.045 14.2961C114.052 13.3656 114.891 12.8581 115.73 12.8581C116.318 12.8581 116.737 13.0273 116.989 13.281C117.325 13.5348 117.409 14.127 117.409 15.0575V21.7403H120.43V14.2961C120.346 13.0273 120.094 12.0967 119.423 11.42Z" fill="white"/>
<path d="M36.6792 10.2344C35.5882 10.2344 34.4972 10.5727 33.574 11.1649L33.3222 11.3341V10.4882H30.4688V27.4066L31.7276 26.8144C32.6508 26.3915 33.3222 25.461 33.3222 24.4459V20.893L33.574 21.0622C34.4972 21.6543 35.5882 21.9927 36.6792 21.9927C39.8684 21.9927 42.554 19.3703 42.554 16.0712C42.554 12.8567 39.9523 10.2344 36.6792 10.2344ZM36.6792 19.1166C35.0007 19.1166 33.6579 17.7631 33.6579 16.0712C33.6579 14.3794 35.0007 13.0259 36.6792 13.0259C38.3577 13.0259 39.7005 14.3794 39.7005 16.0712C39.7005 17.7631 38.3577 19.1166 36.6792 19.1166Z" fill="white"/>
<path d="M126.811 10.4922V23.2656C126.811 25.1266 125.972 25.5496 125.133 25.6342V27.9182C125.385 27.9182 125.636 28.0028 125.972 28.0028C127.315 28.0028 128.07 27.5798 128.826 26.9031C129.581 26.1417 130 24.9574 130 23.4348V10.4922H126.811Z" fill="white"/>
<path d="M75.2791 20.6366C75.2791 20.6366 74.7756 20.0444 74.272 18.9447L74.1881 18.6909L73.9363 18.8601C73.6006 19.1139 73.181 19.1985 72.7614 19.1985C71.8382 19.1985 71.4186 18.6909 71.4186 17.6758V12.3465H74.4399V10.0625H71.4186V7.60938H71.1668H70.3275H68.0616V10.2317H66.7188V12.0928H67.9776V17.5912C67.9776 20.3828 69.1526 21.8209 71.6703 21.8209C73.3488 21.8209 74.3559 21.3133 74.9434 20.8057L75.2791 20.6366Z" fill="white"/>
<path d="M85.8553 16.0753V10.4922H83.0019V11.2535C82.1626 10.8306 81.2395 10.4922 80.2324 10.4922C77.1271 10.4922 74.6094 13.03 74.6094 16.1599C74.6094 19.2898 77.1271 21.8275 80.2324 21.8275C81.2395 21.8275 82.1626 21.5738 83.0019 21.0662V21.7429H85.8553V16.2445V16.1599C85.8553 16.0753 85.8553 16.0753 85.8553 16.0753ZM80.2324 19.1206C78.5539 19.1206 77.295 17.7671 77.295 16.1599C77.295 14.468 78.6378 13.1991 80.2324 13.1991C81.9109 13.1991 83.1697 14.5526 83.1697 16.1599C83.1697 17.7671 81.8269 19.1206 80.2324 19.1206Z" fill="white"/>
<path d="M108.769 16.0753V10.4922H105.916V11.2535C105.077 10.8306 104.154 10.4922 103.146 10.4922C100.041 10.4922 97.5234 13.03 97.5234 16.1599C97.5234 19.2898 100.041 21.8275 103.146 21.8275C104.154 21.8275 105.077 21.5738 105.916 21.0662V21.7429H108.769V16.2445V16.1599C108.769 16.0753 108.769 16.0753 108.769 16.0753ZM103.23 19.1206C101.552 19.1206 100.293 17.7671 100.293 16.1599C100.293 14.468 101.636 13.1991 103.23 13.1991C104.909 13.1991 106.168 14.5526 106.168 16.1599C106.168 17.7671 104.825 19.1206 103.23 19.1206Z" fill="white"/>
</svg>
