<svg width="136" height="15" viewBox="0 0 136 15" fill="none" xmlns="http://www.w3.org/2000/svg">
<path d="M8.37845 8.5949C8.39582 9.08216 8.2878 9.56573 8.06473 9.99927C7.84166 10.4328 7.51101 10.8018 7.10445 11.071C6.32706 11.6046 5.30785 11.8713 4.04684 11.8713C2.41012 11.8713 1.06117 11.4717 0 10.6723L0.812367 9.17345C1.70979 9.78138 2.76805 10.108 3.85199 10.1117C5.32684 10.1117 6.06326 9.6281 6.06126 8.66085C6.05637 8.42122 5.99256 8.18649 5.87545 7.97737C5.75834 7.76825 5.59154 7.59118 5.38979 7.46179C4.88903 7.14289 4.35661 6.87668 3.80103 6.66741C2.98146 6.34233 2.20357 5.92068 1.48384 5.41139C1.10499 5.15661 0.795231 4.81185 0.58231 4.40798C0.36939 4.00411 0.259954 3.55374 0.263795 3.0972C0.251148 2.65953 0.344276 2.22526 0.535275 1.83126C0.726275 1.43726 1.00951 1.09515 1.36094 0.833969C2.09237 0.2824 3.09159 0.00561623 4.3586 0.00361779C5.68222 -0.0426052 6.98326 0.355202 8.05471 1.13373L7.22436 2.54863C6.39546 2.03341 5.44234 1.75265 4.46651 1.73626C3.20549 1.73626 2.57499 2.18391 2.57499 3.07921C2.57499 3.52686 2.90773 3.91556 3.57321 4.2453C4.23869 4.57505 4.87819 4.87481 5.49171 5.1446C7.41421 6.00992 8.37645 7.16003 8.37845 8.5949Z" fill="white"/>
<path d="M17.2308 10.5405C16.4753 11.2959 15.4092 11.6726 14.0323 11.6706C12.6553 11.6686 11.5972 11.2919 10.8577 10.5405C10.1163 9.79711 9.74561 8.75492 9.74561 7.41397C9.74561 6.06802 10.1173 5.01584 10.8577 4.28441C11.5982 3.55299 12.6563 3.1543 14.0412 3.1543C15.4262 3.1543 16.4843 3.529 17.2397 4.28441C17.9952 5.03982 18.3339 6.08301 18.3339 7.41397C18.3339 8.74493 17.9592 9.79711 17.2308 10.5405ZM14.0323 10.2048C15.4192 10.2048 16.1136 9.27452 16.1156 7.41397C16.1176 5.55342 15.4232 4.62215 14.0323 4.62015C12.6533 4.62015 11.9639 5.55142 11.9639 7.41397C11.9639 9.27651 12.6533 10.2068 14.0323 10.2048Z" fill="white"/>
<path d="M27.791 11.4944H25.7916L25.6327 10.6131C25.272 10.9665 24.8429 11.2426 24.3718 11.4245C23.9007 11.6064 23.3975 11.6904 22.8929 11.6712C22.0833 11.7106 21.2905 11.432 20.6836 10.8948C20.4002 10.6149 20.1795 10.2781 20.0358 9.90655C19.8922 9.53503 19.8289 9.13728 19.8502 8.73953V3.34375H22.0415V8.63162C22.0415 9.6808 22.6191 10.2054 23.7742 10.2054C24.1442 10.2197 24.5108 10.1308 24.8332 9.94873C25.1556 9.76663 25.421 9.49846 25.5997 9.17419V3.34675H27.791V11.4944Z" fill="white"/>
<path d="M31.8413 11.6715H29.647V3.52388H31.6104L31.7693 4.56707C32.4888 3.74371 33.488 3.33203 34.767 3.33203V4.92079C33.472 4.92079 32.4948 5.2925 31.8353 6.03592L31.8413 11.6715Z" fill="white"/>
<path d="M42.9325 10.8942C42.2371 11.4138 41.2948 11.6726 40.1057 11.6706C38.7388 11.6706 37.6546 11.2999 36.8533 10.5585C36.0519 9.81709 35.6392 8.76891 35.6152 7.41397C35.6152 6.06802 36.0229 5.01584 36.8353 4.26643C37.6476 3.51701 38.7028 3.1543 40.0698 3.1543C41.1989 3.1543 42.1062 3.4071 42.7916 3.91271L42.1921 5.20469C41.6384 4.78903 40.9559 4.58203 40.2646 4.62015C39.935 4.60674 39.6063 4.6646 39.3011 4.78979C38.9959 4.91499 38.7213 5.10457 38.496 5.34559C38.0023 5.91788 37.7498 6.65932 37.7915 7.41397C37.7494 8.1644 37.9985 8.90214 38.487 9.47336C38.7225 9.71591 39.0066 9.90593 39.3207 10.031C39.6348 10.156 39.9718 10.2132 40.3096 10.1988C41.2029 10.1988 41.8803 10.0049 42.342 9.61725L42.9325 10.8942Z" fill="white"/>
<path d="M46.5027 1.87936H44.2065V0.179688H46.5027V1.87936ZM46.4518 11.6697H44.2575V3.52208H46.4518V11.6697Z" fill="white"/>
<path d="M56.4695 11.67H54.2782V6.33419C54.2782 5.30899 53.7656 4.79639 52.7404 4.79639C52.3438 4.78559 51.9509 4.87563 51.5986 5.05808C51.2463 5.24054 50.946 5.50943 50.726 5.83958V11.67H48.5347V3.52239H50.5161L50.69 4.38871C51.5005 3.66762 52.5587 3.28838 53.6427 3.33054C54.0229 3.30523 54.4044 3.3561 54.7647 3.48015C55.125 3.60421 55.457 3.79895 55.741 4.05297C55.9984 4.32578 56.1968 4.64856 56.3242 5.00127C56.4516 5.35399 56.5051 5.72911 56.4815 6.10337L56.4695 11.67Z" fill="white"/>
<path d="M66.334 11.1425C66.334 13.7085 64.9561 14.9925 62.2002 14.9945C61.1075 15.0417 60.0251 14.7653 59.0887 14.2001L59.6732 12.9261C60.3463 13.3245 61.1153 13.5317 61.8975 13.5256C63.3963 13.5256 64.1447 12.8262 64.1427 11.4273V10.8278C63.5792 11.4063 62.7518 11.6941 61.6697 11.6941C61.1767 11.7135 60.6857 11.622 60.2328 11.4264C59.7798 11.2308 59.3766 10.9361 59.0527 10.564C58.3932 9.79856 58.0635 8.76137 58.0635 7.45239C58.0635 6.14342 58.3762 5.11822 59.0017 4.3768C59.6612 3.57742 60.5915 3.17773 61.7926 3.17773C62.8657 3.17773 63.6661 3.54045 64.1907 4.27188L64.3316 3.37258H66.328L66.334 11.1425ZM64.1427 5.7857C64.0145 5.43122 63.775 5.12778 63.46 4.92081C63.1449 4.71385 62.7713 4.61448 62.3951 4.63759C60.9962 4.63759 60.2967 5.56787 60.2967 7.42841C60.2967 9.28896 60.9742 10.2202 62.3291 10.2222C63.2145 10.2222 63.821 9.88649 64.1487 9.21502L64.1427 5.7857Z" fill="white"/>
<path d="M81.3264 11.5707H78.9763L78.1279 8.92081C78.0264 8.51621 77.8325 8.14066 77.5614 7.82367C77.2014 7.55576 76.7553 7.42984 76.3084 7.46994H74.8395V11.5707H72.5073V0.0957031H76.7041C79.5219 0.0957031 80.9298 1.29477 80.9278 3.69289C80.9278 5.25967 80.2743 6.30885 78.9673 6.84043C79.5668 7.06226 80.0345 7.62282 80.3282 8.51912L81.3264 11.5707ZM76.5062 5.74929C77.9331 5.74929 78.6465 5.06582 78.6465 3.69889C78.6465 2.42788 77.9271 1.79238 76.4882 1.79238H74.8455V5.74929H76.5062Z" fill="white"/>
<path d="M90.0561 10.9294C89.1508 11.4936 88.1009 11.7822 87.0344 11.7598C85.6355 11.7598 84.5364 11.3881 83.737 10.6446C82.9376 9.90123 82.5259 8.84705 82.502 7.48212C82.502 6.15116 82.8737 5.10897 83.6171 4.35556C84.3605 3.60215 85.3497 3.23044 86.5848 3.24043C89.1188 3.24043 90.3858 4.79022 90.3858 7.8898H84.5254C84.5733 9.48855 85.4866 10.2879 87.2652 10.2879C88.0423 10.2985 88.8029 10.0635 89.4385 9.61645L90.0561 10.9294ZM88.6082 6.63378C88.6191 6.11696 88.4289 5.6161 88.0776 5.23687C87.8906 5.0572 87.669 4.91749 87.4262 4.82627C87.1835 4.73504 86.9247 4.69422 86.6657 4.70629C85.3927 4.70629 84.6852 5.34878 84.5434 6.63378H88.6082Z" fill="white"/>
<path d="M100.079 14.9052H97.8852V10.8584C97.3216 11.4579 96.5003 11.7577 95.4301 11.7577C94.9345 11.7774 94.4407 11.6862 93.9848 11.4907C93.5289 11.2952 93.1225 11.0003 92.7952 10.6276C92.1277 9.85816 91.7939 8.82197 91.7939 7.51899C91.7939 6.21601 92.1007 5.1968 92.7142 4.46138C93.3737 3.65001 94.304 3.24333 95.505 3.24133C95.9732 3.21341 96.441 3.30268 96.866 3.50105C97.291 3.69942 97.6599 4.00064 97.9391 4.37744L98.08 3.44217H100.079V14.9052ZM97.8852 5.87627C97.7615 5.51732 97.5237 5.20872 97.2081 4.99761C96.8925 4.78651 96.5165 4.68451 96.1375 4.70719C94.7386 4.70719 94.0392 5.63846 94.0392 7.501C94.0392 9.36355 94.7227 10.2948 96.0896 10.2948C96.4575 10.3209 96.8249 10.2371 97.1451 10.054C97.4654 9.87098 97.724 9.59692 97.8882 9.26662L97.8852 5.87627Z" fill="white"/>
<path d="M109.976 11.5725H107.983L107.824 10.6732C107.464 11.0274 107.035 11.3043 106.564 11.4867C106.092 11.6692 105.589 11.7535 105.084 11.7344C104.281 11.775 103.493 11.502 102.887 10.973C102.603 10.6935 102.382 10.3566 102.239 9.98493C102.096 9.61326 102.034 9.21531 102.056 8.81766V3.42188H104.248V8.72173C104.248 9.77091 104.823 10.2955 105.98 10.2955C106.351 10.3079 106.717 10.2168 107.038 10.0326C107.36 9.8483 107.624 9.57811 107.8 9.25232V3.43686H109.991L109.976 11.5725Z" fill="white"/>
<path d="M119.308 10.9294C118.402 11.4928 117.352 11.7813 116.286 11.7598C114.887 11.7598 113.788 11.3881 112.989 10.6446C112.189 9.90123 111.783 8.84705 111.771 7.48212C111.771 6.15116 112.142 5.10897 112.884 4.35556C113.625 3.60215 114.614 3.23044 115.851 3.24043C118.387 3.24043 119.654 4.79022 119.652 7.8898H113.777C113.823 9.48855 114.736 10.2879 116.517 10.2879C117.294 10.2981 118.054 10.0632 118.69 9.61645L119.308 10.9294ZM117.875 6.63378C117.886 6.11696 117.695 5.6161 117.344 5.23687C117.157 5.05682 116.935 4.91689 116.691 4.82566C116.448 4.73443 116.189 4.69381 115.929 4.70628C114.658 4.70628 113.952 5.34878 113.81 6.63378H117.875Z" fill="white"/>
<path d="M127.79 9.26617C127.79 10.9289 126.559 11.7602 124.097 11.7602C123.033 11.7858 121.99 11.4626 121.126 10.8399L121.747 9.6049C122.429 10.0821 123.248 10.3242 124.079 10.2944C125.14 10.2944 125.668 9.96762 125.668 9.32013C125.668 9.02036 125.446 8.74458 124.996 8.50776L123.498 7.90823C122.051 7.33268 121.326 6.50832 121.324 5.43516C121.313 5.09681 121.394 4.76179 121.559 4.46605C121.724 4.17031 121.966 3.92501 122.26 3.75647C122.931 3.3732 123.697 3.18915 124.469 3.22589C125.547 3.1781 126.614 3.4616 127.526 4.03825L126.906 5.27629C126.246 4.91065 125.505 4.71588 124.751 4.70973C123.901 4.70973 123.477 4.98152 123.477 5.52509C123.477 5.78289 123.689 5.99872 124.115 6.16959C124.541 6.34045 125.044 6.55029 125.635 6.7961C127.07 7.38164 127.788 8.205 127.79 9.26617Z" fill="white"/>
<path d="M135.125 11.1935C134.448 11.5815 133.678 11.7774 132.898 11.76C131.035 11.76 130.104 10.7998 130.104 8.87926V4.67655H129.028V3.43551H130.122L130.512 1.1543H132.31V3.43551H134.768V4.67655H132.31V9.00217C132.31 9.8615 132.705 10.2922 133.494 10.2942C133.926 10.2998 134.348 10.1628 134.693 9.90446L135.125 11.1935Z" fill="white"/>
</svg>
