<svg width="216" height="38" viewBox="0 0 216 38" fill="none" xmlns="http://www.w3.org/2000/svg">
<g clip-path="url(#clip0_15_452)">
<path fill-rule="evenodd" clip-rule="evenodd" d="M139.258 4.22715C138.713 3.68186 137.973 3.37552 137.202 3.37552V28.3088H140.11V6.28318C140.11 5.51202 139.804 4.77245 139.258 4.22715ZM117.585 10.9867C117.04 10.4414 116.3 10.1351 115.529 10.1351V35.0675H118.437V25.2193C119.854 27.291 122.508 28.6728 125.088 28.6728C130.467 28.6728 134.065 24.8935 134.065 19.2234C134.065 13.5533 130.467 9.77396 125.088 9.77396C122.507 9.77396 119.854 11.1529 118.437 13.2246V13.0428C118.437 12.2716 118.13 11.532 117.585 10.9867ZM124.796 12.316C128.612 12.316 131.158 15.0804 131.158 19.2234C131.158 23.3667 128.613 26.1279 124.796 26.1279C120.98 26.1279 118.437 23.3664 118.437 19.2234C118.437 15.0804 120.981 12.316 124.796 12.316ZM143.602 19.2234C143.602 13.5546 147.164 9.77396 152.47 9.77396C154.943 9.77396 157.523 11.1529 158.941 13.1893V10.1351C159.323 10.1351 159.701 10.2103 160.054 10.3564C160.406 10.5026 160.727 10.7167 160.997 10.9867C161.267 11.2567 161.481 11.5773 161.627 11.9301C161.773 12.2828 161.849 12.6609 161.849 13.0428V28.3088H158.941V25.2546C157.523 27.291 154.943 28.6728 152.47 28.6728C147.164 28.6728 143.602 24.8938 143.602 19.2234ZM158.941 19.2234C158.941 15.0804 156.468 12.316 152.763 12.316C149.019 12.316 146.511 15.0804 146.511 19.2234C146.511 23.3664 149.019 26.1279 152.763 26.1279C156.468 26.1279 158.941 23.3667 158.941 19.2234ZM166.804 10.1351H166.223L166.222 28.3088H169.13V17.5514C169.13 14.4262 171.203 12.316 174.291 12.316C177.378 12.316 179.45 14.4262 179.45 17.5514V28.3075H182.359V17.0409C182.359 12.6788 179.342 9.77269 174.798 9.77269C172.69 9.77269 170.4 10.8619 169.129 12.46C169.129 12.1547 169.069 11.8524 168.952 11.5703C168.835 11.2882 168.664 11.0319 168.448 10.816C168.232 10.6002 167.976 10.4289 167.694 10.3121C167.412 10.1952 167.109 10.1351 166.804 10.1351ZM207.604 23.6566V12.6788H204.698V10.1351H207.605V3.37552C208.377 3.37552 209.116 3.68186 209.661 4.22715C210.207 4.77245 210.513 5.51202 210.513 6.28318V10.1367H215.819V12.6788H210.512V23.6566C210.512 25.1483 211.458 26.1279 212.837 26.1279H215.999V28.3088C215.09 28.5279 213.89 28.6728 213.019 28.6728C209.785 28.6728 207.604 26.6722 207.604 23.6566ZM194.618 9.77396C200.107 9.77396 203.742 13.6625 203.742 19.5135V19.8033H192.11C191.435 19.8033 190.787 19.5359 190.307 19.0596C189.828 18.5833 189.557 17.9368 189.553 17.2613H200.652C199.962 14.0976 197.667 12.316 194.618 12.316C191.056 12.316 188.44 15.0307 188.44 19.2234C188.44 23.4161 191.056 26.1279 194.618 26.1279C197.308 26.1279 199.635 24.5298 200.434 22.1295H203.341C202.178 26.0566 198.689 28.6728 194.618 28.6728C189.132 28.6728 185.496 24.8938 185.496 19.2234C185.496 13.553 189.13 9.77396 194.618 9.77396Z" fill="white"/>
<path fill-rule="evenodd" clip-rule="evenodd" d="M80.6522 9.40611C78.6776 9.40611 76.8843 10.1214 75.3161 11.5326C74.9904 11.0377 74.5473 10.6311 74.0263 10.3491C73.5053 10.067 72.9226 9.91823 72.3301 9.91599H71.1126V28.5598H75.9298V17.5272C75.9298 15.2116 77.584 13.7151 80.1432 13.7151C82.7025 13.7151 84.3563 15.2119 84.3563 17.5272V28.5598H89.1729V17.0202C89.172 12.4657 85.7477 9.40611 80.6522 9.40611ZM100.677 20.6648H112.037V19.2393C112.037 13.3574 107.985 9.40611 101.952 9.40611C95.9202 9.40611 91.8672 13.3574 91.8672 19.2393C91.8672 25.1212 95.9202 29.069 101.952 29.069C106.488 29.069 110.36 26.3142 111.592 22.2129L111.679 21.9221H106.791L106.731 22.054C105.926 23.8037 104.005 24.9795 101.954 24.9795C99.2951 24.9795 97.1575 23.1005 96.7559 20.4056C96.6403 19.6288 96.5228 18.1387 97.0326 16.8864C97.076 16.782 97.1209 16.6788 97.168 16.5788V17.1549C97.1692 18.0853 97.5393 18.9773 98.1971 19.6352C98.8549 20.2932 99.7469 20.6634 100.677 20.6648ZM101.951 13.4991C104.201 13.4991 105.892 14.5883 106.747 16.5756H97.1667C98.0893 14.6147 99.8155 13.4985 101.952 13.4985L101.951 13.4991ZM57.9877 9.40707C51.9179 9.40707 47.8959 13.3546 47.8959 19.2393C47.8959 25.1216 51.9179 29.07 57.9877 29.07C64.0575 29.07 68.0795 25.1225 68.0795 19.2393C68.0795 13.3562 64.0575 9.40707 57.9877 9.40707ZM57.9877 13.3546C61.3772 13.3546 63.6113 15.7008 63.6113 19.2393C63.6113 22.7744 61.3769 25.1225 57.9877 25.1225C54.5985 25.1225 52.3641 22.7779 52.3641 19.2393C52.3641 15.7008 54.5982 13.3546 57.9877 13.3546Z" fill="white"/>
<path d="M19.0275 1.7843e-05C13.1479 0.00320258 7.89402 2.66692 4.40387 6.8472L13.7654 6.84211L21.4623 6.83797C23.0285 6.83797 24.2986 8.02747 24.2996 9.49659L24.3101 26.561C24.3957 29.077 26.568 31.0996 29.2582 31.1544L33.6742 31.1522C36.5276 27.7423 38.0873 23.4355 38.079 18.9893C38.0723 8.4969 29.5439 -0.00539621 19.0275 1.7843e-05Z" fill="white"/>
<path d="M24.3141 31.1582L16.617 31.1623C15.051 31.1623 13.7806 29.9728 13.7797 28.5037L13.7692 11.4393C13.6835 8.92332 11.5115 6.90069 8.82136 6.84592L4.40508 6.84815C1.55182 10.2581 -0.00787126 14.5648 0.000275898 19.0109C0.00696384 29.5046 8.53537 38.0066 19.0517 38.0012C24.9313 37.998 30.1852 35.3343 33.6754 31.154L24.3141 31.1582Z" fill="white"/>
<path d="M20.2109 2.98634C29.7909 2.98125 37.5909 10.5109 38.0371 19.961C38.0534 19.6377 38.0801 19.317 38.0798 18.9896C38.0734 8.49594 29.5447 -0.00635524 19.0284 -0.000622713C13.1487 0.00224355 7.89486 2.66596 4.40503 6.84656L9.13564 6.84401C12.2853 4.34337 16.1892 2.98356 20.2109 2.98634V2.98634Z" fill="url(#paint0_radial_15_452)"/>
<path d="M17.8689 35.0148C8.28891 35.0199 0.489177 27.4903 0.0429951 18.0403C0.026753 18.3635 0 18.6842 0 19.0119C0.00668795 29.5056 8.53509 38.0079 19.0517 38.0021C24.9311 37.9989 30.1849 35.3352 33.6751 31.155L28.9442 31.1575C25.7946 33.6582 21.8906 35.0179 17.8689 35.0148V35.0148Z" fill="url(#paint1_radial_15_452)"/>
</g>
<defs>
<radialGradient id="paint0_radial_15_452" cx="0" cy="0" r="1" gradientUnits="userSpaceOnUse" gradientTransform="translate(28.0116 1.72582) scale(13.8405 13.8405)">
<stop stop-color="#BBBDBF"/>
<stop offset="0.99" stop-color="white"/>
</radialGradient>
<radialGradient id="paint1_radial_15_452" cx="0" cy="0" r="1" gradientUnits="userSpaceOnUse" gradientTransform="translate(-151560 -2782.99) rotate(180) scale(14634.9 8675.23)">
<stop stop-color="#BBBDBF"/>
<stop offset="0.99" stop-color="white"/>
</radialGradient>
<clipPath id="clip0_15_452">
<rect width="216" height="38.0009" fill="white"/>
</clipPath>
</defs>
</svg>
