<svg width="216" height="38" viewBox="0 0 216 38" fill="none" xmlns="http://www.w3.org/2000/svg">
<g clip-path="url(#clip0_15_416)">
<path d="M19.0281 3.33548e-05C13.1487 0.00318501 7.89488 2.66697 4.40442 6.84795L13.7648 6.84291L21.4618 6.83881C23.0279 6.83881 24.2983 8.02825 24.2983 9.49755L24.3087 26.5619C24.3944 29.0791 26.5669 31.1003 29.2568 31.1554L33.6729 31.1529C36.5263 27.7432 38.086 23.4365 38.0777 18.9903C38.0732 8.49658 29.5436 -0.00563963 19.0281 3.33548e-05Z" fill="url(#paint0_linear_15_416)"/>
<path d="M24.3136 31.1579L16.6166 31.162C15.0505 31.162 13.7801 29.9726 13.7801 28.5036L13.7697 11.439C13.684 8.92204 11.5118 6.90057 8.82159 6.84573L4.40485 6.84794C1.55134 10.2577 -0.00836753 14.5646 9.91393e-05 19.0108C0.00640245 29.5058 8.53605 38.0068 19.0515 38.0011C24.931 37.998 30.1848 35.3342 33.6752 31.1529L24.3136 31.1579Z" fill="url(#paint1_linear_15_416)"/>
<path d="M20.2124 2.98623C29.7935 2.98118 37.5922 10.5108 38.0385 19.962C38.0546 19.6386 38.0814 19.3178 38.0811 18.9903C38.0748 8.49532 29.5451 -0.00563963 19.0296 3.33553e-05C13.1502 0.00318501 7.8964 2.66697 4.40594 6.84795L9.13689 6.84543C12.2864 4.34416 16.1905 2.9838 20.2124 2.98623Z" fill="url(#paint2_radial_15_416)"/>
<path d="M17.8686 35.0146C8.28752 35.02 0.48875 27.4904 0.0427904 18.0391C0.0264018 18.3625 -0.000388704 18.6833 -7.35381e-05 19.0108C0.00622977 29.5058 8.53587 38.0068 19.0514 38.0012C24.9308 37.998 30.1849 35.3342 33.6751 31.1529L28.9441 31.1557C25.7946 33.6571 21.8905 35.0173 17.8686 35.0146Z" fill="url(#paint3_radial_15_416)"/>
<path fill-rule="evenodd" clip-rule="evenodd" d="M139.258 4.22711C138.713 3.68181 137.973 3.37546 137.202 3.37546V28.3088H140.11V6.28318C140.11 5.512 139.803 4.77241 139.258 4.22711ZM117.585 10.9865C117.039 10.4412 116.3 10.1348 115.529 10.1348V35.0681H118.436V25.2189C119.853 27.2908 122.506 28.6728 125.086 28.6728C130.465 28.6728 134.064 24.8933 134.064 19.2232C134.064 13.5531 130.465 9.77394 125.086 9.77394C122.507 9.77394 119.855 11.1528 118.436 13.2244V13.0425C118.436 12.2713 118.13 11.5318 117.585 10.9865ZM124.796 12.3161C128.612 12.3161 131.157 15.0801 131.157 19.2232C131.157 23.3664 128.612 26.1275 124.796 26.1275C120.98 26.1275 118.436 23.3664 118.436 19.2232C118.436 15.0801 120.98 12.3161 124.796 12.3161ZM143.602 19.2232C143.602 13.5531 147.163 9.77394 152.47 9.77394C154.942 9.77394 157.523 11.1528 158.941 13.1891V10.1348C159.712 10.1348 160.451 10.4412 160.997 10.9865C161.542 11.5318 161.848 12.2713 161.848 13.0425V28.3088H158.941V25.2536C157.522 27.2899 154.942 28.6719 152.47 28.6719C147.163 28.6728 143.602 24.8937 143.602 19.2232ZM158.941 19.2232C158.941 15.0801 156.468 12.3161 152.761 12.3161C149.018 12.3161 146.509 15.0801 146.509 19.2232C146.509 23.3664 149.018 26.1276 152.761 26.1276C156.468 26.1276 158.941 23.3664 158.941 19.2232ZM166.804 10.1348H166.222V28.3088H169.13V17.5513C169.13 14.4277 171.203 12.3161 174.291 12.3161C177.379 12.3161 179.451 14.4261 179.451 17.5513V28.3088H182.36V17.0423C182.36 12.6801 179.343 9.77394 174.799 9.77394C172.691 9.77394 170.401 10.8628 169.13 12.461C169.13 11.8441 168.885 11.2525 168.449 10.8163C168.012 10.38 167.421 10.1349 166.804 10.1348ZM207.604 23.6564V12.6801H204.697V10.1348H207.604V3.37546C208.375 3.37546 209.115 3.68181 209.66 4.22711C210.205 4.77241 210.512 5.512 210.512 6.28318V10.1348H215.818V12.6801H210.512V23.6564C210.512 25.148 211.457 26.1276 212.838 26.1276H216V28.3088C215.091 28.5295 213.892 28.6729 213.02 28.6729C209.785 28.6729 207.604 26.6719 207.604 23.6564ZM194.618 9.77449C200.107 9.77449 203.742 13.6624 203.742 19.5131V19.804H192.11C191.434 19.804 190.786 19.5367 190.307 19.0604C189.828 18.5841 189.557 17.9375 189.553 17.2619H200.652C199.961 14.0983 197.667 12.3169 194.618 12.3169C191.057 12.3169 188.441 15.0302 188.441 19.2241C188.441 23.418 191.057 26.1285 194.618 26.1285C197.308 26.1285 199.634 24.5306 200.433 22.1303H203.341C202.178 26.0579 198.689 28.6737 194.618 28.6737C189.131 28.6737 185.496 24.8943 185.496 19.2241C185.496 13.554 189.13 9.77449 194.618 9.77449Z" fill="#0082C9"/>
<path fill-rule="evenodd" clip-rule="evenodd" d="M57.9876 9.40483C51.9175 9.40483 47.8954 13.3535 47.8954 19.238C47.8954 25.1215 51.9178 29.069 57.9876 29.069C64.0573 29.069 68.0794 25.1234 68.0794 19.238C68.0794 13.3526 64.0576 9.40483 57.9876 9.40483ZM57.9876 13.3535C61.3768 13.3535 63.611 15.6996 63.611 19.238H63.6107C63.6107 22.7751 61.3772 25.1215 57.9876 25.1215C54.598 25.1215 52.3638 22.7764 52.3638 19.238C52.3638 15.6996 54.5983 13.3535 57.9876 13.3535ZM80.6512 9.40582C78.677 9.40582 76.8831 10.1213 75.3151 11.5326C74.9893 11.0378 74.5462 10.6313 74.0252 10.3492C73.5043 10.0671 72.9217 9.9182 72.3292 9.91576H71.1118V28.5597H75.9291V17.527C75.9291 15.2115 77.5831 13.7135 80.1422 13.7135C82.7013 13.7135 84.3557 15.2102 84.3557 17.527V28.5597H89.1708V17.0202C89.1708 12.4655 85.7474 9.40582 80.6512 9.40582ZM100.677 20.6645H112.036V19.2393C112.036 13.3574 107.984 9.40614 101.951 9.40614C95.9178 9.40614 91.8657 13.3577 91.8657 19.2393C91.8657 25.1209 95.9188 29.069 101.951 29.069C106.487 29.069 110.36 26.3141 111.59 22.2126L111.678 21.922H106.791L106.73 22.0537C105.926 23.8035 104.005 24.9794 101.952 24.9794C99.2935 24.9794 97.1561 23.0985 96.7543 20.4054C96.6389 19.6285 96.521 18.1384 97.031 16.8863C97.0745 16.7816 97.1192 16.6786 97.1665 16.5787V17.1539C97.1674 18.0846 97.5375 18.977 98.1956 19.6351C98.8537 20.2933 99.7461 20.6635 100.677 20.6645ZM101.952 13.4979C104.201 13.4979 105.893 14.5868 106.747 16.5743H97.1662C98.0899 14.6146 99.8151 13.4979 101.952 13.4979Z" fill="#003878"/>
</g>
<defs>
<linearGradient id="paint0_linear_15_416" x1="21.2421" y1="31.0032" x2="21.2421" y2="12.584" gradientUnits="userSpaceOnUse">
<stop stop-color="#003878"/>
<stop offset="0.15" stop-color="#005093"/>
<stop offset="0.34" stop-color="#0066AB"/>
<stop offset="0.53" stop-color="#0076BC"/>
<stop offset="0.74" stop-color="#007FC6"/>
<stop offset="1" stop-color="#0082C9"/>
</linearGradient>
<linearGradient id="paint1_linear_15_416" x1="16.8375" y1="7.69763" x2="16.8375" y2="24.1612" gradientUnits="userSpaceOnUse">
<stop offset="0.01" stop-color="#1B1464"/>
<stop offset="1" stop-color="#003878"/>
</linearGradient>
<radialGradient id="paint2_radial_15_416" cx="0" cy="0" r="1" gradientUnits="userSpaceOnUse" gradientTransform="translate(28.0115 1.72588) scale(13.8405 13.8405)">
<stop stop-color="white" stop-opacity="0.3"/>
<stop offset="0.23" stop-color="white" stop-opacity="0.26"/>
<stop offset="0.61" stop-color="white" stop-opacity="0.14"/>
<stop offset="1" stop-color="white" stop-opacity="0"/>
</radialGradient>
<radialGradient id="paint3_radial_15_416" cx="0" cy="0" r="1" gradientUnits="userSpaceOnUse" gradientTransform="translate(-152488 -2667.45) rotate(180) scale(14788.4 8766.32)">
<stop stop-color="white" stop-opacity="0.3"/>
<stop offset="0.23" stop-color="white" stop-opacity="0.26"/>
<stop offset="0.61" stop-color="white" stop-opacity="0.14"/>
<stop offset="1" stop-color="white" stop-opacity="0"/>
</radialGradient>
<clipPath id="clip0_15_416">
<rect width="216" height="38.0011" fill="white"/>
</clipPath>
</defs>
</svg>
