<svg width="216" height="38" viewBox="0 0 216 38" fill="none" xmlns="http://www.w3.org/2000/svg">
<g clip-path="url(#clip0_15_527)">
<path fill-rule="evenodd" clip-rule="evenodd" d="M139.261 4.22687C138.716 3.68157 137.976 3.37523 137.205 3.37523V28.3083H140.113V6.2829C140.113 5.51174 139.806 4.77216 139.261 4.22687ZM116.645 10.3556C116.292 10.2095 115.914 10.1342 115.533 10.1342V35.068H118.44V25.2195C119.857 27.2912 122.511 28.6731 125.091 28.6731C130.47 28.6731 134.068 24.8929 134.068 19.2226C134.068 13.5523 130.47 9.77335 125.091 9.77335C122.51 9.77335 119.857 11.1525 118.44 13.2238V13.0419C118.44 12.6601 118.365 12.282 118.219 11.9292C118.073 11.5765 117.858 11.2559 117.588 10.9859C117.318 10.7159 116.998 10.5017 116.645 10.3556ZM124.8 12.3154C128.616 12.3154 131.161 15.0793 131.161 19.2226C131.161 23.3656 128.616 26.1266 124.8 26.1266C120.984 26.1266 118.44 23.3659 118.44 19.2226C118.44 15.0793 120.984 12.3154 124.8 12.3154ZM143.605 19.2226C143.605 13.5523 147.166 9.77335 152.472 9.77335C154.945 9.77335 157.525 11.1525 158.943 13.1882V10.1342C159.325 10.1342 159.703 10.2095 160.056 10.3556C160.408 10.5017 160.729 10.7159 160.999 10.9859C161.269 11.2559 161.483 11.5765 161.629 11.9292C161.775 12.282 161.85 12.6601 161.85 13.0419V28.3074H158.943V25.2534C157.525 27.2886 154.945 28.6731 152.472 28.6731C147.166 28.6731 143.605 24.8925 143.605 19.2226ZM158.943 19.2226C158.943 15.0793 156.47 12.3154 152.764 12.3154C149.019 12.3154 146.512 15.0793 146.512 19.2226C146.512 23.3659 149.019 26.1266 152.763 26.1266C156.47 26.1266 158.943 23.3656 158.943 19.2226ZM166.806 10.1342H166.224V28.3074H169.132V17.5505C169.132 14.4254 171.203 12.3154 174.292 12.3154C177.381 12.3154 179.452 14.4254 179.452 17.5505V28.3078H182.361V17.0417C182.361 12.6794 179.344 9.77335 174.8 9.77335C172.693 9.77335 170.403 10.8623 169.132 12.4604C169.132 11.8435 168.887 11.2518 168.45 10.8156C168.014 10.3793 167.422 10.1342 166.806 10.1342ZM207.604 23.6553V12.6794H204.697V10.1342H207.604V3.37523C208.375 3.37523 209.115 3.68157 209.66 4.22687C210.206 4.77216 210.512 5.51174 210.512 6.2829V10.1342H215.819V12.6794H210.512V23.6553C210.512 25.1471 211.457 26.1266 212.838 26.1266H216V28.3074C215.091 28.5276 213.892 28.6714 213.02 28.6714C209.785 28.673 207.604 26.6709 207.604 23.6553ZM194.618 9.77335C200.107 9.77335 203.743 13.6618 203.743 19.5124V19.8025H192.111C191.436 19.8025 190.787 19.5352 190.308 19.0589C189.829 18.5826 189.558 17.936 189.554 17.2604H200.652C199.961 14.0969 197.666 12.3154 194.618 12.3154C191.056 12.3154 188.44 15.0296 188.44 19.2223C188.44 23.415 191.056 26.1266 194.618 26.1266C197.308 26.1266 199.634 24.5285 200.433 22.1284H203.341C202.178 26.0571 198.689 28.6731 194.619 28.6731C189.132 28.6731 185.495 24.8929 185.495 19.2226C185.495 13.5523 189.128 9.77335 194.618 9.77335Z" fill="#0082C9"/>
<path fill-rule="evenodd" clip-rule="evenodd" d="M57.9936 9.40546C51.924 9.40546 47.9019 13.3534 47.9019 19.2373C47.9019 25.1203 51.9234 29.0676 57.9936 29.0676C64.0638 29.0676 68.085 25.1219 68.085 19.2373C68.085 13.3527 64.0632 9.40546 57.9936 9.40546ZM57.9936 13.3534C61.3827 13.3534 63.6167 15.6988 63.6167 19.2373C63.6167 22.7743 61.383 25.1212 57.9936 25.1212C54.6042 25.1212 52.3702 22.7752 52.3702 19.2373C52.3702 15.6994 54.6045 13.3534 57.9936 13.3534ZM80.6562 9.40546C78.6821 9.40546 76.8883 10.1207 75.3204 11.5319C74.9947 11.037 74.5516 10.6304 74.0307 10.3484C73.5097 10.0663 72.9271 9.91748 72.3347 9.91519H71.117V28.5585H75.934V17.5262C75.934 15.2107 77.5881 13.7143 80.1471 13.7143C82.7062 13.7143 84.3603 15.2107 84.3603 17.5262V28.5585H89.1766V17.0193C89.1766 12.4648 85.7523 9.40546 80.6562 9.40546ZM100.681 20.6636H112.04V19.2382C112.04 13.3565 107.988 9.40546 101.956 9.40546C95.9246 9.40546 91.8719 13.3565 91.8719 19.2382C91.8719 25.12 95.9246 29.0676 101.956 29.0676C106.492 29.0676 110.365 26.3128 111.595 22.2117L111.683 21.9209H106.795L106.735 22.0528C105.929 23.8025 104.009 24.979 101.956 24.979C99.2979 24.979 97.1605 23.0984 96.7587 20.4056C96.6432 19.6284 96.5255 18.1401 97.0356 16.8862C97.079 16.7818 97.1237 16.6789 97.1709 16.5788V17.1549C97.1723 18.0854 97.5427 18.9773 98.2008 19.635C98.8589 20.2928 99.751 20.6627 100.681 20.6636ZM101.956 13.4978C104.206 13.4978 105.897 14.5868 106.751 16.5741H97.1725C98.0934 14.6138 99.8196 13.4978 101.956 13.4978Z" fill="#0082C9"/>
<path d="M19.0275 1.80869e-05C13.1483 0.00316457 7.89457 2.66667 4.40448 6.84772L13.7656 6.84269L21.4622 6.8386C23.0282 6.8386 24.2985 8.02797 24.2994 9.49706L24.3098 26.5608C24.3954 29.078 26.5677 31.0993 29.2577 31.1547L33.6735 31.1521C36.5271 27.7427 38.0869 23.4361 38.0785 18.99C38.0716 8.49616 29.5424 -0.00564559 19.0275 1.80869e-05Z" fill="#0082C9"/>
<path d="M24.3126 31.1565L16.616 31.1609C15.05 31.1609 13.7797 29.9712 13.7788 28.5024L13.7684 11.4384C13.6825 8.92121 11.5105 6.90022 8.82055 6.84453L4.40445 6.84705C1.55099 10.2566 -0.00882294 14.5631 -0.000639348 19.0092C0.00565363 29.5024 8.53485 38.0045 19.0501 37.9988C24.9293 37.9957 30.183 35.3319 33.6728 31.1508L24.3126 31.1565Z" fill="#0082C9"/>
<path d="M20.275 2.98604C29.8545 2.98101 37.6543 10.5103 38.1005 19.9611C38.1165 19.6376 38.1433 19.317 38.1433 18.9894C38.1367 8.49619 29.6075 -0.00564561 19.0925 1.80869e-05C13.213 0.00316458 7.95932 2.66667 4.46954 6.84774L9.20029 6.84522C12.3494 4.34384 16.2533 2.98346 20.275 2.98604Z" fill="url(#paint0_radial_15_527)"/>
<path d="M17.9331 35.0133C8.35356 35.0183 0.553723 27.489 0.10755 18.0385C0.091503 18.3617 0.0647583 18.6823 0.0647583 19.0098C0.0713659 29.5031 8.60056 38.0053 19.1155 37.9996C24.995 37.9964 30.2484 35.3329 33.7385 31.1519L29.0078 31.1544C25.8585 33.6555 21.9547 35.0157 17.9331 35.0133Z" fill="url(#paint1_radial_15_527)"/>
</g>
<defs>
<radialGradient id="paint0_radial_15_527" cx="0" cy="0" r="1" gradientUnits="userSpaceOnUse" gradientTransform="translate(28.0755 1.72556) scale(13.8398 13.8399)">
<stop stop-color="#A4CBE6"/>
<stop offset="0.99" stop-color="#0082C9"/>
</radialGradient>
<radialGradient id="paint1_radial_15_527" cx="0" cy="0" r="1" gradientUnits="userSpaceOnUse" gradientTransform="translate(-152385 -2610.53) rotate(180) scale(14811.4 8779.88)">
<stop stop-color="#A4CBE6"/>
<stop offset="0.99" stop-color="#0082C9"/>
</radialGradient>
<clipPath id="clip0_15_527">
<rect width="216" height="37.9995" fill="white"/>
</clipPath>
</defs>
</svg>
