<svg width="80" height="80" viewBox="0 0 80 80" fill="none" xmlns="http://www.w3.org/2000/svg">
<g clip-path="url(#clip0_88_1806)">
<path fill-rule="evenodd" clip-rule="evenodd" d="M66.0596 72.5H14.4996C14.2236 72.5 13.9996 72.276 13.9996 72C13.9996 71.724 14.2236 71.5 14.4996 71.5H65.5596V50.75C65.5596 50.474 65.7836 50.25 66.0596 50.25C66.3356 50.25 66.5596 50.474 66.5596 50.75V72C66.5596 72.276 66.3356 72.5 66.0596 72.5Z" fill="#84B0D7"/>
<path fill-rule="evenodd" clip-rule="evenodd" d="M68 22V27V41V43C68 45.867 67 47 64 47C61.463 47 59 45.867 59 43V41V27V22C59 22 60 19 62 20C62 20 64 20 64 22V39C64 39.607 63.607 40.19 63 40.19C62.393 40.19 61.9 39.698 61.9 39.091V21.909C61.9 21.405 61.622 21.1 61.5 21.1C61.378 21.1 61.1 21.405 61.1 21.909V26.5V41V42.9C61.1 44.526 62.199 45.9 63.5 45.9C64.801 45.9 65.9 44.526 65.9 42.9V41V26.5V21.77C65.9 19.194 63.926 17.1 61.5 17.1C59.074 17.1 57.1 19.194 57.1 21.77V39.077C57.1 39.685 56.607 40.177 56 40.177C55.393 40.177 55 39.607 55 39V22C55 22 57 15 62 16C62 16 66 15 68 22Z" fill="#C1E3FF"/>
<path fill-rule="evenodd" clip-rule="evenodd" d="M61.5 15C57.916 15 55 17.916 55 21.5V39.5C55 39.776 55.224 40 55.5 40C55.776 40 56 39.776 56 39.5V21.5C56 18.468 58.467 16 61.5 16C64.533 16 67 18.468 67 21.5V27.5V41.5V43.5C67 45.43 65.43 47 63.5 47C61.57 47 60 45.43 60 43.5V41.5V27.5V21.5C60 20.673 60.673 20 61.5 20C62.327 20 63 20.673 63 21.5V39.5C63 39.776 63.224 40 63.5 40C63.776 40 64 39.776 64 39.5V21.5C64 20.121 62.878 19 61.5 19C60.122 19 59 20.121 59 21.5V27.5V41.5V43.5C59 45.981 61.019 48 63.5 48C65.981 48 68 45.981 68 43.5V41.5V27.5V21.5C68 17.916 65.084 15 61.5 15Z" fill="#297CBB"/>
<mask id="mask0_88_1806" style="mask-type:alpha" maskUnits="userSpaceOnUse" x="0" y="0" width="80" height="80">
<path d="M0 80H80V0H0V80Z" fill="white"/>
</mask>
<g mask="url(#mask0_88_1806)">
<path fill-rule="evenodd" clip-rule="evenodd" d="M1 11H42V1H1V11ZM42.5 12H0.5C0.224 12 0 11.776 0 11.5V0.5C0 0.224 0.224 0 0.5 0H42.5C42.776 0 43 0.224 43 0.5V11.5C43 11.776 42.776 12 42.5 12Z" fill="#84B0D7"/>
<path fill-rule="evenodd" clip-rule="evenodd" d="M4.25 18.75H8.25V14.75H4.25V18.75ZM8.75 19.75H3.75C3.474 19.75 3.25 19.526 3.25 19.25V14.25C3.25 13.974 3.474 13.75 3.75 13.75H8.75C9.026 13.75 9.25 13.974 9.25 14.25V19.25C9.25 19.526 9.026 19.75 8.75 19.75Z" fill="#C1E3FF"/>
<path fill-rule="evenodd" clip-rule="evenodd" d="M38.75 15.25H11.75C11.474 15.25 11.25 15.026 11.25 14.75C11.25 14.474 11.474 14.25 11.75 14.25H38.75C39.026 14.25 39.25 14.474 39.25 14.75C39.25 15.026 39.026 15.25 38.75 15.25Z" fill="#C1E3FF"/>
<path fill-rule="evenodd" clip-rule="evenodd" d="M32.75 19.25H11.75C11.474 19.25 11.25 19.026 11.25 18.75C11.25 18.474 11.474 18.25 11.75 18.25H32.75C33.026 18.25 33.25 18.474 33.25 18.75C33.25 19.026 33.026 19.25 32.75 19.25Z" fill="#C1E3FF"/>
<path fill-rule="evenodd" clip-rule="evenodd" d="M4.25 8H8.25V4H4.25V8ZM8.75 9H3.75C3.474 9 3.25 8.776 3.25 8.5V3.5C3.25 3.224 3.474 3 3.75 3H8.75C9.026 3 9.25 3.224 9.25 3.5V8.5C9.25 8.776 9.026 9 8.75 9Z" fill="#84B0D7"/>
<path fill-rule="evenodd" clip-rule="evenodd" d="M38.75 4.5H11.75C11.474 4.5 11.25 4.276 11.25 4C11.25 3.724 11.474 3.5 11.75 3.5H38.75C39.026 3.5 39.25 3.724 39.25 4C39.25 4.276 39.026 4.5 38.75 4.5Z" fill="#84B0D7"/>
<path fill-rule="evenodd" clip-rule="evenodd" d="M38.75 8.5H11.75C11.474 8.5 11.25 8.276 11.25 8C11.25 7.724 11.474 7.5 11.75 7.5H38.75C39.026 7.5 39.25 7.724 39.25 8C39.25 8.276 39.026 8.5 38.75 8.5Z" fill="#84B0D7"/>
<path fill-rule="evenodd" clip-rule="evenodd" d="M4.25 26.75H8.25V22.75H4.25V26.75ZM8.75 27.75H3.75C3.474 27.75 3.25 27.526 3.25 27.25V22.25C3.25 21.974 3.474 21.75 3.75 21.75H8.75C9.026 21.75 9.25 21.974 9.25 22.25V27.25C9.25 27.526 9.026 27.75 8.75 27.75Z" fill="#C1E3FF"/>
<path fill-rule="evenodd" clip-rule="evenodd" d="M35.75 23.25H11.75C11.474 23.25 11.25 23.026 11.25 22.75C11.25 22.474 11.474 22.25 11.75 22.25H35.75C36.026 22.25 36.25 22.474 36.25 22.75C36.25 23.026 36.026 23.25 35.75 23.25Z" fill="#C1E3FF"/>
<path fill-rule="evenodd" clip-rule="evenodd" d="M29.75 27.25H11.75C11.474 27.25 11.25 27.026 11.25 26.75C11.25 26.474 11.474 26.25 11.75 26.25H29.75C30.026 26.25 30.25 26.474 30.25 26.75C30.25 27.026 30.026 27.25 29.75 27.25Z" fill="#C1E3FF"/>
<path fill-rule="evenodd" clip-rule="evenodd" d="M28 77H10C9.724 77 9.5 76.776 9.5 76.5C9.5 76.224 9.724 76 10 76H28C28.276 76 28.5 76.224 28.5 76.5C28.5 76.776 28.276 77 28 77ZM49 77H31C30.724 77 30.5 76.776 30.5 76.5C30.5 76.224 30.724 76 31 76H49C49.276 76 49.5 76.224 49.5 76.5C49.5 76.776 49.276 77 49 77ZM54 77H52C51.724 77 51.5 76.776 51.5 76.5C51.5 76.224 51.724 76 52 76H54C54.276 76 54.5 76.224 54.5 76.5C54.5 76.776 54.276 77 54 77Z" fill="#D6E5F1"/>
<path fill-rule="evenodd" clip-rule="evenodd" d="M72.5 77H60.5C60.224 77 60 76.776 60 76.5C60 76.224 60.224 76 60.5 76H72.5C72.776 76 73 76.224 73 76.5C73 76.776 72.776 77 72.5 77Z" fill="#D6E5F1"/>
<path fill-rule="evenodd" clip-rule="evenodd" d="M7.5 80H0.5C0.224 80 0 79.776 0 79.5C0 79.224 0.224 79 0.5 79H7.5C7.776 79 8 79.224 8 79.5C8 79.776 7.776 80 7.5 80ZM14.5 80H10.5C10.224 80 10 79.776 10 79.5C10 79.224 10.224 79 10.5 79H14.5C14.776 79 15 79.224 15 79.5C15 79.776 14.776 80 14.5 80Z" fill="#D6E5F1"/>
<path fill-rule="evenodd" clip-rule="evenodd" d="M28.5 80H21.5C21.224 80 21 79.776 21 79.5C21 79.224 21.224 79 21.5 79H28.5C28.776 79 29 79.224 29 79.5C29 79.776 28.776 80 28.5 80ZM38.5 80H31.5C31.224 80 31 79.776 31 79.5C31 79.224 31.224 79 31.5 79H38.5C38.776 79 39 79.224 39 79.5C39 79.776 38.776 80 38.5 80ZM48.5 80H41.5C41.224 80 41 79.776 41 79.5C41 79.224 41.224 79 41.5 79H48.5C48.776 79 49 79.224 49 79.5C49 79.776 48.776 80 48.5 80ZM58.5 80H51.5C51.224 80 51 79.776 51 79.5C51 79.224 51.224 79 51.5 79H58.5C58.776 79 59 79.224 59 79.5C59 79.776 58.776 80 58.5 80ZM68.5 80H61.5C61.224 80 61 79.776 61 79.5C61 79.224 61.224 79 61.5 79H68.5C68.776 79 69 79.224 69 79.5C69 79.776 68.776 80 68.5 80ZM79.5 80H71.5C71.224 80 71 79.776 71 79.5C71 79.224 71.224 79 71.5 79H79.5C79.776 79 80 79.224 80 79.5C80 79.776 79.776 80 79.5 80Z" fill="#D6E5F1"/>
<path fill-rule="evenodd" clip-rule="evenodd" d="M61.0596 12.3594C60.7836 12.3594 60.5596 12.1354 60.5596 11.8594V8.9614H45.9996C45.7236 8.9614 45.4996 8.7374 45.4996 8.4614C45.4996 8.1844 45.7236 7.9614 45.9996 7.9614H61.0596C61.3356 7.9614 61.5596 8.1844 61.5596 8.4614V11.8594C61.5596 12.1354 61.3356 12.3594 61.0596 12.3594ZM61.0596 68.0004H8.1236C7.8476 68.0004 7.6236 67.7764 7.6236 67.5004V31.3334C7.6236 31.0564 7.8476 30.8334 8.1236 30.8334C8.3996 30.8334 8.6236 31.0564 8.6236 31.3334V67.0004H60.5596V50.7504C60.5596 50.4734 60.7836 50.2504 61.0596 50.2504C61.3356 50.2504 61.5596 50.4734 61.5596 50.7504V67.5004C61.5596 67.7764 61.3356 68.0004 61.0596 68.0004Z" fill="#84B0D7"/>
<path fill-rule="evenodd" clip-rule="evenodd" d="M76.6255 1.6875C76.6255 2.6195 77.3805 3.3745 78.3125 3.3745C79.2445 3.3745 80.0005 2.6195 80.0005 1.6875C80.0005 0.7555 79.2445 0.000499725 78.3125 0.000499725C77.3805 0.000499725 76.6255 0.7555 76.6255 1.6875Z" fill="#D6E5F1"/>
<path fill-rule="evenodd" clip-rule="evenodd" d="M74.7539 12.1279C74.7539 13.1619 75.5919 13.9999 76.6259 13.9999C77.6589 13.9999 78.4969 13.1619 78.4969 12.1279C78.4969 11.0949 77.6589 10.2569 76.6259 10.2569C75.5919 10.2569 74.7539 11.0949 74.7539 12.1279Z" fill="#D6E5F1"/>
<path fill-rule="evenodd" clip-rule="evenodd" d="M67.6753 0.717801C67.6753 1.0828 67.9713 1.3788 68.3363 1.3788C68.7013 1.3788 68.9983 1.0828 68.9983 0.717801C68.9983 0.352801 68.7013 0.0568008 68.3363 0.0568008C67.9713 0.0568008 67.6753 0.352801 67.6753 0.717801Z" fill="#C1E3FF"/>
<path fill-rule="evenodd" clip-rule="evenodd" d="M70.1758 5.7217C70.1758 6.3717 70.7028 6.8997 71.3538 6.8997C72.0038 6.8997 72.5308 6.3717 72.5308 5.7217C72.5308 5.0717 72.0038 4.5447 71.3538 4.5447C70.7028 4.5447 70.1758 5.0717 70.1758 5.7217Z" fill="#C1E3FF"/>
<path fill-rule="evenodd" clip-rule="evenodd" d="M60.647 3.165C60.647 3.686 60.225 4.107 59.705 4.107C59.184 4.107 58.763 3.686 58.763 3.165C58.763 2.644 59.184 2.223 59.705 2.223C60.225 2.223 60.647 2.644 60.647 3.165Z" fill="#D6E5F1"/>
<path fill-rule="evenodd" clip-rule="evenodd" d="M52.2012 2.752C52.2012 3.414 51.6642 3.951 51.0012 3.951C50.3392 3.951 49.8022 3.414 49.8022 2.752C49.8022 2.089 50.3392 1.552 51.0012 1.552C51.6642 1.552 52.2012 2.089 52.2012 2.752Z" fill="#C1E3FF"/>
<path fill-rule="evenodd" clip-rule="evenodd" d="M73.3521 33.126C73.2901 33.126 73.2281 33.114 73.1671 33.091L70.8361 32.164C70.5791 32.062 70.4541 31.772 70.5561 31.515C70.6581 31.258 70.9481 31.135 71.2051 31.234L73.5371 32.161C73.7931 32.264 73.9181 32.554 73.8171 32.811C73.7391 33.007 73.5511 33.126 73.3521 33.126Z" fill="#009EFB"/>
<path fill-rule="evenodd" clip-rule="evenodd" d="M74.9956 27.4004C74.9816 27.4004 74.9666 27.3994 74.9526 27.3984L72.4586 27.1824C72.1836 27.1594 71.9796 26.9174 72.0036 26.6414C72.0276 26.3664 72.2586 26.1634 72.5446 26.1864L75.0376 26.4024C75.3136 26.4254 75.5166 26.6684 75.4936 26.9434C75.4706 27.2044 75.2526 27.4004 74.9956 27.4004Z" fill="#009EFB"/>
<path fill-rule="evenodd" clip-rule="evenodd" d="M72.3003 22.2646C72.0833 22.2646 71.8833 22.1216 71.8203 21.9036C71.7433 21.6376 71.8963 21.3606 72.1623 21.2846L74.5713 20.5906C74.8373 20.5126 75.1133 20.6676 75.1893 20.9326C75.2653 21.1986 75.1133 21.4756 74.8473 21.5516L72.4383 22.2446C72.3923 22.2586 72.3453 22.2646 72.3003 22.2646Z" fill="#009EFB"/>
<path fill-rule="evenodd" clip-rule="evenodd" d="M70.2236 17.0859C70.0676 17.0859 69.9146 17.0139 69.8166 16.8769C69.6556 16.6519 69.7076 16.3409 69.9316 16.1799L71.9676 14.7209C72.1916 14.5589 72.5046 14.6099 72.6646 14.8359C72.8266 15.0609 72.7746 15.3719 72.5506 15.5329L70.5146 16.9919C70.4266 17.0559 70.3246 17.0859 70.2236 17.0859Z" fill="#009EFB"/>
<path fill-rule="evenodd" clip-rule="evenodd" d="M65.3779 12.2412C65.2769 12.2412 65.1739 12.2112 65.0859 12.1462C64.8619 11.9852 64.8119 11.6732 64.9729 11.4482L66.4369 9.4182C66.5979 9.1952 66.9109 9.1412 67.1349 9.3052C67.3589 9.4672 67.4099 9.7792 67.2489 10.0042L65.7839 12.0342C65.6859 12.1692 65.5329 12.2412 65.3779 12.2412Z" fill="#009EFB"/>
</g>
</g>
<defs>
<clipPath id="clip0_88_1806">
<rect width="80" height="80" fill="white"/>
</clipPath>
</defs>
</svg>
