<svg width="80" height="80" viewBox="0 0 80 80" fill="none" xmlns="http://www.w3.org/2000/svg">
<g clip-path="url(#clip0_88_1807)">
<path fill-rule="evenodd" clip-rule="evenodd" d="M4 29.0001H9V24.0001H4V29.0001ZM1 32.0001H43V21.0001H1V32.0001Z" fill="#C1E3FF"/>
<mask id="mask0_88_1807" style="mask-type:alpha" maskUnits="userSpaceOnUse" x="0" y="0" width="80" height="80">
<path d="M40 80H80V9.91821e-05H0V80H40Z" fill="white"/>
</mask>
<g mask="url(#mask0_88_1807)">
<path fill-rule="evenodd" clip-rule="evenodd" d="M1.5 31.5001H42.5V21.5001H1.5V31.5001ZM43 32.5001H1C0.724 32.5001 0.5 32.2761 0.5 32.0001V21.0001C0.5 20.7241 0.724 20.5001 1 20.5001H43C43.276 20.5001 43.5 20.7241 43.5 21.0001V32.0001C43.5 32.2761 43.276 32.5001 43 32.5001Z" fill="#297CBB"/>
<path fill-rule="evenodd" clip-rule="evenodd" d="M4.75 39.2501H8.75V35.2501H4.75V39.2501ZM9.25 40.2501H4.25C3.974 40.2501 3.75 40.0261 3.75 39.7501V34.7501C3.75 34.4741 3.974 34.2501 4.25 34.2501H9.25C9.526 34.2501 9.75 34.4741 9.75 34.7501V39.7501C9.75 40.0261 9.526 40.2501 9.25 40.2501Z" fill="#C1E3FF"/>
<path fill-rule="evenodd" clip-rule="evenodd" d="M39.25 35.7501H12.25C11.974 35.7501 11.75 35.5261 11.75 35.2501C11.75 34.9741 11.974 34.7501 12.25 34.7501H39.25C39.526 34.7501 39.75 34.9741 39.75 35.2501C39.75 35.5261 39.526 35.7501 39.25 35.7501Z" fill="#C1E3FF"/>
<path fill-rule="evenodd" clip-rule="evenodd" d="M33.25 39.7501H12.25C11.974 39.7501 11.75 39.5261 11.75 39.2501C11.75 38.9741 11.974 38.7501 12.25 38.7501H33.25C33.526 38.7501 33.75 38.9741 33.75 39.2501C33.75 39.5261 33.526 39.7501 33.25 39.7501Z" fill="#C1E3FF"/>
<path fill-rule="evenodd" clip-rule="evenodd" d="M4.75 28.5001H8.75V24.5001H4.75V28.5001ZM9.25 29.5001H4.25C3.974 29.5001 3.75 29.2761 3.75 29.0001V24.0001C3.75 23.7241 3.974 23.5001 4.25 23.5001H9.25C9.526 23.5001 9.75 23.7241 9.75 24.0001V29.0001C9.75 29.2761 9.526 29.5001 9.25 29.5001Z" fill="#297CBB"/>
<path fill-rule="evenodd" clip-rule="evenodd" d="M39.25 25.0001H12.25C11.974 25.0001 11.75 24.7761 11.75 24.5001C11.75 24.2241 11.974 24.0001 12.25 24.0001H39.25C39.526 24.0001 39.75 24.2241 39.75 24.5001C39.75 24.7761 39.526 25.0001 39.25 25.0001Z" fill="#297CBB"/>
<path fill-rule="evenodd" clip-rule="evenodd" d="M39.25 29.0001H12.25C11.974 29.0001 11.75 28.7761 11.75 28.5001C11.75 28.2241 11.974 28.0001 12.25 28.0001H39.25C39.526 28.0001 39.75 28.2241 39.75 28.5001C39.75 28.7761 39.526 29.0001 39.25 29.0001Z" fill="#297CBB"/>
<path fill-rule="evenodd" clip-rule="evenodd" d="M4.75 47.2501H8.75V43.2501H4.75V47.2501ZM9.25 48.2501H4.25C3.974 48.2501 3.75 48.0261 3.75 47.7501V42.7501C3.75 42.4741 3.974 42.2501 4.25 42.2501H9.25C9.526 42.2501 9.75 42.4741 9.75 42.7501V47.7501C9.75 48.0261 9.526 48.2501 9.25 48.2501Z" fill="#C1E3FF"/>
<path fill-rule="evenodd" clip-rule="evenodd" d="M36.25 43.7501H12.25C11.974 43.7501 11.75 43.5261 11.75 43.2501C11.75 42.9741 11.974 42.7501 12.25 42.7501H36.25C36.526 42.7501 36.75 42.9741 36.75 43.2501C36.75 43.5261 36.526 43.7501 36.25 43.7501Z" fill="#C1E3FF"/>
<path fill-rule="evenodd" clip-rule="evenodd" d="M30.25 47.7501H12.25C11.974 47.7501 11.75 47.5261 11.75 47.2501C11.75 46.9741 11.974 46.7501 12.25 46.7501H30.25C30.526 46.7501 30.75 46.9741 30.75 47.2501C30.75 47.5261 30.526 47.7501 30.25 47.7501Z" fill="#C1E3FF"/>
<path fill-rule="evenodd" clip-rule="evenodd" d="M61.0596 68H8.1236C7.8476 68 7.6236 67.776 7.6236 67.5V51.583C7.6236 51.306 7.8476 51.083 8.1236 51.083C8.3996 51.083 8.6236 51.306 8.6236 51.583V67H60.5596V8.961H8.6236V16.75C8.6236 17.026 8.3996 17.25 8.1236 17.25C7.8476 17.25 7.6236 17.026 7.6236 16.75V8.461C7.6236 8.185 7.8476 7.961 8.1236 7.961H61.0596C61.3356 7.961 61.5596 8.185 61.5596 8.461V67.5C61.5596 67.776 61.3356 68 61.0596 68Z" fill="#84B0D7"/>
<path fill-rule="evenodd" clip-rule="evenodd" d="M24.8984 58.0065C24.8374 58.0065 24.7754 57.9955 24.7154 57.9715C24.4594 57.8715 24.3324 57.5805 24.4334 57.3235L25.2434 55.2575C25.3444 55.0005 25.6344 54.8755 25.8914 54.9755C26.1484 55.0755 26.2754 55.3665 26.1744 55.6235L25.3634 57.6895C25.2864 57.8865 25.0984 58.0065 24.8984 58.0065Z" fill="#009EFB"/>
<path fill-rule="evenodd" clip-rule="evenodd" d="M29.9692 59.4367C29.9552 59.4367 29.9422 59.4367 29.9272 59.4357C29.6532 59.4127 29.4482 59.1707 29.4702 58.8957L29.6512 56.6897C29.6742 56.4157 29.9102 56.2147 30.1902 56.2327C30.4652 56.2557 30.6702 56.4967 30.6482 56.7717L30.4672 58.9777C30.4462 59.2387 30.2272 59.4367 29.9692 59.4367Z" fill="#009EFB"/>
<path fill-rule="evenodd" clip-rule="evenodd" d="M35.1216 59.1608C34.9046 59.1608 34.7056 59.0188 34.6416 58.8008L34.0196 56.6738C33.9416 56.4088 34.0946 56.1308 34.3596 56.0538C34.6236 55.9758 34.9016 56.1278 34.9796 56.3928L35.6016 58.5208C35.6796 58.7858 35.5266 59.0628 35.2616 59.1408C35.2146 59.1548 35.1676 59.1608 35.1216 59.1608Z" fill="#009EFB"/>
<path fill-rule="evenodd" clip-rule="evenodd" d="M40.3691 56.9704C40.2141 56.9704 40.0611 56.8984 39.9631 56.7634L38.6651 54.9694C38.5041 54.7454 38.5541 54.4324 38.7781 54.2704C39.0011 54.1084 39.3141 54.1584 39.4761 54.3834L40.7741 56.1774C40.9351 56.4014 40.8851 56.7134 40.6611 56.8754C40.5731 56.9394 40.4711 56.9704 40.3691 56.9704Z" fill="#009EFB"/>
<path fill-rule="evenodd" clip-rule="evenodd" d="M43.7715 37.1022C43.6105 37.1022 43.4535 37.0252 43.3565 36.8822C43.2025 36.6532 43.2625 36.3422 43.4915 36.1872L45.3315 34.9452C45.5605 34.7922 45.8715 34.8512 46.0255 35.0802C46.1805 35.3092 46.1205 35.6202 45.8915 35.7742L44.0505 37.0172C43.9645 37.0742 43.8675 37.1022 43.7715 37.1022Z" fill="#009EFB"/>
<path fill-rule="evenodd" clip-rule="evenodd" d="M45.1362 52.1598C45.0352 52.1598 44.9342 52.1298 44.8462 52.0668L43.0452 50.7798C42.8202 50.6188 42.7682 50.3068 42.9292 50.0818C43.0902 49.8578 43.4032 49.8058 43.6262 49.9658L45.4272 51.2528C45.6522 51.4138 45.7042 51.7258 45.5432 51.9508C45.4462 52.0868 45.2922 52.1598 45.1362 52.1598Z" fill="#009EFB"/>
<path fill-rule="evenodd" clip-rule="evenodd" d="M47.3501 46.5656C47.3291 46.5656 47.3081 46.5646 47.2871 46.5616L45.0881 46.2816C44.8141 46.2466 44.6211 45.9966 44.6551 45.7226C44.6901 45.4496 44.9451 45.2636 45.2141 45.2896L47.4121 45.5696C47.6861 45.6046 47.8801 45.8546 47.8461 46.1286C47.8131 46.3806 47.5981 46.5656 47.3501 46.5656Z" fill="#009EFB"/>
<path fill-rule="evenodd" clip-rule="evenodd" d="M45.2432 41.4694C45.0152 41.4694 44.8102 41.3134 44.7572 41.0824C44.6942 40.8134 44.8622 40.5444 45.1302 40.4824L47.2882 39.9814C47.5572 39.9194 47.8262 40.0864 47.8882 40.3554C47.9512 40.6244 47.7832 40.8934 47.5142 40.9554L45.3572 41.4564C45.3192 41.4654 45.2812 41.4694 45.2432 41.4694Z" fill="#009EFB"/>
<path fill-rule="evenodd" clip-rule="evenodd" d="M20.5181 54.7638C20.3821 54.7638 20.2461 54.7078 20.1471 54.5988C19.9621 54.3938 19.9781 54.0778 20.1831 53.8928L21.8261 52.4098C22.0301 52.2248 22.3471 52.2408 22.5321 52.4458C22.7171 52.6508 22.7011 52.9668 22.4961 53.1518L20.8531 54.6348C20.7571 54.7218 20.6381 54.7638 20.5181 54.7638Z" fill="#009EFB"/>
<path fill-rule="evenodd" clip-rule="evenodd" d="M28 77.0001H10C9.724 77.0001 9.5 76.7761 9.5 76.5001C9.5 76.2241 9.724 76.0001 10 76.0001H28C28.276 76.0001 28.5 76.2241 28.5 76.5001C28.5 76.7761 28.276 77.0001 28 77.0001ZM49 77.0001H31C30.724 77.0001 30.5 76.7761 30.5 76.5001C30.5 76.2241 30.724 76.0001 31 76.0001H49C49.276 76.0001 49.5 76.2241 49.5 76.5001C49.5 76.7761 49.276 77.0001 49 77.0001ZM54 77.0001H52C51.724 77.0001 51.5 76.7761 51.5 76.5001C51.5 76.2241 51.724 76.0001 52 76.0001H54C54.276 76.0001 54.5 76.2241 54.5 76.5001C54.5 76.7761 54.276 77.0001 54 77.0001Z" fill="#D6E5F1"/>
<path fill-rule="evenodd" clip-rule="evenodd" d="M72.5 77.0001H60.5C60.224 77.0001 60 76.7761 60 76.5001C60 76.2241 60.224 76.0001 60.5 76.0001H72.5C72.776 76.0001 73 76.2241 73 76.5001C73 76.7761 72.776 77.0001 72.5 77.0001Z" fill="#D6E5F1"/>
<path fill-rule="evenodd" clip-rule="evenodd" d="M7.5 80.0001H0.5C0.224 80.0001 0 79.7761 0 79.5001C0 79.2241 0.224 79.0001 0.5 79.0001H7.5C7.776 79.0001 8 79.2241 8 79.5001C8 79.7761 7.776 80.0001 7.5 80.0001ZM14.5 80.0001H10.5C10.224 80.0001 10 79.7761 10 79.5001C10 79.2241 10.224 79.0001 10.5 79.0001H14.5C14.776 79.0001 15 79.2241 15 79.5001C15 79.7761 14.776 80.0001 14.5 80.0001Z" fill="#D6E5F1"/>
<path fill-rule="evenodd" clip-rule="evenodd" d="M28.5 80.0001H21.5C21.224 80.0001 21 79.7761 21 79.5001C21 79.2241 21.224 79.0001 21.5 79.0001H28.5C28.776 79.0001 29 79.2241 29 79.5001C29 79.7761 28.776 80.0001 28.5 80.0001ZM38.5 80.0001H31.5C31.224 80.0001 31 79.7761 31 79.5001C31 79.2241 31.224 79.0001 31.5 79.0001H38.5C38.776 79.0001 39 79.2241 39 79.5001C39 79.7761 38.776 80.0001 38.5 80.0001ZM48.5 80.0001H41.5C41.224 80.0001 41 79.7761 41 79.5001C41 79.2241 41.224 79.0001 41.5 79.0001H48.5C48.776 79.0001 49 79.2241 49 79.5001C49 79.7761 48.776 80.0001 48.5 80.0001ZM58.5 80.0001H51.5C51.224 80.0001 51 79.7761 51 79.5001C51 79.2241 51.224 79.0001 51.5 79.0001H58.5C58.776 79.0001 59 79.2241 59 79.5001C59 79.7761 58.776 80.0001 58.5 80.0001ZM68.5 80.0001H61.5C61.224 80.0001 61 79.7761 61 79.5001C61 79.2241 61.224 79.0001 61.5 79.0001H68.5C68.776 79.0001 69 79.2241 69 79.5001C69 79.7761 68.776 80.0001 68.5 80.0001ZM79.5 80.0001H71.5C71.224 80.0001 71 79.7761 71 79.5001C71 79.2241 71.224 79.0001 71.5 79.0001H79.5C79.776 79.0001 80 79.2241 80 79.5001C80 79.7761 79.776 80.0001 79.5 80.0001Z" fill="#D6E5F1"/>
<path fill-rule="evenodd" clip-rule="evenodd" d="M66.0596 72.5H14.4996C14.2236 72.5 13.9996 72.276 13.9996 72C13.9996 71.724 14.2236 71.5 14.4996 71.5H65.5596V14.5C65.5596 14.224 65.7836 14 66.0596 14C66.3356 14 66.5596 14.224 66.5596 14.5V72C66.5596 72.276 66.3356 72.5 66.0596 72.5Z" fill="#84B0D7"/>
<path fill-rule="evenodd" clip-rule="evenodd" d="M76.6255 1.6871C76.6255 2.6191 77.3805 3.3741 78.3125 3.3741C79.2445 3.3741 80.0005 2.6191 80.0005 1.6871C80.0005 0.755099 79.2445 9.91821e-05 78.3125 9.91821e-05C77.3805 9.91821e-05 76.6255 0.755099 76.6255 1.6871Z" fill="#D6E5F1"/>
<path fill-rule="evenodd" clip-rule="evenodd" d="M74.7539 20.1286C74.7539 21.1626 75.5919 22.0006 76.6259 22.0006C77.6589 22.0006 78.4969 21.1626 78.4969 20.1286C78.4969 19.0946 77.6589 18.2566 76.6259 18.2566C75.5919 18.2566 74.7539 19.0946 74.7539 20.1286Z" fill="#C1E3FF"/>
<path fill-rule="evenodd" clip-rule="evenodd" d="M67.6753 0.717801C67.6753 1.0828 67.9713 1.3798 68.3363 1.3798C68.7013 1.3798 68.9983 1.0828 68.9983 0.717801C68.9983 0.352801 68.7013 0.0568008 68.3363 0.0568008C67.9713 0.0568008 67.6753 0.352801 67.6753 0.717801Z" fill="#D6E5F1"/>
<path fill-rule="evenodd" clip-rule="evenodd" d="M72.1758 6.7222C72.1758 7.3722 72.7028 7.8992 73.3538 7.8992C74.0038 7.8992 74.5308 7.3722 74.5308 6.7222C74.5308 6.0722 74.0038 5.5442 73.3538 5.5442C72.7028 5.5442 72.1758 6.0722 72.1758 6.7222Z" fill="#C1E3FF"/>
<path fill-rule="evenodd" clip-rule="evenodd" d="M60.647 3.1652C60.647 3.6862 60.225 4.1072 59.705 4.1072C59.184 4.1072 58.763 3.6862 58.763 3.1652C58.763 2.6442 59.184 2.2232 59.705 2.2232C60.225 2.2232 60.647 2.6442 60.647 3.1652Z" fill="#C1E3FF"/>
<path fill-rule="evenodd" clip-rule="evenodd" d="M67.3696 9.3877C67.3696 9.7657 67.0626 10.0727 66.6846 10.0727C66.3066 10.0727 65.9996 9.7657 65.9996 9.3877C65.9996 9.0097 66.3066 8.7027 66.6846 8.7027C67.0626 8.7027 67.3696 9.0097 67.3696 9.3877Z" fill="#D6E5F1"/>
<path fill-rule="evenodd" clip-rule="evenodd" d="M52.2012 2.752C52.2012 3.415 51.6642 3.951 51.0012 3.951C50.3392 3.951 50.0002 3.663 50.0002 3C50.0002 2.337 50.3392 1.552 51.0012 1.552C51.6642 1.552 52.2012 2.089 52.2012 2.752Z" fill="#D6E5F1"/>
</g>
</g>
<defs>
<clipPath id="clip0_88_1807">
<rect width="80" height="80" fill="white"/>
</clipPath>
</defs>
</svg>
