<svg width="160" height="160" viewBox="0 0 160 160" fill="none" xmlns="http://www.w3.org/2000/svg">
<path fill-rule="evenodd" clip-rule="evenodd" d="M122.246 71.6514L92.2169 122.689H152.27L122.246 71.6514ZM122.246 83.4301L141.876 116.801H102.613L122.246 83.4301Z" fill="#DADDE0"/>
<mask id="mask0_88_2217" style="mask-type:alpha" maskUnits="userSpaceOnUse" x="0" y="0" width="7" height="7">
<path d="M0.000198364 0H6.74983V6.62479H0.000198364V0Z" fill="white"/>
</mask>
<g mask="url(#mask0_88_2217)">
<path fill-rule="evenodd" clip-rule="evenodd" d="M6.74983 3.3122C6.74983 5.14133 5.23872 6.62479 3.376 6.62479C1.51131 6.62479 0.000198364 5.14133 0.000198364 3.3122C0.000198364 1.48306 1.51131 -0.000396729 3.376 -0.000396729C5.23872 -0.000396729 6.74983 1.48306 6.74983 3.3122Z" fill="#B8C0C4"/>
</g>
<path fill-rule="evenodd" clip-rule="evenodd" d="M10.494 31.6608C10.494 33.6895 8.81699 35.3349 6.74884 35.3349C4.68267 35.3349 3.00563 33.6895 3.00563 31.6608C3.00563 29.6322 4.68267 27.9868 6.74884 27.9868C8.81699 27.9868 10.494 29.6322 10.494 31.6608Z" fill="#8E969B"/>
<path fill-rule="evenodd" clip-rule="evenodd" d="M24.653 1.41017C24.653 2.12524 24.0604 2.70795 23.3296 2.70795C22.6007 2.70795 22.0081 2.12524 22.0081 1.41017C22.0081 0.693137 22.6007 0.112396 23.3296 0.112396C24.0604 0.112396 24.653 0.693137 24.653 1.41017Z" fill="#B8C0C4"/>
<path fill-rule="evenodd" clip-rule="evenodd" d="M17.6508 15.1581C17.6508 16.4342 16.596 17.4692 15.2962 17.4692C13.9945 17.4692 12.9397 16.4342 12.9397 15.1581C12.9397 13.8821 13.9945 12.847 15.2962 12.847C16.596 12.847 17.6508 13.8821 17.6508 15.1581Z" fill="#8E969B"/>
<path fill-rule="evenodd" clip-rule="evenodd" d="M38.7117 6.21334C38.7117 7.23457 39.5571 8.0642 40.5961 8.0642C41.6371 8.0642 42.4806 7.23457 42.4806 6.21334C42.4806 5.19013 41.6371 4.36247 40.5961 4.36247C39.5571 4.36247 38.7117 5.19013 38.7117 6.21334Z" fill="#B8C0C4"/>
<path fill-rule="evenodd" clip-rule="evenodd" d="M55.6059 5.40128C55.6059 6.70301 56.6805 7.75585 58.0059 7.75585C59.3314 7.75585 60.4059 6.70301 60.4059 5.40128C60.4059 4.10153 59.3314 3.04869 58.0059 3.04869C56.6805 3.04869 55.6059 4.10153 55.6059 5.40128Z" fill="#8E969B"/>
<path fill-rule="evenodd" clip-rule="evenodd" d="M122.02 141.339H10.0022C9.44909 141.339 9.00069 140.898 9.00069 140.357V42.204C9.00069 41.6628 9.44909 41.2223 10.0022 41.2223H122.02C122.571 41.2223 123.019 41.6628 123.019 42.204V61.8366C123.019 62.3779 122.571 62.8164 122.02 62.8164C121.467 62.8164 121.018 62.3779 121.018 61.8366V43.1878H11.0017V139.375H121.018V130.542C121.018 130.001 121.467 129.56 122.02 129.56C122.571 129.56 123.019 130.001 123.019 130.542V140.357C123.019 140.898 122.571 141.339 122.02 141.339Z" fill="#8E969B"/>
<path fill-rule="evenodd" clip-rule="evenodd" d="M121.019 54.9653H10.0024C9.44928 54.9653 9.00089 54.5248 9.00089 53.9836C9.00089 53.4424 9.44928 53.0019 10.0024 53.0019H121.019C121.572 53.0019 122.02 53.4424 122.02 53.9836C122.02 54.5248 121.572 54.9653 121.019 54.9653Z" fill="#8E969B"/>
<path fill-rule="evenodd" clip-rule="evenodd" d="M42.0063 54.9653C41.4552 54.9653 41.0068 54.5248 41.0068 53.9836V42.2048C41.0068 41.6636 41.4552 41.2231 42.0063 41.2231C42.5594 41.2231 43.0078 41.6636 43.0078 42.2048V53.9836C43.0078 54.5248 42.5594 54.9653 42.0063 54.9653Z" fill="#8E969B"/>
<path fill-rule="evenodd" clip-rule="evenodd" d="M32.0045 48.0942C32.0045 47.0098 32.9013 46.1327 34.0055 46.1327C35.1097 46.1327 36.0045 47.0098 36.0045 48.0942C36.0045 49.1787 35.1097 50.0577 34.0055 50.0577C32.9013 50.0577 32.0045 49.1787 32.0045 48.0942Z" fill="#8E969B"/>
<path fill-rule="evenodd" clip-rule="evenodd" d="M24.003 48.0942C24.003 47.0098 24.8998 46.1327 26.004 46.1327C27.1081 46.1327 28.003 47.0098 28.003 48.0942C28.003 49.1787 27.1081 50.0577 26.004 50.0577C24.8998 50.0577 24.003 49.1787 24.003 48.0942Z" fill="#8E969B"/>
<path fill-rule="evenodd" clip-rule="evenodd" d="M16.0034 48.0942C16.0034 47.0098 16.8982 46.1327 18.0043 46.1327C19.1066 46.1327 20.0034 47.0098 20.0034 48.0942C20.0034 49.1787 19.1066 50.0577 18.0043 50.0577C16.8982 50.0577 16.0034 49.1787 16.0034 48.0942Z" fill="#8E969B"/>
<path fill-rule="evenodd" clip-rule="evenodd" d="M144.022 88.3372C143.471 88.3372 143.023 87.8967 143.023 87.3555V17.6685H33.0058V36.3155C33.0058 36.8587 32.5574 37.2972 32.0043 37.2972C31.4532 37.2972 31.0048 36.8587 31.0048 36.3155V16.6868C31.0048 16.1436 31.4532 15.7031 32.0043 15.7031H144.022C144.575 15.7031 145.024 16.1436 145.024 16.6868V87.3555C145.024 87.8967 144.575 88.3372 144.022 88.3372Z" fill="#B8C0C4"/>
<path fill-rule="evenodd" clip-rule="evenodd" d="M143.023 29.4463H32.0047C31.4536 29.4463 31.0052 29.0058 31.0052 28.4646C31.0052 27.9234 31.4536 27.4829 32.0047 27.4829H143.023C143.574 27.4829 144.023 27.9234 144.023 28.4646C144.023 29.0058 143.574 29.4463 143.023 29.4463Z" fill="#B8C0C4"/>
<path fill-rule="evenodd" clip-rule="evenodd" d="M64.0107 29.4463C63.4576 29.4463 63.0092 29.0058 63.0092 28.4646V16.6858C63.0092 16.1446 63.4576 15.7041 64.0107 15.7041C64.5618 15.7041 65.0102 16.1446 65.0102 16.6858V28.4646C65.0102 29.0058 64.5618 29.4463 64.0107 29.4463Z" fill="#B8C0C4"/>
<path fill-rule="evenodd" clip-rule="evenodd" d="M54.0087 22.5752C54.0087 21.4908 54.9035 20.6118 56.0097 20.6118C57.1139 20.6118 58.0087 21.4908 58.0087 22.5752C58.0087 23.6597 57.1139 24.5387 56.0097 24.5387C54.9035 24.5387 54.0087 23.6597 54.0087 22.5752Z" fill="#B8C0C4"/>
<path fill-rule="evenodd" clip-rule="evenodd" d="M46.0071 22.5752C46.0071 21.4908 46.9019 20.6118 48.0081 20.6118C49.1123 20.6118 50.0071 21.4908 50.0071 22.5752C50.0071 23.6597 49.1123 24.5387 48.0081 24.5387C46.9019 24.5387 46.0071 23.6597 46.0071 22.5752Z" fill="#B8C0C4"/>
<path fill-rule="evenodd" clip-rule="evenodd" d="M38.0055 22.5752C38.0055 21.4908 38.9003 20.6118 40.0065 20.6118C41.1107 20.6118 42.0055 21.4908 42.0055 22.5752C42.0055 23.6597 41.1107 24.5387 40.0065 24.5387C38.9003 24.5387 38.0055 23.6597 38.0055 22.5752Z" fill="#B8C0C4"/>
<path fill-rule="evenodd" clip-rule="evenodd" d="M56.0091 152.136H20.0032C19.4501 152.136 19.0037 151.695 19.0037 151.154C19.0037 150.613 19.4501 150.172 20.0032 150.172H56.0091C56.5602 150.172 57.0086 150.613 57.0086 151.154C57.0086 151.695 56.5602 152.136 56.0091 152.136ZM98.016 152.136H62.0101C61.457 152.136 61.0086 151.695 61.0086 151.154C61.0086 150.613 61.457 150.172 62.0101 150.172H98.016C98.5691 150.172 99.0155 150.613 99.0155 151.154C99.0155 151.695 98.5691 152.136 98.016 152.136ZM108.017 152.136H104.017C103.462 152.136 103.016 151.695 103.016 151.154C103.016 150.613 103.462 150.172 104.017 150.172H108.017C108.568 150.172 109.016 150.613 109.016 151.154C109.016 151.695 108.568 152.136 108.017 152.136Z" fill="#EDF1F4"/>
<path fill-rule="evenodd" clip-rule="evenodd" d="M145.023 152.136H121.019C120.466 152.136 120.02 151.695 120.02 151.154C120.02 150.613 120.466 150.172 121.019 150.172H145.023C145.575 150.172 146.023 150.613 146.023 151.154C146.023 151.695 145.575 152.136 145.023 152.136Z" fill="#EDF1F4"/>
<mask id="mask1_88_2217" style="mask-type:alpha" maskUnits="userSpaceOnUse" x="0" y="156" width="31" height="3">
<path d="M0 156.061H30.0045V158.025H0V156.061Z" fill="white"/>
</mask>
<g mask="url(#mask1_88_2217)">
<path fill-rule="evenodd" clip-rule="evenodd" d="M15.0021 158.025H0.999111C0.448 158.025 -0.000394821 157.584 -0.000394821 157.043C-0.000394821 156.502 0.448 156.061 0.999111 156.061H15.0021C15.5552 156.061 16.0036 156.502 16.0036 157.043C16.0036 157.584 15.5552 158.025 15.0021 158.025ZM29.005 158.025H21.0031C20.45 158.025 20.0036 157.584 20.0036 157.043C20.0036 156.502 20.45 156.061 21.0031 156.061H29.005C29.5561 156.061 30.0045 156.502 30.0045 157.043C30.0045 157.584 29.5561 158.025 29.005 158.025Z" fill="#EDF1F4"/>
</g>
<mask id="mask2_88_2217" style="mask-type:alpha" maskUnits="userSpaceOnUse" x="42" y="156" width="117" height="3">
<path d="M42.0059 156.061H158.025V158.025H42.0059V156.061Z" fill="white"/>
</mask>
<g mask="url(#mask2_88_2217)">
<path fill-rule="evenodd" clip-rule="evenodd" d="M57.0084 158.025H43.0074C42.4543 158.025 42.0059 157.584 42.0059 157.043C42.0059 156.502 42.4543 156.061 43.0074 156.061H57.0084C57.5615 156.061 58.0099 156.502 58.0099 157.043C58.0099 157.584 57.5615 158.025 57.0084 158.025ZM77.0123 158.025H63.0094C62.4583 158.025 62.0099 157.584 62.0099 157.043C62.0099 156.502 62.4583 156.061 63.0094 156.061H77.0123C77.5654 156.061 78.0118 156.502 78.0118 157.043C78.0118 157.584 77.5654 158.025 77.0123 158.025ZM97.0163 158.025H83.0133C82.4602 158.025 82.0118 157.584 82.0118 157.043C82.0118 156.502 82.4602 156.061 83.0133 156.061H97.0163C97.5674 156.061 98.0158 156.502 98.0158 157.043C98.0158 157.584 97.5674 158.025 97.0163 158.025ZM117.018 158.025H103.015C102.464 158.025 102.016 157.584 102.016 157.043C102.016 156.502 102.464 156.061 103.015 156.061H117.018C117.571 156.061 118.02 156.502 118.02 157.043C118.02 157.584 117.571 158.025 117.018 158.025ZM137.022 158.025H123.019C122.466 158.025 122.02 157.584 122.02 157.043C122.02 156.502 122.466 156.061 123.019 156.061H137.022C137.573 156.061 138.022 156.502 138.022 157.043C138.022 157.584 137.573 158.025 137.022 158.025ZM157.024 158.025H143.023C142.47 158.025 142.022 157.584 142.022 157.043C142.022 156.502 142.47 156.061 143.023 156.061H157.024C157.577 156.061 158.026 156.502 158.026 157.043C158.026 157.584 157.577 158.025 157.024 158.025Z" fill="#EDF1F4"/>
</g>
<path fill-rule="evenodd" clip-rule="evenodd" d="M93.9508 121.709H150.537L122.243 73.6124L93.9508 121.709ZM152.272 123.671H92.2165C91.859 123.671 91.5291 123.483 91.3533 123.181C91.1735 122.879 91.1735 122.501 91.3533 122.199L121.378 71.1591C121.734 70.5547 122.753 70.5547 123.11 71.1591L153.137 122.199C153.317 122.501 153.317 122.879 153.137 123.181C152.959 123.483 152.629 123.671 152.272 123.671Z" fill="#586575"/>
<path fill-rule="evenodd" clip-rule="evenodd" d="M123.768 111.273C123.572 111.467 123.333 111.617 123.07 111.724C122.679 111.892 122.245 111.937 121.81 111.85C121.678 111.828 121.547 111.787 121.395 111.724C121.288 111.68 121.156 111.617 121.024 111.53C120.917 111.467 120.807 111.36 120.698 111.273C120.287 110.868 120.068 110.313 120.068 109.756C120.068 109.201 120.287 108.646 120.698 108.241C120.807 108.154 120.917 108.048 121.024 107.984C121.156 107.899 121.288 107.834 121.395 107.791C121.547 107.728 121.678 107.686 121.81 107.664C121.962 107.643 122.09 107.621 122.245 107.621C122.527 107.621 122.811 107.686 123.07 107.791C123.333 107.899 123.572 108.048 123.768 108.241C124.182 108.646 124.421 109.201 124.421 109.756C124.421 110.313 124.182 110.868 123.768 111.273Z" fill="#586575"/>
<path fill-rule="evenodd" clip-rule="evenodd" d="M124.657 102.546C124.657 104.17 123.576 105.484 122.245 105.484C120.912 105.484 119.833 104.17 119.833 102.546L118.867 96.6718C118.867 95.0481 120.912 93.7345 122.245 93.7345C123.576 93.7345 125.621 95.0481 125.621 96.6718L124.657 102.546Z" fill="#586575"/>
<mask id="mask3_88_2217" style="mask-type:alpha" maskUnits="userSpaceOnUse" x="0" y="0" width="159" height="159">
<path d="M0 158.025H158.025V0H0V158.025Z" fill="white"/>
</mask>
<g mask="url(#mask3_88_2217)">
<path fill-rule="evenodd" clip-rule="evenodd" d="M18.9906 93.2385H27.0143V85.3985H18.9906V93.2385ZM28.004 95.2138H18.003C17.4578 95.2138 17.0153 94.7733 17.0153 94.2262V84.4109C17.0153 83.8657 17.4578 83.4232 18.003 83.4232H28.004C28.5491 83.4232 28.9916 83.8657 28.9916 84.4109V94.2262C28.9916 94.7733 28.5491 95.2138 28.004 95.2138Z" fill="#B8C0C4"/>
<path fill-rule="evenodd" clip-rule="evenodd" d="M86.013 86.3793H34.0051C33.4599 86.3793 33.0175 85.9368 33.0175 85.3916C33.0175 84.8464 33.4599 84.404 34.0051 84.404H86.013C86.5582 84.404 87.0007 84.8464 87.0007 85.3916C87.0007 85.9368 86.5582 86.3793 86.013 86.3793Z" fill="#B8C0C4"/>
<path fill-rule="evenodd" clip-rule="evenodd" d="M76.013 94.2323H34.0041C33.459 94.2323 33.0165 93.7898 33.0165 93.2446C33.0165 92.6995 33.459 92.257 34.0041 92.257H76.013C76.5582 92.257 77.0007 92.6995 77.0007 93.2446C77.0007 93.7898 76.5582 94.2323 76.013 94.2323Z" fill="#B8C0C4"/>
<path fill-rule="evenodd" clip-rule="evenodd" d="M18.9906 108.942H27.0143V101.102H18.9906V108.942ZM28.004 110.918H18.003C17.4578 110.918 17.0153 110.477 17.0153 109.93V100.117C17.0153 99.5694 17.4578 99.1289 18.003 99.1289H28.004C28.5491 99.1289 28.9916 99.5694 28.9916 100.117V109.93C28.9916 110.477 28.5491 110.918 28.004 110.918Z" fill="#B8C0C4"/>
<path fill-rule="evenodd" clip-rule="evenodd" d="M82.0122 102.083H34.0043C33.4592 102.083 33.0167 101.641 33.0167 101.096C33.0167 100.551 33.4592 100.108 34.0043 100.108H82.0122C82.5574 100.108 82.9999 100.551 82.9999 101.096C82.9999 101.641 82.5574 102.083 82.0122 102.083Z" fill="#B8C0C4"/>
<path fill-rule="evenodd" clip-rule="evenodd" d="M72.0122 109.936H34.0053C33.4582 109.936 33.0177 109.494 33.0177 108.949C33.0177 108.404 33.4582 107.961 34.0053 107.961H72.0122C72.5574 107.961 72.9999 108.404 72.9999 108.949C72.9999 109.494 72.5574 109.936 72.0122 109.936Z" fill="#B8C0C4"/>
</g>
</svg>
