<svg width="160" height="160" viewBox="0 0 160 160" fill="none" xmlns="http://www.w3.org/2000/svg">
<g clip-path="url(#clip0_88_2218)">
<path fill-rule="evenodd" clip-rule="evenodd" d="M6.75 3.37501C6.75 5.23901 5.238 6.74901 3.376 6.74901C1.512 6.74901 0 5.23901 0 3.37501C0 1.51101 1.512 0.00100708 3.376 0.00100708C5.238 0.00100708 6.75 1.51101 6.75 3.37501Z" fill="#B8C0C4"/>
<path fill-rule="evenodd" clip-rule="evenodd" d="M10.4922 32.2558C10.4922 34.3238 8.81619 35.9998 6.75019 35.9998C4.68219 35.9998 3.0062 34.3238 3.0062 32.2558C3.0062 30.1898 4.68219 28.5138 6.75019 28.5138C8.81619 28.5138 10.4922 30.1898 10.4922 32.2558Z" fill="#8E969B"/>
<path fill-rule="evenodd" clip-rule="evenodd" d="M24.6504 1.4356C24.6504 2.1656 24.0564 2.7576 23.3264 2.7576C22.5964 2.7576 22.0044 2.1656 22.0044 1.4356C22.0044 0.705602 22.5964 0.113602 23.3264 0.113602C24.0564 0.113602 24.6504 0.705602 24.6504 1.4356Z" fill="#B8C0C4"/>
<path fill-rule="evenodd" clip-rule="evenodd" d="M17.6484 15.4434C17.6484 16.7434 16.5944 17.7994 15.2924 17.7994C13.9924 17.7994 12.9384 16.7434 12.9384 15.4434C12.9384 14.1434 13.9924 13.0894 15.2924 13.0894C16.5944 13.0894 17.6484 14.1434 17.6484 15.4434Z" fill="#8E969B"/>
<path fill-rule="evenodd" clip-rule="evenodd" d="M38.707 6.33C38.707 7.372 39.551 8.214 40.589 8.214C41.631 8.214 42.475 7.372 42.475 6.33C42.475 5.288 41.631 4.446 40.589 4.446C39.551 4.446 38.707 5.288 38.707 6.33Z" fill="#B8C0C4"/>
<path fill-rule="evenodd" clip-rule="evenodd" d="M55.5976 5.504C55.5976 6.828 56.6716 7.902 57.9976 7.902C59.3216 7.902 60.3956 6.828 60.3956 5.504C60.3956 4.178 59.3216 3.104 57.9976 3.104C56.6716 3.104 55.5976 4.178 55.5976 5.504Z" fill="#8E969B"/>
<path fill-rule="evenodd" clip-rule="evenodd" d="M147.352 140.352C145.052 142.654 141.184 142.54 138.738 140.094L127.06 128.416L135.418 120.06L147.094 131.738C149.54 134.184 149.654 138.048 147.352 140.352ZM148.508 130.324L136.126 117.942V117.94H136.124L128.196 110.01C127.806 109.62 127.172 109.62 126.782 110.01C126.392 110.4 126.392 111.034 126.782 111.424L134.004 118.646L125.646 127.002L118.426 119.782C118.036 119.392 117.402 119.392 117.012 119.782C116.622 120.172 116.622 120.806 117.012 121.196L137.324 141.508C138.984 143.168 141.148 144.004 143.282 144.004C145.29 144.004 147.27 143.262 148.766 141.766C151.848 138.682 151.732 133.55 148.508 130.324Z" fill="#586575"/>
<path fill-rule="evenodd" clip-rule="evenodd" d="M105.59 118.898C94.4858 118.898 85.4518 109.864 85.4518 98.7624C85.4518 87.6564 94.4858 78.6224 105.59 78.6224C116.694 78.6224 125.728 87.6564 125.728 98.7624C125.728 109.864 116.694 118.898 105.59 118.898ZM105.59 72.8684C91.2898 72.8684 79.6978 84.4604 79.6978 98.7624C79.6978 113.06 91.2898 124.652 105.59 124.652C119.89 124.652 131.482 113.06 131.482 98.7624C131.482 84.4604 119.89 72.8684 105.59 72.8684Z" fill="#DADDE0"/>
<path fill-rule="evenodd" clip-rule="evenodd" d="M105.59 73.5254C91.9138 73.5254 80.7898 84.6494 80.7898 98.3254C80.7898 111.999 91.9138 123.125 105.59 123.125C119.266 123.125 130.39 111.999 130.39 98.3254C130.39 84.6494 119.266 73.5254 105.59 73.5254ZM105.59 125.125C90.8118 125.125 78.7898 113.103 78.7898 98.3254C78.7898 83.5494 90.8118 71.5254 105.59 71.5254C120.368 71.5254 132.39 83.5494 132.39 98.3254C132.39 113.103 120.368 125.125 105.59 125.125Z" fill="#586575"/>
<path fill-rule="evenodd" clip-rule="evenodd" d="M119.313 91.8848C118.953 91.8848 118.605 91.6908 118.427 91.3528C115.825 86.4448 110.759 83.3968 105.207 83.3968C104.655 83.3968 104.207 82.9488 104.207 82.3968C104.207 81.8428 104.655 81.3968 105.207 81.3968C111.501 81.3968 117.243 84.8528 120.195 90.4168C120.453 90.9048 120.267 91.5108 119.779 91.7668C119.629 91.8468 119.469 91.8848 119.313 91.8848Z" fill="#DADDE0"/>
<path fill-rule="evenodd" clip-rule="evenodd" d="M95.0078 69.6504C94.6218 69.6504 94.2538 69.4244 94.0898 69.0464L92.1038 64.4404C91.8838 63.9324 92.1178 63.3444 92.6258 63.1244C93.1338 62.9004 93.7198 63.1404 93.9398 63.6464L95.9258 68.2544C96.1438 68.7624 95.9118 69.3504 95.4058 69.5684C95.2758 69.6244 95.1398 69.6504 95.0078 69.6504Z" fill="#6E7D89"/>
<path fill-rule="evenodd" clip-rule="evenodd" d="M85.8204 74.6484C85.5344 74.6484 85.2544 74.5264 85.0544 74.2904L81.8344 70.4584C81.4784 70.0364 81.5324 69.4064 81.9564 69.0504C82.3784 68.6924 83.0084 68.7504 83.3644 69.1744L86.5864 73.0064C86.9424 73.4284 86.8864 74.0584 86.4644 74.4144C86.2784 74.5724 86.0464 74.6484 85.8204 74.6484Z" fill="#6E7D89"/>
<path fill-rule="evenodd" clip-rule="evenodd" d="M79.1484 81.8906C78.9844 81.8906 78.8184 81.8486 78.6644 81.7666L74.2764 79.3406C73.7944 79.0726 73.6184 78.4646 73.8864 77.9806C74.1544 77.4966 74.7624 77.3266 75.2464 77.5906L79.6324 80.0166C80.1144 80.2826 80.2904 80.8906 80.0224 81.3746C79.8404 81.7046 79.5004 81.8906 79.1484 81.8906Z" fill="#6E7D89"/>
<path fill-rule="evenodd" clip-rule="evenodd" d="M74.7618 92.1524C74.7098 92.1524 74.6538 92.1484 74.5978 92.1384L69.6558 91.3224C69.1138 91.2324 68.7438 90.7184 68.8338 90.1744C68.9238 89.6284 69.4258 89.2524 69.9838 89.3504L74.9258 90.1664C75.4698 90.2564 75.8378 90.7704 75.7478 91.3144C75.6678 91.8044 75.2418 92.1524 74.7618 92.1524Z" fill="#6E7D89"/>
<path fill-rule="evenodd" clip-rule="evenodd" d="M95.0098 133.592C94.9458 133.592 94.8798 133.586 94.8118 133.572C94.2738 133.466 93.9198 132.94 94.0278 132.396L95.0078 127.472C95.1138 126.934 95.6338 126.572 96.1838 126.688C96.7218 126.796 97.0758 127.32 96.9678 127.864L95.9878 132.788C95.8938 133.262 95.4758 133.592 95.0098 133.592Z" fill="#6E7D89"/>
<path fill-rule="evenodd" clip-rule="evenodd" d="M69.8204 106.654C69.3364 106.654 68.9124 106.304 68.8324 105.814C68.7464 105.27 69.1144 104.756 69.6604 104.668L74.6024 103.868C75.1484 103.77 75.6604 104.152 75.7504 104.696C75.8364 105.24 75.4664 105.754 74.9224 105.842L69.9804 106.64C69.9264 106.65 69.8704 106.654 69.8204 106.654Z" fill="#6E7D89"/>
<path fill-rule="evenodd" clip-rule="evenodd" d="M75.1718 119.162C74.8718 119.162 74.5738 119.028 74.3798 118.772C74.0438 118.332 74.1258 117.704 74.5618 117.37L78.5398 114.32C78.9798 113.982 79.6058 114.068 79.9418 114.504C80.2778 114.944 80.1958 115.57 79.7578 115.906L75.7818 118.954C75.5978 119.096 75.3838 119.162 75.1718 119.162Z" fill="#6E7D89"/>
<path fill-rule="evenodd" clip-rule="evenodd" d="M84 128.236C83.816 128.236 83.632 128.188 83.466 128.082C83 127.788 82.86 127.17 83.152 126.702L85.822 122.464C86.118 122.002 86.732 121.856 87.204 122.152C87.668 122.444 87.808 123.064 87.516 123.53L84.848 127.77C84.656 128.07 84.332 128.236 84 128.236Z" fill="#6E7D89"/>
<path fill-rule="evenodd" clip-rule="evenodd" d="M105.543 104.477C104.993 104.477 104.547 103.987 104.547 103.435C104.547 102.825 104.821 101.909 108.093 98.0466C108.957 97.0286 109.377 96.0406 109.377 95.0246C109.377 93.9886 109.009 93.1326 108.253 92.4086C107.485 91.6726 106.571 91.3146 105.457 91.3146C104.253 91.3146 103.267 91.6106 102.443 92.2206C101.141 93.1866 101.001 93.7746 101.001 93.9826C101.001 94.5346 100.553 94.9826 100.001 94.9826C99.447 94.9826 99.001 94.5346 99.001 93.9826C99.001 92.8406 99.739 91.7386 101.253 90.6146C102.419 89.7526 103.833 89.3146 105.457 89.3146C107.089 89.3146 108.497 89.8686 109.637 90.9626C110.793 92.0706 111.377 93.4346 111.377 95.0246C111.377 96.5166 110.785 97.9666 109.617 99.3406C106.867 102.587 106.571 103.391 106.539 103.519C106.539 104.071 106.095 104.477 105.543 104.477ZM104.891 108.731L104.897 108.799C104.897 108.753 104.891 108.731 104.891 108.731ZM104.875 110.799C104.335 110.799 103.845 110.607 103.459 110.247C103.051 109.865 102.835 109.365 102.835 108.799C102.835 108.033 103.189 107.567 103.485 107.311C104.243 106.645 105.497 106.643 106.253 107.297C106.551 107.553 106.897 108.019 106.897 108.799C106.897 109.367 106.681 109.867 106.273 110.247C105.891 110.607 105.407 110.799 104.875 110.799Z" fill="#586575"/>
<mask id="mask0_88_2218" style="mask-type:alpha" maskUnits="userSpaceOnUse" x="0" y="0" width="160" height="160">
<path d="M0 160H160V0H0V160Z" fill="white"/>
</mask>
<g mask="url(#mask0_88_2218)">
<path fill-rule="evenodd" clip-rule="evenodd" d="M43 54H121V44H43V54ZM11 54H41V44H11V54ZM122 69.65C122.552 69.65 123 69.204 123 68.65V43C123 42.448 122.552 42 122 42H10C9.448 42 9 42.448 9 43V143C9 143.552 9.448 144 10 144H122C122.552 144 123 143.552 123 143V134.666C123 134.114 122.552 133.666 122 133.666C121.448 133.666 121 134.114 121 134.666V142H11V56H121V68.65C121 69.204 121.448 69.65 122 69.65Z" fill="#8E969B"/>
<path fill-rule="evenodd" clip-rule="evenodd" d="M32 49C32 47.894 32.894 47 34 47C35.106 47 36 47.894 36 49C36 50.106 35.106 51 34 51C32.894 51 32 50.106 32 49Z" fill="#8E969B"/>
<path fill-rule="evenodd" clip-rule="evenodd" d="M24 49C24 47.894 24.894 47 26 47C27.106 47 28 47.894 28 49C28 50.106 27.106 51 26 51C24.894 51 24 50.106 24 49Z" fill="#8E969B"/>
<path fill-rule="evenodd" clip-rule="evenodd" d="M16 49C16 47.894 16.894 47 18 47C19.106 47 20 47.894 20 49C20 50.106 19.106 51 18 51C16.894 51 16 50.106 16 49Z" fill="#8E969B"/>
<path fill-rule="evenodd" clip-rule="evenodd" d="M65 28H143V18H65V28ZM33 28H63V18H33V28ZM144 16H32C31.448 16 31 16.448 31 17V37C31 37.552 31.448 38 32 38C32.552 38 33 37.552 33 37V30H143V115C143 115.552 143.448 116 144 116C144.552 116 145 115.552 145 115V17C145 16.448 144.552 16 144 16Z" fill="#B8C0C4"/>
<path fill-rule="evenodd" clip-rule="evenodd" d="M56 21C54.894 21 54 21.894 54 23C54 24.106 54.894 25 56 25C57.106 25 58 24.106 58 23C58 21.894 57.106 21 56 21Z" fill="#B8C0C4"/>
<path fill-rule="evenodd" clip-rule="evenodd" d="M48 21C46.894 21 46 21.894 46 23C46 24.106 46.894 25 48 25C49.106 25 50 24.106 50 23C50 21.894 49.106 21 48 21Z" fill="#B8C0C4"/>
<path fill-rule="evenodd" clip-rule="evenodd" d="M40 21C38.894 21 38 21.894 38 23C38 24.106 38.894 25 40 25C41.106 25 42 24.106 42 23C42 21.894 41.106 21 40 21Z" fill="#B8C0C4"/>
<path fill-rule="evenodd" clip-rule="evenodd" d="M56 154H20C19.448 154 19 153.552 19 153C19 152.448 19.448 152 20 152H56C56.552 152 57 152.448 57 153C57 153.552 56.552 154 56 154ZM98 154H62C61.448 154 61 153.552 61 153C61 152.448 61.448 152 62 152H98C98.552 152 99 152.448 99 153C99 153.552 98.552 154 98 154ZM108 154H104C103.448 154 103 153.552 103 153C103 152.448 103.448 152 104 152H108C108.552 152 109 152.448 109 153C109 153.552 108.552 154 108 154Z" fill="#EDF1F4"/>
<path fill-rule="evenodd" clip-rule="evenodd" d="M145 154H121C120.448 154 120 153.552 120 153C120 152.448 120.448 152 121 152H145C145.552 152 146 152.448 146 153C146 153.552 145.552 154 145 154Z" fill="#EDF1F4"/>
<path fill-rule="evenodd" clip-rule="evenodd" d="M15 160H1C0.448 160 0 159.552 0 159C0 158.448 0.448 158 1 158H15C15.552 158 16 158.448 16 159C16 159.552 15.552 160 15 160ZM29 160H21C20.448 160 20 159.552 20 159C20 158.448 20.448 158 21 158H29C29.552 158 30 158.448 30 159C30 159.552 29.552 160 29 160Z" fill="#EDF1F4"/>
<path fill-rule="evenodd" clip-rule="evenodd" d="M57 160H43C42.448 160 42 159.552 42 159C42 158.448 42.448 158 43 158H57C57.552 158 58 158.448 58 159C58 159.552 57.552 160 57 160ZM77 160H63C62.448 160 62 159.552 62 159C62 158.448 62.448 158 63 158H77C77.552 158 78 158.448 78 159C78 159.552 77.552 160 77 160ZM97 160H83C82.448 160 82 159.552 82 159C82 158.448 82.448 158 83 158H97C97.552 158 98 158.448 98 159C98 159.552 97.552 160 97 160ZM117 160H103C102.448 160 102 159.552 102 159C102 158.448 102.448 158 103 158H117C117.552 158 118 158.448 118 159C118 159.552 117.552 160 117 160ZM137 160H123C122.448 160 122 159.552 122 159C122 158.448 122.448 158 123 158H137C137.552 158 138 158.448 138 159C138 159.552 137.552 160 137 160ZM159 160H143C142.448 160 142 159.552 142 159C142 158.448 142.448 158 143 158H159C159.552 158 160 158.448 160 159C160 159.552 159.552 160 159 160Z" fill="#EDF1F4"/>
</g>
</g>
<defs>
<clipPath id="clip0_88_2218">
<rect width="160" height="160" fill="white"/>
</clipPath>
</defs>
</svg>
