<svg width="80" height="80" viewBox="0 0 80 80" fill="none" xmlns="http://www.w3.org/2000/svg">
<g clip-path="url(#clip0_88_1809)">
<path fill-rule="evenodd" clip-rule="evenodd" d="M66.0596 72.5H14.4996C14.2236 72.5 13.9996 72.276 13.9996 72C13.9996 71.724 14.2236 71.5 14.4996 71.5H65.5596V61.417C65.5596 61.141 65.7836 60.917 66.0596 60.917C66.3356 60.917 66.5596 61.141 66.5596 61.417V72C66.5596 72.276 66.3356 72.5 66.0596 72.5Z" fill="#84B0D7"/>
<mask id="mask0_88_1809" style="mask-type:alpha" maskUnits="userSpaceOnUse" x="0" y="0" width="80" height="80">
<path d="M0 80H80V0H0V80Z" fill="white"/>
</mask>
<g mask="url(#mask0_88_1809)">
<path fill-rule="evenodd" clip-rule="evenodd" d="M1 11H42V1H1V11ZM42.5 0H0.5C0.224 0 0 0.224 0 0.5V11.5C0 11.776 0.224 12 0.5 12H42.5C42.776 12 43 11.776 43 11.5V0.5C43 0.224 42.776 0 42.5 0Z" fill="#84B0D7"/>
<path fill-rule="evenodd" clip-rule="evenodd" d="M4.25 8H8.25V4H4.25V8ZM3.75 9H8.75C9.026 9 9.25 8.776 9.25 8.5V3.5C9.25 3.224 9.026 3 8.75 3H3.75C3.474 3 3.25 3.224 3.25 3.5V8.5C3.25 8.776 3.474 9 3.75 9Z" fill="#84B0D7"/>
<path fill-rule="evenodd" clip-rule="evenodd" d="M11.75 4.5H38.75C39.026 4.5 39.25 4.276 39.25 4C39.25 3.724 39.026 3.5 38.75 3.5H11.75C11.474 3.5 11.25 3.724 11.25 4C11.25 4.276 11.474 4.5 11.75 4.5Z" fill="#84B0D7"/>
<path fill-rule="evenodd" clip-rule="evenodd" d="M11.75 8.5H38.75C39.026 8.5 39.25 8.276 39.25 8C39.25 7.724 39.026 7.5 38.75 7.5H11.75C11.474 7.5 11.25 7.724 11.25 8C11.25 8.276 11.474 8.5 11.75 8.5Z" fill="#84B0D7"/>
<path fill-rule="evenodd" clip-rule="evenodd" d="M4.25 18.75H8.25V14.75H4.25V18.75ZM8.75 13.75H3.75C3.474 13.75 3.25 13.974 3.25 14.25V19.25C3.25 19.526 3.474 19.75 3.75 19.75H8.75C9.026 19.75 9.25 19.526 9.25 19.25V14.25C9.25 13.974 9.026 13.75 8.75 13.75Z" fill="#C1E3FF"/>
<path fill-rule="evenodd" clip-rule="evenodd" d="M38.75 14.25H11.75C11.474 14.25 11.25 14.474 11.25 14.75C11.25 15.026 11.474 15.25 11.75 15.25H38.75C39.026 15.25 39.25 15.026 39.25 14.75C39.25 14.474 39.026 14.25 38.75 14.25Z" fill="#C1E3FF"/>
<path fill-rule="evenodd" clip-rule="evenodd" d="M11.75 19.25H32.75C33.026 19.25 33.25 19.026 33.25 18.75C33.25 18.474 33.026 18.25 32.75 18.25H11.75C11.474 18.25 11.25 18.474 11.25 18.75C11.25 19.026 11.474 19.25 11.75 19.25Z" fill="#C1E3FF"/>
<path fill-rule="evenodd" clip-rule="evenodd" d="M4.25 26.75H8.25V22.75H4.25V26.75ZM8.75 21.75H3.75C3.474 21.75 3.25 21.974 3.25 22.25V27.25C3.25 27.526 3.474 27.75 3.75 27.75H8.75C9.026 27.75 9.25 27.526 9.25 27.25V22.25C9.25 21.974 9.026 21.75 8.75 21.75Z" fill="#C1E3FF"/>
<path fill-rule="evenodd" clip-rule="evenodd" d="M35.75 22.25H11.75C11.474 22.25 11.25 22.474 11.25 22.75C11.25 23.026 11.474 23.25 11.75 23.25H35.75C36.026 23.25 36.25 23.026 36.25 22.75C36.25 22.474 36.026 22.25 35.75 22.25Z" fill="#C1E3FF"/>
<path fill-rule="evenodd" clip-rule="evenodd" d="M29.75 26.25H11.75C11.474 26.25 11.25 26.474 11.25 26.75C11.25 27.026 11.474 27.25 11.75 27.25H29.75C30.026 27.25 30.25 27.026 30.25 26.75C30.25 26.474 30.026 26.25 29.75 26.25Z" fill="#C1E3FF"/>
<path fill-rule="evenodd" clip-rule="evenodd" d="M73.6758 59.6758C72.5248 60.8278 70.5918 60.7708 69.3688 59.5468L63.5298 53.7088L67.7088 49.5298L73.5468 55.3688C74.7698 56.5918 74.8268 58.5238 73.6758 59.6758ZM74.2538 54.6618L64.0968 44.5048C63.9018 44.3098 63.5858 44.3098 63.3898 44.5048C63.1948 44.6998 63.1948 45.0168 63.3898 45.2118L67.0018 48.8228L62.8238 53.0018L59.2128 49.3898C59.0168 49.1948 58.7008 49.1948 58.5058 49.3898C58.3098 49.5858 58.3098 49.9018 58.5058 50.0968L62.4688 54.0608L62.4698 54.0618L62.4708 54.0628L68.6618 60.2538C69.4918 61.0838 70.5748 61.5018 71.6408 61.5018C72.6458 61.5018 73.6348 61.1308 74.3828 60.3828C75.9248 58.8408 75.8658 56.2748 74.2538 54.6618Z" fill="#297CBB"/>
<path fill-rule="evenodd" clip-rule="evenodd" d="M52.7949 48.9497C47.2429 48.9497 42.7259 44.4327 42.7259 38.8807C42.7259 33.3287 47.2429 28.8107 52.7949 28.8107C58.3469 28.8107 62.8639 33.3287 62.8639 38.8807C62.8639 44.4327 58.3469 48.9497 52.7949 48.9497ZM52.7949 25.9347C45.6449 25.9347 39.8489 31.7307 39.8489 38.8807C39.8489 46.0307 45.6449 51.8267 52.7949 51.8267C59.9449 51.8267 65.7409 46.0307 65.7409 38.8807C65.7409 31.7307 59.9449 25.9347 52.7949 25.9347Z" fill="#C1E3FF"/>
<path fill-rule="evenodd" clip-rule="evenodd" d="M52.7949 26.2627C45.9579 26.2627 40.3949 31.8247 40.3949 38.6627C40.3949 45.4997 45.9579 51.0627 52.7949 51.0627C59.6319 51.0627 65.1949 45.4997 65.1949 38.6627C65.1949 31.8247 59.6319 26.2627 52.7949 26.2627ZM52.7949 52.0627C45.4059 52.0627 39.3949 46.0517 39.3949 38.6627C39.3949 31.2737 45.4059 25.2627 52.7949 25.2627C60.1839 25.2627 66.1949 31.2737 66.1949 38.6627C66.1949 46.0517 60.1839 52.0627 52.7949 52.0627Z" fill="#297CBB"/>
<path fill-rule="evenodd" clip-rule="evenodd" d="M59.6558 35.4429C59.4768 35.4429 59.3028 35.3469 59.2138 35.1769C57.9118 32.7229 55.3788 31.1989 52.6038 31.1989C52.3268 31.1989 52.1038 30.9749 52.1038 30.6989C52.1038 30.4219 52.3268 30.1989 52.6038 30.1989C55.7498 30.1989 58.6218 31.9269 60.0968 34.7089C60.2268 34.9529 60.1338 35.2559 59.8898 35.3849C59.8148 35.4239 59.7348 35.4429 59.6558 35.4429Z" fill="#C1E3FF"/>
<path fill-rule="evenodd" clip-rule="evenodd" d="M47.5044 24.3252C47.5704 24.3252 47.6374 24.3122 47.7024 24.2842C47.9564 24.1752 48.0724 23.8812 47.9634 23.6272L46.9694 21.3232C46.8604 21.0692 46.5644 20.9532 46.3134 21.0622C46.0594 21.1712 45.9424 21.4652 46.0514 21.7192L47.0454 24.0232C47.1274 24.2122 47.3114 24.3252 47.5044 24.3252Z" fill="#009EFB"/>
<path fill-rule="evenodd" clip-rule="evenodd" d="M42.9106 26.8237C43.0236 26.8237 43.1386 26.7847 43.2316 26.7067C43.4436 26.5287 43.4706 26.2137 43.2926 26.0017L41.6826 24.0867C41.5046 23.8757 41.1896 23.8477 40.9776 24.0257C40.7666 24.2027 40.7396 24.5187 40.9166 24.7297L42.5276 26.6457C42.6266 26.7627 42.7676 26.8237 42.9106 26.8237Z" fill="#009EFB"/>
<path fill-rule="evenodd" clip-rule="evenodd" d="M39.8164 29.5078L37.6234 28.2948C37.3814 28.1608 37.0774 28.2488 36.9434 28.4898C36.8094 28.7318 36.8974 29.0358 37.1384 29.1698L39.3324 30.3828C39.4084 30.4248 39.4914 30.4448 39.5734 30.4448C39.7504 30.4448 39.9204 30.3518 40.0114 30.1878C40.1454 29.9458 40.0584 29.6418 39.8164 29.5078Z" fill="#009EFB"/>
<path fill-rule="evenodd" clip-rule="evenodd" d="M34.8286 35.1611L37.2996 35.5691C37.3276 35.5741 37.3546 35.5761 37.3816 35.5761C37.6216 35.5761 37.8336 35.4021 37.8736 35.1581C37.9186 34.8851 37.7346 34.6281 37.4626 34.5831L34.9916 34.1751C34.7116 34.1241 34.4616 34.3141 34.4166 34.5861C34.3716 34.8591 34.5566 35.1161 34.8286 35.1611Z" fill="#009EFB"/>
<path fill-rule="evenodd" clip-rule="evenodd" d="M48.0913 52.8437C47.8193 52.7867 47.5563 52.9667 47.5033 53.2367L47.0143 55.6987C46.9603 55.9697 47.1363 56.2327 47.4063 56.2867C47.4403 56.2937 47.4723 56.2967 47.5053 56.2967C47.7383 56.2967 47.9473 56.1317 47.9943 55.8937L48.4843 53.4317C48.5383 53.1607 48.3623 52.8977 48.0913 52.8437Z" fill="#009EFB"/>
<path fill-rule="evenodd" clip-rule="evenodd" d="M37.8745 41.8472C37.8305 41.5752 37.5785 41.3892 37.3005 41.4332L34.8305 41.8332C34.5575 41.8782 34.3725 42.1342 34.4165 42.4072C34.4565 42.6532 34.6685 42.8272 34.9095 42.8272C34.9365 42.8272 34.9625 42.8252 34.9905 42.8212L37.4605 42.4212C37.7335 42.3762 37.9185 42.1202 37.8745 41.8472Z" fill="#009EFB"/>
<path fill-rule="evenodd" clip-rule="evenodd" d="M39.27 46.6597L37.282 48.1847C37.062 48.3527 37.021 48.6667 37.189 48.8857C37.288 49.0137 37.436 49.0817 37.586 49.0817C37.692 49.0817 37.799 49.0477 37.89 48.9787L39.878 47.4537C40.098 47.2847 40.139 46.9717 39.971 46.7527C39.804 46.5337 39.49 46.4927 39.27 46.6597Z" fill="#009EFB"/>
<path fill-rule="evenodd" clip-rule="evenodd" d="M43.6011 50.5752C43.3671 50.4302 43.0591 50.4992 42.9111 50.7322L41.5771 52.8512C41.4301 53.0852 41.5001 53.3942 41.7331 53.5412C41.8161 53.5932 41.9091 53.6182 41.9991 53.6182C42.1651 53.6182 42.3281 53.5352 42.4231 53.3852L43.7581 51.2652C43.9051 51.0312 43.8341 50.7222 43.6011 50.5752Z" fill="#009EFB"/>
<path fill-rule="evenodd" clip-rule="evenodd" d="M61.5596 67.5V56.75C61.5596 56.474 61.3356 56.25 61.0596 56.25C60.7836 56.25 60.5596 56.474 60.5596 56.75V67H8.6236V31.333C8.6236 31.057 8.3996 30.833 8.1236 30.833C7.8476 30.833 7.6236 31.057 7.6236 31.333V67.5C7.6236 67.776 7.8476 68 8.1236 68H61.0596C61.3356 68 61.5596 67.776 61.5596 67.5Z" fill="#84B0D7"/>
<path fill-rule="evenodd" clip-rule="evenodd" d="M46 8.9609H60.56V23.8589C60.56 24.1359 60.783 24.3589 61.06 24.3589C61.336 24.3589 61.56 24.1359 61.56 23.8589V8.4609C61.56 8.1849 61.336 7.9609 61.06 7.9609H46C45.724 7.9609 45.5 8.1849 45.5 8.4609C45.5 8.7369 45.724 8.9609 46 8.9609Z" fill="#84B0D7"/>
<path fill-rule="evenodd" clip-rule="evenodd" d="M66.0596 14C65.7836 14 65.5596 14.224 65.5596 14.5V28.5C65.5596 28.776 65.7836 29 66.0596 29C66.3356 29 66.5596 28.776 66.5596 28.5V14.5C66.5596 14.224 66.3356 14 66.0596 14Z" fill="#84B0D7"/>
<path fill-rule="evenodd" clip-rule="evenodd" d="M51.7422 43.1548C51.5952 43.2828 51.4182 43.5168 51.4182 43.8998C51.4182 44.1818 51.5262 44.4318 51.7292 44.6228C51.9232 44.8038 52.1682 44.8998 52.4382 44.8998C52.7022 44.8998 52.9442 44.8038 53.1372 44.6228C53.3412 44.4328 53.4482 44.1828 53.4482 43.8998C53.4482 43.5088 53.2752 43.2768 53.1262 43.1468C52.7462 42.8208 52.1202 42.8228 51.7422 43.1548Z" fill="#297CBB"/>
<path fill-rule="evenodd" clip-rule="evenodd" d="M54.8184 34.9819C54.2474 34.4349 53.5444 34.1569 52.7284 34.1569C51.9174 34.1569 51.2104 34.3759 50.6264 34.8069C49.8684 35.3699 49.5004 35.9199 49.5004 36.4909C49.5004 36.7669 49.7234 36.9909 50.0004 36.9909C50.2764 36.9909 50.5004 36.7669 50.5004 36.4909C50.5004 36.3869 50.5704 36.0939 51.2214 35.6109C51.6344 35.3059 52.1274 35.1569 52.7284 35.1569C53.2854 35.1569 53.7424 35.3359 54.1264 35.7039C54.5054 36.0659 54.6884 36.4949 54.6884 37.0129C54.6884 37.5209 54.4784 38.0149 54.0474 38.5239C52.4104 40.4549 52.2734 40.9129 52.2734 41.2169C52.2734 41.4939 52.4954 41.7379 52.7714 41.7379C53.0474 41.7379 53.2694 41.5359 53.2694 41.2599C53.2854 41.1959 53.4334 40.7939 54.8094 39.1699C55.3924 38.4829 55.6884 37.7579 55.6884 37.0129C55.6884 36.2189 55.3964 35.5349 54.8184 34.9819Z" fill="#297CBB"/>
<path fill-rule="evenodd" clip-rule="evenodd" d="M76.6255 1.687C76.6255 2.619 77.3805 3.374 78.3125 3.374C79.2445 3.374 80.0005 2.619 80.0005 1.687C80.0005 0.755 79.2445 0 78.3125 0C77.3805 0 76.6255 0.755 76.6255 1.687Z" fill="#D6E5F1"/>
<path fill-rule="evenodd" clip-rule="evenodd" d="M74.7539 20.1284C74.7539 21.1624 75.5919 22.0004 76.6259 22.0004C77.6589 22.0004 78.4969 21.1624 78.4969 20.1284C78.4969 19.0944 77.6589 18.2564 76.6259 18.2564C75.5919 18.2564 74.7539 19.0944 74.7539 20.1284Z" fill="#C1E3FF"/>
<path fill-rule="evenodd" clip-rule="evenodd" d="M67.6753 0.717801C67.6753 1.0828 67.9713 1.3798 68.3363 1.3798C68.7013 1.3798 68.9983 1.0828 68.9983 0.717801C68.9983 0.352801 68.7013 0.0568008 68.3363 0.0568008C67.9713 0.0568008 67.6753 0.352801 67.6753 0.717801Z" fill="#D6E5F1"/>
<path fill-rule="evenodd" clip-rule="evenodd" d="M72.1758 6.7222C72.1758 7.3722 72.7028 7.8992 73.3538 7.8992C74.0038 7.8992 74.5308 7.3722 74.5308 6.7222C74.5308 6.0722 74.0038 5.5442 73.3538 5.5442C72.7028 5.5442 72.1758 6.0722 72.1758 6.7222Z" fill="#C1E3FF"/>
<path fill-rule="evenodd" clip-rule="evenodd" d="M60.647 3.165C60.647 3.686 60.225 4.107 59.705 4.107C59.184 4.107 58.763 3.686 58.763 3.165C58.763 2.644 59.184 2.223 59.705 2.223C60.225 2.223 60.647 2.644 60.647 3.165Z" fill="#C1E3FF"/>
<path fill-rule="evenodd" clip-rule="evenodd" d="M67.3696 9.3877C67.3696 9.7657 67.0626 10.0727 66.6846 10.0727C66.3066 10.0727 65.9996 9.7657 65.9996 9.3877C65.9996 9.0097 66.3066 8.7027 66.6846 8.7027C67.0626 8.7027 67.3696 9.0097 67.3696 9.3877Z" fill="#D6E5F1"/>
<path fill-rule="evenodd" clip-rule="evenodd" d="M52.2012 2.752C52.2012 3.415 51.6642 3.951 51.0012 3.951C50.3392 3.951 49.8022 3.415 49.8022 2.752C49.8022 2.089 50.3392 1.552 51.0012 1.552C51.6642 1.552 52.2012 2.089 52.2012 2.752Z" fill="#D6E5F1"/>
<path fill-rule="evenodd" clip-rule="evenodd" d="M52 77H54C54.276 77 54.5 76.776 54.5 76.5C54.5 76.224 54.276 76 54 76H52C51.724 76 51.5 76.224 51.5 76.5C51.5 76.776 51.724 77 52 77Z" fill="#D6E5F1"/>
<path fill-rule="evenodd" clip-rule="evenodd" d="M49 76H31C30.724 76 30.5 76.224 30.5 76.5C30.5 76.776 30.724 77 31 77H49C49.276 77 49.5 76.776 49.5 76.5C49.5 76.224 49.276 76 49 76Z" fill="#D6E5F1"/>
<path fill-rule="evenodd" clip-rule="evenodd" d="M28 77C28.276 77 28.5 76.776 28.5 76.5C28.5 76.224 28.276 76 28 76H10C9.724 76 9.5 76.224 9.5 76.5C9.5 76.776 9.724 77 10 77H28Z" fill="#D6E5F1"/>
<path fill-rule="evenodd" clip-rule="evenodd" d="M73 76.5C73 76.224 72.776 76 72.5 76H60.5C60.224 76 60 76.224 60 76.5C60 76.776 60.224 77 60.5 77H72.5C72.776 77 73 76.776 73 76.5Z" fill="#D6E5F1"/>
<path fill-rule="evenodd" clip-rule="evenodd" d="M14.5 79H10.5C10.224 79 10 79.224 10 79.5C10 79.776 10.224 80 10.5 80H14.5C14.776 80 15 79.776 15 79.5C15 79.224 14.776 79 14.5 79Z" fill="#D6E5F1"/>
<path fill-rule="evenodd" clip-rule="evenodd" d="M7.5 79H0.5C0.224 79 0 79.224 0 79.5C0 79.776 0.224 80 0.5 80H7.5C7.776 80 8 79.776 8 79.5C8 79.224 7.776 79 7.5 79Z" fill="#D6E5F1"/>
<path fill-rule="evenodd" clip-rule="evenodd" d="M58.5 79H51.5C51.224 79 51 79.224 51 79.5C51 79.776 51.224 80 51.5 80H58.5C58.776 80 59 79.776 59 79.5C59 79.224 58.776 79 58.5 79Z" fill="#D6E5F1"/>
<path fill-rule="evenodd" clip-rule="evenodd" d="M79.5 79H71.5C71.224 79 71 79.224 71 79.5C71 79.776 71.224 80 71.5 80H79.5C79.776 80 80 79.776 80 79.5C80 79.224 79.776 79 79.5 79Z" fill="#D6E5F1"/>
<path fill-rule="evenodd" clip-rule="evenodd" d="M68.5 79H61.5C61.224 79 61 79.224 61 79.5C61 79.776 61.224 80 61.5 80H68.5C68.776 80 69 79.776 69 79.5C69 79.224 68.776 79 68.5 79Z" fill="#D6E5F1"/>
<path fill-rule="evenodd" clip-rule="evenodd" d="M28.5 79H21.5C21.224 79 21 79.224 21 79.5C21 79.776 21.224 80 21.5 80H28.5C28.776 80 29 79.776 29 79.5C29 79.224 28.776 79 28.5 79Z" fill="#D6E5F1"/>
<path fill-rule="evenodd" clip-rule="evenodd" d="M48.5 79H41.5C41.224 79 41 79.224 41 79.5C41 79.776 41.224 80 41.5 80H48.5C48.776 80 49 79.776 49 79.5C49 79.224 48.776 79 48.5 79Z" fill="#D6E5F1"/>
<path fill-rule="evenodd" clip-rule="evenodd" d="M38.5 79H31.5C31.224 79 31 79.224 31 79.5C31 79.776 31.224 80 31.5 80H38.5C38.776 80 39 79.776 39 79.5C39 79.224 38.776 79 38.5 79Z" fill="#D6E5F1"/>
</g>
</g>
<defs>
<clipPath id="clip0_88_1809">
<rect width="80" height="80" fill="white"/>
</clipPath>
</defs>
</svg>
