<svg width="40" height="18" viewBox="0 0 40 18" fill="none" xmlns="http://www.w3.org/2000/svg">
<path fill-rule="evenodd" clip-rule="evenodd" d="M38.7556 1.90331C37.9412 1.07887 36.6013 0.666647 34.736 0.666647H21.6465C21.5472 0.652696 21.4461 0.661528 21.351 0.692443C21.2558 0.723358 21.1694 0.775504 21.0985 0.844742C21.0277 0.913981 20.9743 0.998405 20.9426 1.09131C20.911 1.18422 20.9019 1.28306 20.9162 1.37998V16.81C20.9162 17.16 21.1005 17.3333 21.4758 17.3333H24.1067C24.1795 17.3433 24.2536 17.3367 24.3232 17.3139C24.3929 17.2911 24.4562 17.2529 24.5081 17.2021C24.5601 17.1514 24.5992 17.0895 24.6226 17.0215C24.6459 16.9534 24.6527 16.881 24.6424 16.81V12.2366H34.736C36.6036 12.2366 37.9435 11.8244 38.7556 11C39.5677 10.1755 39.9738 8.95331 39.9738 7.33331V5.56998C39.9761 3.94998 39.57 2.72776 38.7556 1.90331ZM33.9784 9.09665H24.6424V4.23665C24.6424 4.04665 24.7482 3.95331 24.9598 3.95331H33.9784C34.8065 3.95331 35.3911 4.12776 35.7323 4.47665C36.1075 4.92312 36.2909 5.49419 36.2442 6.06998V6.97665C36.2916 7.55251 36.1081 8.12384 35.7323 8.56998C35.3934 8.92109 34.8088 9.09665 33.9784 9.09665ZM18.1114 1.1902C18.1114 0.840195 17.9237 0.666862 17.5518 0.666862H6.82699C5.76898 0.642665 4.71231 0.75474 3.68428 1.0002C2.89819 1.19232 2.17345 1.57265 1.57549 2.10686C1.00999 2.63993 0.598089 3.30901 0.381191 4.04686C0.107996 4.99202 -0.0196574 5.97165 0.00242822 6.95353V11.0469C-0.0177649 12.0275 0.109856 13.0058 0.381191 13.9502C0.595599 14.693 1.00769 15.367 1.57549 15.9035C2.1739 16.4322 2.89923 16.8048 3.68428 16.9869C4.71301 17.2285 5.76915 17.3405 6.82699 17.3202H17.5518C17.9237 17.3202 18.1114 17.1302 18.1114 16.7969V14.5335C18.1114 14.1869 17.9237 14.0102 17.5518 14.0102H6.89864C6.37099 14.0217 5.84387 13.9702 5.329 13.8569C4.9536 13.7735 4.60819 13.5927 4.3292 13.3335C4.05977 13.0561 3.87741 12.7091 3.80371 12.3335C3.70002 11.8288 3.65084 11.3149 3.65698 10.8002V10.3935H17.4289C17.5017 10.4035 17.5758 10.3969 17.6455 10.3741C17.7151 10.3513 17.7784 10.3131 17.8304 10.2623C17.8823 10.2116 17.9215 10.1498 17.9448 10.0817C17.9681 10.0137 17.9749 9.94125 17.9647 9.8702V7.9902C17.9749 7.91914 17.9681 7.84673 17.9448 7.77868C17.9215 7.71063 17.8823 7.6488 17.8304 7.59806C17.7784 7.54732 17.7151 7.50905 17.6455 7.48629C17.5758 7.46352 17.5017 7.45687 17.4289 7.46686H3.65698V7.22686C3.64891 6.70324 3.6981 6.18028 3.80371 5.66686C3.87741 5.29131 4.05977 4.94427 4.3292 4.66686C4.6066 4.40288 4.95215 4.21739 5.329 4.1302C5.84387 4.01686 6.37099 3.96537 6.89864 3.97686H17.5518C17.9237 3.97686 18.1114 3.78686 18.1114 3.45353V1.1902Z" fill="white"/>
</svg>
